<svg width="292" height="156" viewBox="0 0 292 156" fill="none" xmlns="http://www.w3.org/2000/svg">
<g clip-path="url(#clip0_128_973)">
<path d="M41.7561 2.33274C40.7341 1.45797 37.0841 0.291618 35.6241 0.729001C34.4561 1.16638 31.3901 4.08227 30.6601 5.24863C28.0321 9.18507 25.5501 13.1215 25.8421 18.3701" stroke="#FEF6E3" stroke-width="0.5" stroke-miterlimit="10" stroke-linecap="round" stroke-linejoin="round"/>
<path d="M42.778 5.10282C40.88 4.37384 40.296 5.10282 39.274 6.41497C37.814 8.45609 34.31 13.9963 34.894 16.329C36.938 17.4953 38.544 18.2243 38.836 20.2654C39.42 23.7645 36.062 27.5552 35.04 24.4935C32.996 24.9309 30.514 25.9514 28.762 24.9309" stroke="#FEF6E3" stroke-width="0.5" stroke-miterlimit="10" stroke-linecap="round" stroke-linejoin="round"/>
<path d="M44.238 3.9364C48.472 8.01864 47.304 11.3719 46.282 15.4542L47.158 16.1831C46.282 16.6205 45.99 16.3289 45.406 16.1831" stroke="#FEF6E3" stroke-width="0.5" stroke-miterlimit="10" stroke-linecap="round" stroke-linejoin="round"/>
<path d="M44.1725 14.29C43.2965 14.5816 42.7125 16.0396 41.5445 15.3106L40.5225 17.0601" stroke="#FEF6E3" stroke-width="0.5" stroke-miterlimit="10" stroke-linecap="round" stroke-linejoin="round"/>
<path d="M44.822 16.329L45.114 19.828C43.946 21.286 42.778 19.6822 40.88 20.9944" stroke="#FEF6E3" stroke-width="0.5" stroke-miterlimit="10" stroke-linecap="round" stroke-linejoin="round"/>
<path d="M29.054 18.3701C27.156 19.6823 23.214 23.6187 22.338 26.5346" stroke="#FEF6E3" stroke-width="0.5" stroke-miterlimit="10" stroke-linecap="round" stroke-linejoin="round"/>
<path d="M29.2 18.9532C30.66 20.4112 29.054 22.7439 28.032 24.4934" stroke="#FEF6E3" stroke-width="0.5" stroke-miterlimit="10" stroke-linecap="round" stroke-linejoin="round"/>
<path d="M22.484 29.4504C22.192 37.7607 27.156 48.5495 29.93 55.4018C31.39 59.1925 34.31 64.1495 36.938 68.2317L46.866 62.1084" stroke="#FEF6E3" stroke-width="0.5" stroke-miterlimit="10" stroke-linecap="round" stroke-linejoin="round"/>
<path d="M45.114 64.2952L46.866 63.2747C48.472 64.1494 51.246 65.17 52.268 66.9195L51.684 67.6485L52.268 68.3775C51.684 69.6896 49.932 70.7102 48.326 71.1476L48.618 71.4391C45.552 71.7307 45.844 68.9606 44.092 66.9195" stroke="#FEF6E3" stroke-width="0.5" stroke-miterlimit="10" stroke-linecap="round" stroke-linejoin="round"/>
<path d="M42.632 65.1702L43.508 65.8991" stroke="#FEF6E3" stroke-width="0.5" stroke-miterlimit="10" stroke-linecap="round" stroke-linejoin="round"/>
<path d="M44.092 26.2429C44.092 32.0747 43.946 41.6971 42.632 47.5289L44.092 49.7158L43.8 51.1738L41.026 54.527" stroke="#FEF6E3" stroke-width="0.5" stroke-miterlimit="10" stroke-linecap="round" stroke-linejoin="round"/>
<path d="M44.0921 52.3401C45.9901 53.0691 43.6541 54.8186 43.3621 56.5681" stroke="#FEF6E3" stroke-width="0.5" stroke-miterlimit="10" stroke-linecap="round" stroke-linejoin="round"/>
<path d="M34.3101 31.929L34.7481 39.9476" stroke="#FEF6E3" stroke-width="0.5" stroke-miterlimit="10" stroke-linecap="round" stroke-linejoin="round"/>
<path d="M34.1641 41.9888L38.5441 51.6112C38.8361 54.5271 43.3621 58.9009 45.5521 61.8168" stroke="#FEF6E3" stroke-width="0.5" stroke-miterlimit="10" stroke-linecap="round" stroke-linejoin="round"/>
<path d="M23.0679 38.0522C22.6299 42.8635 22.4839 45.7793 22.6299 48.841L24.9659 50.4448C23.9439 52.3401 26.1339 53.3607 27.1559 54.6728L28.3239 54.527" stroke="#FEF6E3" stroke-width="0.5" stroke-miterlimit="10" stroke-linecap="round" stroke-linejoin="round"/>
<path d="M37.814 34.699L40.88 33.6785C42.632 35.8654 40.442 37.3233 39.274 37.0317L36.354 37.3233L36.208 36.3028" stroke="#FEF6E3" stroke-width="0.5" stroke-miterlimit="10" stroke-linecap="round" stroke-linejoin="round"/>
<path d="M38.8361 36.5945H39.2741" stroke="#FEF6E3" stroke-width="0.5" stroke-miterlimit="10" stroke-linecap="round" stroke-linejoin="round"/>
<path d="M40.442 35.1365H40.733" stroke="#FEF6E3" stroke-width="0.5" stroke-miterlimit="10" stroke-linecap="round" stroke-linejoin="round"/>
<path d="M25.842 57.4429C25.112 61.8167 22.484 67.6485 22.338 70.7102L22.63 73.4803C21.754 80.77 18.542 91.2672 18.25 97.3905" stroke="#FEF6E3" stroke-width="0.5" stroke-miterlimit="10" stroke-linecap="round" stroke-linejoin="round"/>
<path d="M37.8139 75.6672C35.7699 76.6878 33.7259 86.0186 30.5139 94.1831L26.5719 104.389L24.8199 105.847" stroke="#FEF6E3" stroke-width="0.5" stroke-miterlimit="10" stroke-linecap="round" stroke-linejoin="round"/>
<path d="M36.646 77.8542L47.304 98.9944C51.246 107.305 55.334 121.009 59.568 128.882L71.54 120.426L59.13 106.284" stroke="#FEF6E3" stroke-width="0.5" stroke-miterlimit="10" stroke-linecap="round" stroke-linejoin="round"/>
<path d="M58.4 129.611L62.196 133.548L65.554 131.798" stroke="#FEF6E3" stroke-width="0.5" stroke-miterlimit="10" stroke-linecap="round" stroke-linejoin="round"/>
<path d="M66.43 129.903C69.496 128.882 74.606 125.529 75.92 122.322H74.314L68.62 124.8" stroke="#FEF6E3" stroke-width="0.5" stroke-miterlimit="10" stroke-linecap="round" stroke-linejoin="round"/>
<path d="M45.26 100.744L21.754 137.921L12.118 155.854" stroke="#FEF6E3" stroke-width="0.5" stroke-miterlimit="10" stroke-linecap="round" stroke-linejoin="round"/>
<path d="M60.5901 132.527L48.326 157.166" stroke="#FEF6E3" stroke-width="0.5" stroke-miterlimit="10" stroke-linecap="round" stroke-linejoin="round"/>
<path d="M17.374 99.7234C15.184 105.118 3.94205 120.426 2.77405 126.987C5.69405 130.34 10.074 132.09 14.454 131.798L19.8561 117.219C20.5861 116.781 19.71 115.761 20.294 114.594L23.6521 108.034" stroke="#FEF6E3" stroke-width="0.5" stroke-miterlimit="10" stroke-linecap="round" stroke-linejoin="round"/>
<path d="M12.118 107.305L-0.291992 117.219" stroke="#FEF6E3" stroke-width="0.5" stroke-miterlimit="10" stroke-linecap="round" stroke-linejoin="round"/>
<path d="M5.256 130.632L4.38 135.443L4.96401 136.464L7.592 136.901" stroke="#FEF6E3" stroke-width="0.5" stroke-miterlimit="10" stroke-linecap="round" stroke-linejoin="round"/>
<path d="M9.34399 136.464C10.95 139.379 19.126 140.546 20.586 137.921C20.294 137.047 14.892 134.714 13.14 132.527" stroke="#FEF6E3" stroke-width="0.5" stroke-miterlimit="10" stroke-linecap="round" stroke-linejoin="round"/>
<path d="M0 93.8917L4.234 94.0375C8.76 93.3085 11.242 93.4543 16.79 93.4543" stroke="#FEF6E3" stroke-width="0.5" stroke-miterlimit="10" stroke-linecap="round" stroke-linejoin="round"/>
<path d="M57.524 92.4337C61.466 91.9963 78.9861 91.9963 80.8841 92.2879L78.11 98.5571C75.19 103.368 71.832 110.95 69.204 115.178" stroke="#FEF6E3" stroke-width="0.5" stroke-miterlimit="10" stroke-linecap="round" stroke-linejoin="round"/>
<path d="M48.472 74.0635C49.786 80.77 54.604 92.4336 56.356 98.9943L58.254 100.015L57.816 101.181L58.984 102.202L58.692 103.368" stroke="#FEF6E3" stroke-width="0.5" stroke-miterlimit="10" stroke-linecap="round" stroke-linejoin="round"/>
<path d="M47.596 62.1084L46.574 62.5458" stroke="#FEF6E3" stroke-width="0.5" stroke-miterlimit="10" stroke-linecap="round" stroke-linejoin="round"/>
<path d="M108.332 4.95697L110.084 3.49903L113.004 3.64482L116.216 3.06165C118.844 3.20744 121.326 5.10277 122.494 7.87286" stroke="#FEF6E3" stroke-width="0.5" stroke-miterlimit="10" stroke-linecap="round" stroke-linejoin="round"/>
<path d="M107.31 6.41492C107.31 8.89342 103.952 13.2673 105.266 16.1831L105.996 17.4953V19.828" stroke="#FEF6E3" stroke-width="0.5" stroke-miterlimit="10" stroke-linecap="round" stroke-linejoin="round"/>
<path d="M120.304 7.14392L123.516 14.5794L122.494 15.1626H122.056C120.596 21.286 120.304 20.7028 118.114 21.286L116.654 23.9103" stroke="#FEF6E3" stroke-width="0.5" stroke-miterlimit="10" stroke-linecap="round" stroke-linejoin="round"/>
<path d="M116.946 8.60193L119.866 10.0599" stroke="#FEF6E3" stroke-width="0.5" stroke-miterlimit="10" stroke-linecap="round" stroke-linejoin="round"/>
<path d="M116.654 9.33081L116.946 12.2467L115.486 12.5383L115.34 15.3084" stroke="#FEF6E3" stroke-width="0.5" stroke-miterlimit="10" stroke-linecap="round" stroke-linejoin="round"/>
<path d="M111.544 11.6636C110.814 13.2673 112.274 15.3084 112.42 15.3084" stroke="#FEF6E3" stroke-width="0.5" stroke-miterlimit="10" stroke-linecap="round" stroke-linejoin="round"/>
<path d="M112.42 16.329V19.5365" stroke="#FEF6E3" stroke-width="0.5" stroke-miterlimit="10" stroke-linecap="round" stroke-linejoin="round"/>
<path d="M120.45 12.3926H120.741" stroke="#FEF6E3" stroke-width="0.5" stroke-miterlimit="10" stroke-linecap="round" stroke-linejoin="round"/>
<path d="M119.866 16.9121H120.304" stroke="#FEF6E3" stroke-width="0.5" stroke-miterlimit="10" stroke-linecap="round" stroke-linejoin="round"/>
<path d="M109.646 21.286C108.186 21.7234 100.74 28.43 100.302 30.6169L101.47 29.3047C102.784 27.8468 107.602 23.1814 110.084 21.286C111.69 21.1402 114.61 24.2019 116.07 25.3683" stroke="#FEF6E3" stroke-width="0.5" stroke-miterlimit="10" stroke-linecap="round" stroke-linejoin="round"/>
<path d="M117.092 23.4729L118.26 24.9308L116.946 27.5551L118.844 35.8654C119.574 38.0523 123.224 46.071 125.852 48.2579L129.21 70.2729L121.764 69.9813L120.45 70.1271" stroke="#FEF6E3" stroke-width="0.5" stroke-miterlimit="10" stroke-linecap="round" stroke-linejoin="round"/>
<path d="M108.916 23.9102C112.712 27.1176 118.114 37.0317 119.574 42.2802L121.764 51.6111L117.384 77.4167L116.8 77.8541L112.712 77.4167" stroke="#FEF6E3" stroke-width="0.5" stroke-miterlimit="10" stroke-linecap="round" stroke-linejoin="round"/>
<path d="M109.646 37.3232L108.624 51.6111L109.5 71.2933L103.66 72.7513" stroke="#FEF6E3" stroke-width="0.5" stroke-miterlimit="10" stroke-linecap="round" stroke-linejoin="round"/>
<path d="M99.134 32.658C98.112 40.6767 99.426 56.714 99.572 59.1925C100.156 65.0243 102.2 71.5851 102.346 72.7514" stroke="#FEF6E3" stroke-width="0.5" stroke-miterlimit="10" stroke-linecap="round" stroke-linejoin="round"/>
<path d="M99.28 59.1926C98.404 63.5665 95.63 70.5646 95.192 75.23L95.776 75.6674L103.514 77.1253" stroke="#FEF6E3" stroke-width="0.5" stroke-miterlimit="10" stroke-linecap="round" stroke-linejoin="round"/>
<path d="M103.806 73.4803L108.916 72.314" stroke="#FEF6E3" stroke-width="0.5" stroke-miterlimit="10" stroke-linecap="round" stroke-linejoin="round"/>
<path d="M109.354 72.7515C110.376 72.7515 111.106 76.6879 111.544 77.8543L110.814 80.3328H110.084L108.916 83.686" stroke="#FEF6E3" stroke-width="0.5" stroke-miterlimit="10" stroke-linecap="round" stroke-linejoin="round"/>
<path d="M104.974 74.9382C104.536 76.6878 104.536 80.3326 104.974 80.3326L108.916 81.0616" stroke="#FEF6E3" stroke-width="0.5" stroke-miterlimit="10" stroke-linecap="round" stroke-linejoin="round"/>
<path d="M99.864 76.6877C99.864 78.1457 100.156 78.5831 99.426 80.3326L97.966 80.77C97.09 83.6859 96.214 87.3307 94.754 90.2466C94.754 91.9962 83.074 120.426 80.3 126.258C83.074 129.174 85.264 129.174 91.834 128.882L93.294 128.153C96.506 120.863 104.39 105.847 107.456 96.37" stroke="#FEF6E3" stroke-width="0.5" stroke-miterlimit="10" stroke-linecap="round" stroke-linejoin="round"/>
<path d="M105.85 83.9775L112.566 102.202C115.924 108.763 119.282 119.551 124.976 127.716" stroke="#FEF6E3" stroke-width="0.5" stroke-miterlimit="10" stroke-linecap="round" stroke-linejoin="round"/>
<path d="M123.516 129.174L127.75 127.424L129.94 128.153L136.072 123.342L131.254 116.49L128.48 110.22L126.436 108.471" stroke="#FEF6E3" stroke-width="0.5" stroke-miterlimit="10" stroke-linecap="round" stroke-linejoin="round"/>
<path d="M111.252 104.389C109.646 115.323 107.31 120.134 105.996 130.632L100.74 156.875" stroke="#FEF6E3" stroke-width="0.5" stroke-miterlimit="10" stroke-linecap="round" stroke-linejoin="round"/>
<path d="M126.144 130.632C126.436 132.09 127.02 135.006 128.334 134.714L131.4 132.819L134.904 132.527L137.094 131.069L137.24 129.611L137.824 128.445C136.072 126.258 134.904 129.611 131.692 126.695" stroke="#FEF6E3" stroke-width="0.5" stroke-miterlimit="10" stroke-linecap="round" stroke-linejoin="round"/>
<path d="M108.624 26.0972L109.646 29.8878L112.566 30.0336L111.106 31.4916L115.486 39.5103" stroke="#FEF6E3" stroke-width="0.5" stroke-miterlimit="10" stroke-linecap="round" stroke-linejoin="round"/>
<path d="M131.4 64.7328L128.48 61.8169" stroke="#FEF6E3" stroke-width="0.5" stroke-miterlimit="10" stroke-linecap="round" stroke-linejoin="round"/>
<path d="M128.48 68.3777H130.67L130.962 65.0244" stroke="#FEF6E3" stroke-width="0.5" stroke-miterlimit="10" stroke-linecap="round" stroke-linejoin="round"/>
<path d="M119.136 78.8748C120.304 85.4355 124.246 96.8075 126.144 102.056L125.852 107.013" stroke="#FEF6E3" stroke-width="0.5" stroke-miterlimit="10" stroke-linecap="round" stroke-linejoin="round"/>
<path d="M124.976 92.5794L127.75 92.4336L128.626 92.5794L133.59 92.4336L142.204 92.5794L142.496 93.0168L141.036 156.583L139.576 156.146" stroke="#FEF6E3" stroke-width="0.5" stroke-miterlimit="10" stroke-linecap="round" stroke-linejoin="round"/>
<path d="M83.366 124.8L93.586 126.258" stroke="#FEF6E3" stroke-width="0.5" stroke-miterlimit="10" stroke-linecap="round" stroke-linejoin="round"/>
<path d="M79.716 125.966L80.154 126.987" stroke="#FEF6E3" stroke-width="0.5" stroke-miterlimit="10" stroke-linecap="round" stroke-linejoin="round"/>
<path d="M80.154 129.174L80.3 131.798L81.176 132.527L83.95 132.09L85.264 132.819C87.016 135.589 87.6 136.318 90.52 135.006L93.44 135.735L94.9 135.443L95.484 134.277L92.126 133.548L88.476 129.903" stroke="#FEF6E3" stroke-width="0.5" stroke-miterlimit="10" stroke-linecap="round" stroke-linejoin="round"/>
<path d="M118.114 28.5757C119.136 33.6785 121.91 41.4056 125.414 46.8" stroke="#FEF6E3" stroke-width="0.5" stroke-miterlimit="10" stroke-linecap="round" stroke-linejoin="round"/>
<path d="M257.69 2.77011L261.34 1.60376L264.99 1.74955C267.18 2.04114 269.37 3.49909 270.246 5.24862" stroke="#FEF6E3" stroke-width="0.5" stroke-miterlimit="10" stroke-linecap="round" stroke-linejoin="round"/>
<path d="M256.376 4.228L257.836 3.06165" stroke="#FEF6E3" stroke-width="0.5" stroke-miterlimit="10" stroke-linecap="round" stroke-linejoin="round"/>
<path d="M268.786 6.70654C269.516 10.3514 266.45 12.3925 266.304 15.1626L268.786 16.1832C269.516 17.6411 268.056 19.5365 267.472 20.557" stroke="#FEF6E3" stroke-width="0.5" stroke-miterlimit="10" stroke-linecap="round" stroke-linejoin="round"/>
<path d="M256.376 5.68604C253.456 8.01875 248.2 16.9122 248.492 23.9103C249.514 25.6599 251.85 20.4113 254.04 19.0991" stroke="#FEF6E3" stroke-width="0.5" stroke-miterlimit="10" stroke-linecap="round" stroke-linejoin="round"/>
<path d="M248.2 21.286L244.55 27.1178L245.426 29.3047L242.944 40.8225L243.966 42.4262V45.7795L248.054 28.2841" stroke="#FEF6E3" stroke-width="0.5" stroke-miterlimit="10" stroke-linecap="round" stroke-linejoin="round"/>
<path d="M256.084 18.9532L264.26 19.099L265.574 20.557C265.866 26.0972 263.384 41.6972 262.216 46.071" stroke="#FEF6E3" stroke-width="0.5" stroke-miterlimit="10" stroke-linecap="round" stroke-linejoin="round"/>
<path d="M243.236 48.1121L237.98 55.985C235.206 59.1924 232.286 63.5663 229.22 65.4616L229.512 65.7532C232.724 67.0653 239.294 70.127 242.214 67.9401" stroke="#FEF6E3" stroke-width="0.5" stroke-miterlimit="10" stroke-linecap="round" stroke-linejoin="round"/>
<path d="M267.034 23.4729C268.056 24.2019 269.224 33.6785 268.494 37.3234L267.764 40.2393L267.034 59.1925" stroke="#FEF6E3" stroke-width="0.5" stroke-miterlimit="10" stroke-linecap="round" stroke-linejoin="round"/>
<path d="M260.756 48.2581L266.596 65.7534" stroke="#FEF6E3" stroke-width="0.5" stroke-miterlimit="10" stroke-linecap="round" stroke-linejoin="round"/>
<path d="M267.326 11.5177H268.786L270.246 8.16443C271.852 8.16443 270.976 10.9345 270.246 10.9345L270.684 12.9756L269.516 13.2672" stroke="#FEF6E3" stroke-width="0.5" stroke-miterlimit="10" stroke-linecap="round" stroke-linejoin="round"/>
<path d="M243.674 66.4824C246.74 69.9814 254.624 72.3141 258.712 72.1683L262.654 65.0244H266.596" stroke="#FEF6E3" stroke-width="0.5" stroke-miterlimit="10" stroke-linecap="round" stroke-linejoin="round"/>
<path d="M254.624 30.0337L252.434 45.0505L254.186 46.0711L253.164 47.9664L260.464 64.0038L267.326 61.3795" stroke="#FEF6E3" stroke-width="0.5" stroke-miterlimit="10" stroke-linecap="round" stroke-linejoin="round"/>
<path d="M263.676 64.2954L265.136 68.6692C267.034 76.6879 272.144 88.0599 275.794 96.3702" stroke="#FEF6E3" stroke-width="0.5" stroke-miterlimit="10" stroke-linecap="round" stroke-linejoin="round"/>
<path d="M265.136 67.6487L265.866 71.5851" stroke="#FEF6E3" stroke-width="0.5" stroke-miterlimit="10" stroke-linecap="round" stroke-linejoin="round"/>
<path d="M261.34 63.5664L262.946 64.2954L265.574 65.0244" stroke="#FEF6E3" stroke-width="0.5" stroke-miterlimit="10" stroke-linecap="round" stroke-linejoin="round"/>
<path d="M251.412 70.856L249.514 72.0223L246.594 86.1644L246.156 89.8092" stroke="#FEF6E3" stroke-width="0.5" stroke-miterlimit="10" stroke-linecap="round" stroke-linejoin="round"/>
<path d="M264.406 75.23L254.186 96.8076L244.55 112.408L236.374 123.78L223.38 118.239L221.92 120.426C222.796 124.071 227.906 127.716 229.512 129.903H234.33" stroke="#FEF6E3" stroke-width="0.5" stroke-miterlimit="10" stroke-linecap="round" stroke-linejoin="round"/>
<path d="M246.156 91.8506L222.796 118.677" stroke="#FEF6E3" stroke-width="0.5" stroke-miterlimit="10" stroke-linecap="round" stroke-linejoin="round"/>
<path d="M247.616 110.658C250.244 122.613 256.23 143.024 260.026 156.583" stroke="#FEF6E3" stroke-width="0.5" stroke-miterlimit="10" stroke-linecap="round" stroke-linejoin="round"/>
<path d="M267.764 98.2654L270.684 124.8L283.97 121.884" stroke="#FEF6E3" stroke-width="0.5" stroke-miterlimit="10" stroke-linecap="round" stroke-linejoin="round"/>
<path d="M276.086 95.6411C278.276 99.7234 281.196 115.761 281.634 120.864" stroke="#FEF6E3" stroke-width="0.5" stroke-miterlimit="10" stroke-linecap="round" stroke-linejoin="round"/>
<path d="M286.014 129.174L290.394 139.379L292.876 144.92" stroke="#FEF6E3" stroke-width="0.5" stroke-miterlimit="10" stroke-linecap="round" stroke-linejoin="round"/>
<path d="M281.926 122.322L288.496 123.779L289.226 125.966C287.912 127.424 282.51 127.424 280.466 127.424L280.174 126.987" stroke="#FEF6E3" stroke-width="0.5" stroke-miterlimit="10" stroke-linecap="round" stroke-linejoin="round"/>
<path d="M272.436 124.508L272.144 127.716H277.4" stroke="#FEF6E3" stroke-width="0.5" stroke-miterlimit="10" stroke-linecap="round" stroke-linejoin="round"/>
<path d="M232.14 122.322L231.41 122.613V123.342L231.994 126.258L233.892 126.695L234.476 126.987L234.914 127.716L234.476 129.903" stroke="#FEF6E3" stroke-width="0.5" stroke-miterlimit="10" stroke-linecap="round" stroke-linejoin="round"/>
<path d="M262.946 86.6018L266.596 94.0373" stroke="#FEF6E3" stroke-width="0.5" stroke-miterlimit="10" stroke-linecap="round" stroke-linejoin="round"/>
<path d="M257.106 92.4336L264.26 92.5794" stroke="#FEF6E3" stroke-width="0.5" stroke-miterlimit="10" stroke-linecap="round" stroke-linejoin="round"/>
<path d="M216.226 91.8506L222.65 156.583L222.504 157.166" stroke="#FEF6E3" stroke-width="0.5" stroke-miterlimit="10" stroke-linecap="round" stroke-linejoin="round"/>
<path d="M203.086 91.9963H214.036L217.686 120.864" stroke="#FEF6E3" stroke-width="0.5" stroke-miterlimit="10" stroke-linecap="round" stroke-linejoin="round"/>
<path d="M179.872 92.4337L186.88 91.9963" stroke="#FEF6E3" stroke-width="0.5" stroke-miterlimit="10" stroke-linecap="round" stroke-linejoin="round"/>
<path d="M179.726 92.4336L182.646 156.875" stroke="#FEF6E3" stroke-width="0.5" stroke-miterlimit="10" stroke-linecap="round" stroke-linejoin="round"/>
<path d="M179.726 92.4337L184.106 91.9963" stroke="#FEF6E3" stroke-width="0.5" stroke-miterlimit="10" stroke-linecap="round" stroke-linejoin="round"/>
<path d="M181.916 26.0972L180.894 28.5757C179.434 30.7626 175.054 32.9495 173.74 35.1364" stroke="#FEF6E3" stroke-width="0.5" stroke-miterlimit="10" stroke-linecap="round" stroke-linejoin="round"/>
<path d="M181.04 28.2842L188.34 35.1365C192.574 39.9477 191.844 40.2393 192.574 45.3421V59.63" stroke="#FEF6E3" stroke-width="0.5" stroke-miterlimit="10" stroke-linecap="round" stroke-linejoin="round"/>
<path d="M173.594 37.0317L172.572 54.5271C171.404 59.9215 167.316 69.1065 162.936 74.5009" stroke="#FEF6E3" stroke-width="0.5" stroke-miterlimit="10" stroke-linecap="round" stroke-linejoin="round"/>
<path d="M175.346 40.9683C176.514 47.529 181.186 58.172 182.646 61.8169L186.296 66.4823L195.64 75.6673L200.604 70.8561L191.406 60.3589" stroke="#FEF6E3" stroke-width="0.5" stroke-miterlimit="10" stroke-linecap="round" stroke-linejoin="round"/>
<path d="M184.836 42.8635C185.274 46.5084 188.194 55.5476 189.654 58.4635" stroke="#FEF6E3" stroke-width="0.5" stroke-miterlimit="10" stroke-linecap="round" stroke-linejoin="round"/>
<path d="M188.486 31.2C189.946 32.6579 191.406 36.5943 191.406 39.2186" stroke="#FEF6E3" stroke-width="0.5" stroke-miterlimit="10" stroke-linecap="round" stroke-linejoin="round"/>
<path d="M182.646 25.6599L189.654 30.7627L187.756 33.387" stroke="#FEF6E3" stroke-width="0.5" stroke-miterlimit="10" stroke-linecap="round" stroke-linejoin="round"/>
<path d="M178.996 22.7439L177.536 25.6598L178.996 27.1177" stroke="#FEF6E3" stroke-width="0.5" stroke-miterlimit="10" stroke-linecap="round" stroke-linejoin="round"/>
<path d="M178.996 21.286C178.704 17.3496 178.85 15.8916 181.916 12.9757C183.814 10.9346 186.734 10.3514 189.216 11.8094L190.676 11.0804C192.866 11.5178 193.596 13.9963 194.034 15.4542" stroke="#FEF6E3" stroke-width="0.5" stroke-miterlimit="10" stroke-linecap="round" stroke-linejoin="round"/>
<path d="M184.106 19.0991L187.172 17.3496L187.026 15.4542C189.654 13.7047 192.574 13.7047 192.866 16.6206L194.326 20.557L194.034 21.1402L192.866 20.9944V24.2019L192.136 26.3888L189.946 28.2841" stroke="#FEF6E3" stroke-width="0.5" stroke-miterlimit="10" stroke-linecap="round" stroke-linejoin="round"/>
<path d="M182.646 21.7234L185.566 18.8075L186.296 23.4729" stroke="#FEF6E3" stroke-width="0.5" stroke-miterlimit="10" stroke-linecap="round" stroke-linejoin="round"/>
<path d="M184.836 20.2654L185.566 21.7233" stroke="#FEF6E3" stroke-width="0.5" stroke-miterlimit="10" stroke-linecap="round" stroke-linejoin="round"/>
<path d="M184.836 24.2018L185.566 22.0149" stroke="#FEF6E3" stroke-width="0.5" stroke-miterlimit="10" stroke-linecap="round" stroke-linejoin="round"/>
<path d="M187.026 23.4729L187.464 25.6598" stroke="#FEF6E3" stroke-width="0.5" stroke-miterlimit="10" stroke-linecap="round" stroke-linejoin="round"/>
<path d="M188.194 23.9102L188.486 26.3887" stroke="#FEF6E3" stroke-width="0.5" stroke-miterlimit="10" stroke-linecap="round" stroke-linejoin="round"/>
<path d="M189.946 25.6599V27.1179" stroke="#FEF6E3" stroke-width="0.5" stroke-miterlimit="10" stroke-linecap="round" stroke-linejoin="round"/>
<path d="M191.406 25.6599L191.114 26.8263" stroke="#FEF6E3" stroke-width="0.5" stroke-miterlimit="10" stroke-linecap="round" stroke-linejoin="round"/>
<path d="M191.406 18.0785L192.866 17.6411" stroke="#FEF6E3" stroke-width="0.5" stroke-miterlimit="10" stroke-linecap="round" stroke-linejoin="round"/>
<path d="M191.406 19.5365H192.136" stroke="#FEF6E3" stroke-width="0.5" stroke-miterlimit="10" stroke-linecap="round" stroke-linejoin="round"/>
<path d="M192.574 22.4524H193.596" stroke="#FEF6E3" stroke-width="0.5" stroke-miterlimit="10" stroke-linecap="round" stroke-linejoin="round"/>
<path d="M162.936 75.959L165.564 76.688V78.5833L167.754 79.3123" stroke="#FEF6E3" stroke-width="0.5" stroke-miterlimit="10" stroke-linecap="round" stroke-linejoin="round"/>
<path d="M169.506 80.3328L171.404 81.0617C175.93 81.7907 186.004 81.4991 191.844 80.3328L192.136 74.501" stroke="#FEF6E3" stroke-width="0.5" stroke-miterlimit="10" stroke-linecap="round" stroke-linejoin="round"/>
<path d="M171.404 81.499L166.294 91.7046" stroke="#FEF6E3" stroke-width="0.5" stroke-miterlimit="10" stroke-linecap="round" stroke-linejoin="round"/>
<path d="M164.834 94.0373C160.746 98.2654 151.84 108.763 145.416 119.697C146.876 121.009 153.154 123.342 155.636 124.8H156.366C161.33 116.49 171.696 102.202 175.054 95.3495L182.354 81.499" stroke="#FEF6E3" stroke-width="0.5" stroke-miterlimit="10" stroke-linecap="round" stroke-linejoin="round"/>
<path d="M144.394 118.968L146.584 120.135L144.394 123.779V124.508C145.124 125.237 146.73 125.966 147.606 126.258" stroke="#FEF6E3" stroke-width="0.5" stroke-miterlimit="10" stroke-linecap="round" stroke-linejoin="round"/>
<path d="M149.066 126.987L151.694 129.174C153.446 129.903 155.344 130.34 157.096 129.903L157.534 129.611L157.68 129.757V128.882C156.074 126.695 153.446 126.258 151.986 124.8" stroke="#FEF6E3" stroke-width="0.5" stroke-miterlimit="10" stroke-linecap="round" stroke-linejoin="round"/>
<path d="M184.836 81.499L202.064 123.05L213.014 116.49L204.546 99.2859L202.064 98.2654" stroke="#FEF6E3" stroke-width="0.5" stroke-miterlimit="10" stroke-linecap="round" stroke-linejoin="round"/>
<path d="M193.304 77.1252C196.224 80.3327 201.334 92.4337 202.064 95.3495V97.0991" stroke="#FEF6E3" stroke-width="0.5" stroke-miterlimit="10" stroke-linecap="round" stroke-linejoin="round"/>
<path d="M208.634 120.863L211.116 120.134C213.014 120.426 214.474 119.406 215.934 119.406H216.956V121.009C214.766 121.884 212.576 123.342 208.634 124.071" stroke="#FEF6E3" stroke-width="0.5" stroke-miterlimit="10" stroke-linecap="round" stroke-linejoin="round"/>
<path d="M208.196 125.966L205.714 126.987L203.816 125.966L202.064 122.613" stroke="#FEF6E3" stroke-width="0.5" stroke-miterlimit="10" stroke-linecap="round" stroke-linejoin="round"/>
<path d="M198.706 71.4392L202.064 71.2935L202.356 72.0224C203.816 73.4804 206.736 74.5009 203.524 77.1252L202.94 76.6878C202.94 77.8542 202.064 78.1458 201.334 77.8542L199.436 78.8748L199.144 78.1458L200.166 77.8542L197.684 77.1252L196.224 74.2093" stroke="#FEF6E3" stroke-width="0.5" stroke-miterlimit="10" stroke-linecap="round" stroke-linejoin="round"/>
<path d="M261.486 85.4355L262.946 86.8935L266.596 94.0374" stroke="#FEF6E3" stroke-width="0.5" stroke-miterlimit="10" stroke-linecap="round" stroke-linejoin="round"/>
<path d="M257.106 92.4336L264.26 92.5794" stroke="#FEF6E3" stroke-width="0.5" stroke-miterlimit="10" stroke-linecap="round" stroke-linejoin="round"/>
<path d="M45.2898 10.1222C45.2898 10.1233 45.2898 10.1245 45.2939 10.1399C45.2979 10.1553 45.3061 10.1849 45.3693 10.2074" stroke="#FEF6E3" stroke-width="0.5" stroke-linecap="round"/>
<path d="M42.8364 10.359C42.8364 10.3603 42.8364 10.3616 42.8461 10.3753C42.8558 10.389 42.8752 10.415 42.9379 10.4561" stroke="#FEF6E3" stroke-width="0.5" stroke-linecap="round"/>
<path d="M42.7808 5.11682C42.8081 5.12081 42.918 5.14773 43.0373 5.19825C43.1865 5.26142 43.3083 5.30223 43.4806 5.39152C43.6722 5.49079 43.78 5.55211 43.8692 5.62344C43.9157 5.66032 43.963 5.69907 44.0046 5.74004C44.0237 5.76148 44.0387 5.78426 44.0688 5.85608" stroke="#FEF6E3" stroke-width="0.5" stroke-linecap="round"/>
<path d="M44.0797 5.8667C44.0832 5.89328 44.1215 6.04316 44.1972 6.3762C44.2635 6.66815 44.2687 6.89059 44.2748 6.97869C44.2779 7.02421 44.2851 7.07106 44.3147 7.61487C44.3444 8.15867 44.3975 9.19793 44.4259 9.75354C44.4543 10.3092 44.4565 10.3496 44.4586 10.4473C44.4608 10.545 44.4628 10.6988 44.4648 10.8572" stroke="#FEF6E3" stroke-width="0.5" stroke-linecap="round"/>
<path d="M44.4648 10.8286C44.4648 10.8301 44.4648 10.8316 44.4648 10.9916C44.4648 11.1515 44.4648 11.47 44.4659 11.6521C44.467 11.8342 44.4692 11.8703 44.4715 11.9076" stroke="#FEF6E3" stroke-width="0.5" stroke-linecap="round"/>
<path d="M44.4715 11.9076C44.4792 11.9484 44.5197 12.0772 44.6133 12.2092C44.6804 12.3037 44.8003 12.3444 45.0543 12.458C45.1504 12.501 45.2004 12.5431 45.2314 12.5802C45.2947 12.656 45.2804 12.8456 45.2441 12.9868C45.2106 13.1174 45.0759 13.2203 44.9717 13.2826C44.8368 13.3292 44.7087 13.3668 44.6198 13.3756C44.5668 13.3794 44.498 13.3817 44.4271 13.3841" stroke="#FEF6E3" stroke-width="0.5" stroke-linecap="round"/>
<path d="M41.7142 10.1222C41.7159 10.1222 41.7638 10.1221 42.3355 10.0337C42.8615 9.95235 43.8611 9.76878 44.3906 9.67457C45.0095 9.56096 45.0976 9.54399 45.1472 9.53724C45.1753 9.5349 45.2092 9.53474 45.2897 9.52673" stroke="#FEF6E3" stroke-width="0.5" stroke-linecap="round"/>
<path d="M44.8499 14.6035C44.8792 14.6224 44.9804 14.6993 45.0964 14.7728C45.2116 14.8204 45.2914 14.8422 45.3515 14.8599C45.3848 14.8703 45.4238 14.8834 45.4815 14.9043" stroke="#FEF6E3" stroke-width="0.5" stroke-linecap="round"/>
</g>
<defs>
<clipPath id="clip0_128_973">
<rect width="292" height="156" fill="white"/>
</clipPath>
</defs>
</svg>
