<svg width="150" height="150" viewBox="0 0 150 150" fill="none" xmlns="http://www.w3.org/2000/svg">
<path d="M9.59998 144.5L31.4 140L48.3 137.2L50.2 136.8L51 137.5L51.9 136.6L56.3 135.9L65 134L72.1 133.7" stroke="#FEF6E3" stroke-width="0.5" stroke-miterlimit="10" stroke-linecap="round" stroke-linejoin="round"/>
<path d="M27.6 144.5L47.1 140.9L56 139L74.2 136.4L83.6 136" stroke="#FEF6E3" stroke-width="0.5" stroke-miterlimit="10" stroke-linecap="round" stroke-linejoin="round"/>
<path d="M81.8 143.8L98 141L109.7 139.1" stroke="#FEF6E3" stroke-width="0.5" stroke-miterlimit="10" stroke-linecap="round" stroke-linejoin="round"/>
<path d="M97.4 142.6L110.7 140.3L121.9 138.6L124.5 138.1" stroke="#FEF6E3" stroke-width="0.5" stroke-miterlimit="10" stroke-linecap="round" stroke-linejoin="round"/>
<path d="M119.4 143.6L134.7 141" stroke="#FEF6E3" stroke-width="0.5" stroke-miterlimit="10" stroke-linecap="round" stroke-linejoin="round"/>
<path d="M129.5 143.4L133.2 143L142 142" stroke="#FEF6E3" stroke-width="0.5" stroke-miterlimit="10" stroke-linecap="round" stroke-linejoin="round"/>
<path d="M12.1 143.8L24.4 141L35 139L49.9 136.4" stroke="#FEF6E3" stroke-width="0.25" stroke-miterlimit="10" stroke-linecap="round" stroke-linejoin="round"/>
<path d="M133.6 143.8L136 144" stroke="#FEF6E3" stroke-width="0.5" stroke-miterlimit="10" stroke-linecap="round" stroke-linejoin="round"/>
<path d="M133.6 143.1L136.7 143.6" stroke="#FEF6E3" stroke-width="0.5" stroke-miterlimit="10" stroke-linecap="round" stroke-linejoin="round"/>
<path d="M136 142L138.6 142.5" stroke="#FEF6E3" stroke-width="0.5" stroke-miterlimit="10" stroke-linecap="round" stroke-linejoin="round"/>
<path d="M30.9 144.3H29.5" stroke="#FEF6E3" stroke-width="0.25" stroke-miterlimit="10" stroke-linecap="round" stroke-linejoin="round"/>
<path d="M34.2 143.6L31.9 143.4" stroke="#FEF6E3" stroke-width="0.25" stroke-miterlimit="10" stroke-linecap="round" stroke-linejoin="round"/>
<path d="M37.2 143L33.8 142.7" stroke="#FEF6E3" stroke-width="0.25" stroke-miterlimit="10" stroke-linecap="round" stroke-linejoin="round"/>
<path d="M39.5 142.6L36.8 142" stroke="#FEF6E3" stroke-width="0.25" stroke-miterlimit="10" stroke-linecap="round" stroke-linejoin="round"/>
<path d="M42.8 142L40.4 141.4" stroke="#FEF6E3" stroke-width="0.25" stroke-miterlimit="10" stroke-linecap="round" stroke-linejoin="round"/>
<path d="M45.4 141.4L41.8 140.9" stroke="#FEF6E3" stroke-width="0.25" stroke-miterlimit="10" stroke-linecap="round" stroke-linejoin="round"/>
<path d="M47.2 141L44.6 140.1" stroke="#FEF6E3" stroke-width="0.25" stroke-miterlimit="10" stroke-linecap="round" stroke-linejoin="round"/>
<path d="M50.1 140.4L47.2 139.7" stroke="#FEF6E3" stroke-width="0.25" stroke-miterlimit="10" stroke-linecap="round" stroke-linejoin="round"/>
<path d="M54 139.7L50.1 139.2" stroke="#FEF6E3" stroke-width="0.25" stroke-miterlimit="10" stroke-linecap="round" stroke-linejoin="round"/>
<path d="M55.8 138.9L51.5 138.6" stroke="#FEF6E3" stroke-width="0.25" stroke-miterlimit="10" stroke-linecap="round" stroke-linejoin="round"/>
<path d="M57.9 138.9L55 138.4" stroke="#FEF6E3" stroke-width="0.25" stroke-miterlimit="10" stroke-linecap="round" stroke-linejoin="round"/>
<path d="M60.6 138.6L57.9 137.7" stroke="#FEF6E3" stroke-width="0.25" stroke-miterlimit="10" stroke-linecap="round" stroke-linejoin="round"/>
<path d="M66 138L60.6 137.4" stroke="#FEF6E3" stroke-width="0.25" stroke-miterlimit="10" stroke-linecap="round" stroke-linejoin="round"/>
<path d="M69.5 137.4L66.4 136.8" stroke="#FEF6E3" stroke-width="0.25" stroke-miterlimit="10" stroke-linecap="round" stroke-linejoin="round"/>
<path d="M72.8 137.4L69.5 136.8" stroke="#FEF6E3" stroke-width="0.25" stroke-miterlimit="10" stroke-linecap="round" stroke-linejoin="round"/>
<path d="M74.9 137.4L72.8 136.8" stroke="#FEF6E3" stroke-width="0.25" stroke-miterlimit="10" stroke-linecap="round" stroke-linejoin="round"/>
<path d="M76.7 137.4L74.3 136.8" stroke="#FEF6E3" stroke-width="0.25" stroke-miterlimit="10" stroke-linecap="round" stroke-linejoin="round"/>
<path d="M78.2 136.8L76.7 136.2" stroke="#FEF6E3" stroke-width="0.25" stroke-miterlimit="10" stroke-linecap="round" stroke-linejoin="round"/>
<path d="M80.6 136.2H77.6" stroke="#FEF6E3" stroke-width="0.25" stroke-miterlimit="10" stroke-linecap="round" stroke-linejoin="round"/>
<path d="M86.5 137.2L81.2 137.7" stroke="#FEF6E3" stroke-width="0.25" stroke-miterlimit="10" stroke-linecap="round" stroke-linejoin="round"/>
<path d="M92.6 136.5L89.4 136.8L88.2 137.2H86.5" stroke="#FEF6E3" stroke-width="0.25" stroke-miterlimit="10" stroke-linecap="round" stroke-linejoin="round"/>
<path d="M98.4 136.5L96.7 136.8L92.6 136.5" stroke="#FEF6E3" stroke-width="0.25" stroke-miterlimit="10" stroke-linecap="round" stroke-linejoin="round"/>
<path d="M102.1 136.5H100.1" stroke="#FEF6E3" stroke-width="0.25" stroke-miterlimit="10" stroke-linecap="round" stroke-linejoin="round"/>
<path d="M106.9 142.6H109.6H112.1L113.4 142H114.9L115.2 142.6H117.2" stroke="#FEF6E3" stroke-width="0.5" stroke-miterlimit="10" stroke-linecap="round" stroke-linejoin="round"/>
<path d="M114.3 138.4L117.2 138.6" stroke="#FEF6E3" stroke-width="0.25" stroke-miterlimit="10" stroke-linecap="round" stroke-linejoin="round"/>
<path d="M110.1 138.9H112.1" stroke="#FEF6E3" stroke-width="0.25" stroke-miterlimit="10" stroke-linecap="round" stroke-linejoin="round"/>
<path d="M115.8 142L125.5 140.4H126.4V140.1" stroke="#FEF6E3" stroke-width="0.5" stroke-miterlimit="10" stroke-linecap="round" stroke-linejoin="round"/>
<path d="M121.9 139.5L126.4 140.1" stroke="#FEF6E3" stroke-width="0.25" stroke-miterlimit="10" stroke-linecap="round" stroke-linejoin="round"/>
<path d="M116.4 141.4L123.4 140.4" stroke="#FEF6E3" stroke-width="0.25" stroke-miterlimit="10" stroke-linecap="round" stroke-linejoin="round"/>
<path d="M57.1 141.8L58.8 141.6" stroke="#FEF6E3" stroke-width="0.5" stroke-miterlimit="10" stroke-linecap="round" stroke-linejoin="round"/>
<path d="M59.8 141.4L62.1 140.9L62.5 140.4H64.6" stroke="#FEF6E3" stroke-width="0.25" stroke-miterlimit="10" stroke-linecap="round" stroke-linejoin="round"/>
<path d="M64.6 140.4L65.5 139.5L67.3 140.1L68.2 139.5L67.9 139.2H69.1L70.1 139.7L71 139.5" stroke="#FEF6E3" stroke-width="0.25" stroke-miterlimit="10" stroke-linecap="round" stroke-linejoin="round"/>
<path d="M72.1 142.6L75.2 142H76.1L77.6 141.6L79.4 141.4L80.9 141L82.1 140.9H83.4L84.3 140.6L86.7 140.4L88.2 140.1L90.4 139.7H91.2L92.1 139.2H93.7L95.2 138.9L96.4 138.6L98.4 138.4L99.1 138L103.7 137.4L104.3 136.8" stroke="#FEF6E3" stroke-width="0.5" stroke-miterlimit="10" stroke-linecap="round" stroke-linejoin="round"/>
<path d="M72.1 138.9L76.7 138.6L79.7 138.4" stroke="#FEF6E3" stroke-width="0.25" stroke-miterlimit="10" stroke-linecap="round" stroke-linejoin="round"/>
<path d="M72.1 138L74.3 137.7" stroke="#FEF6E3" stroke-width="0.25" stroke-miterlimit="10" stroke-linecap="round" stroke-linejoin="round"/>
<path d="M54.3 132.4L55.2 133H56.1" stroke="#FEF6E3" stroke-width="0.5" stroke-miterlimit="10" stroke-linecap="round" stroke-linejoin="round"/>
<path d="M104.9 125.8L107.3 130.1M107.3 130.1V130.4L107.6 130.9L107.3 130.1ZM107.3 130.1L105.2 125.8L105.5 124.7H106.1L107.3 126.4L108.4 128.9L109.1 130.1L109.6 131.4" stroke="#FEF6E3" stroke-width="0.5" stroke-miterlimit="10" stroke-linecap="round" stroke-linejoin="round"/>
<path d="M109.1 130.9L110.4 130.4V130.9V131.4" stroke="#FEF6E3" stroke-width="0.5" stroke-miterlimit="10" stroke-linecap="round" stroke-linejoin="round"/>
<path d="M112.4 136.5V133L113 132.4L114.3 134.7L115.2 134L114.9 131.4L116.7 123.7L118.4 116.4L121.9 108.4L125.5 100.6L127.9 95L128.2 87L127.9 72L128.2 56.8L127 45.3" stroke="#FEF6E3" stroke-width="0.5" stroke-miterlimit="10" stroke-linecap="round" stroke-linejoin="round"/>
<path d="M130.4 97.7L137.9 111.4L145.2 130.4H146.7V128.9" stroke="#FEF6E3" stroke-width="0.5" stroke-miterlimit="10" stroke-linecap="round" stroke-linejoin="round"/>
<path d="M128.2 95L128.8 106.8L128.4 121.4L129.9 121.8" stroke="#FEF6E3" stroke-width="0.5" stroke-miterlimit="10" stroke-linecap="round" stroke-linejoin="round"/>
<path d="M127.3 44.1001L128.2 29.1001" stroke="#FEF6E3" stroke-width="0.5" stroke-miterlimit="10" stroke-linecap="round" stroke-linejoin="round"/>
<path d="M109.1 19.7L100 23.5L99.6 22.7L100.4 20.7L104.6 17.9L114.3 14.1L128.8 8.30005L130.4 8.00005V7.70005L128.8 6.80005L125.5 7.40005L119.6 9.50005L118.2 11.7L129.7 8.30005" stroke="#FEF6E3" stroke-width="0.5" stroke-miterlimit="10" stroke-linecap="round" stroke-linejoin="round"/>
<path d="M130.4 8.29995L142.1 6.19995" stroke="#FEF6E3" stroke-width="0.25" stroke-miterlimit="10" stroke-linecap="round" stroke-linejoin="round"/>
<path d="M144.6 5H144.9" stroke="#FEF6E3" stroke-width="0.25" stroke-miterlimit="10" stroke-linecap="round" stroke-linejoin="round"/>
<path d="M47.6 137.4L42.6 122.4L35.2 105L30.9 97.7L30 80L33.4 32" stroke="#FEF6E3" stroke-width="0.5" stroke-miterlimit="10" stroke-linecap="round" stroke-linejoin="round"/>
<path d="M28.8 96.5L21.4 114L14.6 138.4L13.4 137.7L19.6 115.4L28.4 97.7" stroke="#FEF6E3" stroke-width="0.5" stroke-miterlimit="10" stroke-linecap="round" stroke-linejoin="round"/>
<path d="M30 95.8L30.4 123.7L32.1 125.6L33.1 124.7" stroke="#FEF6E3" stroke-width="0.5" stroke-miterlimit="10" stroke-linecap="round" stroke-linejoin="round"/>
<path d="M3.09998 33.4999L3.39998 32.8999" stroke="#FEF6E3" stroke-width="0.25" stroke-miterlimit="10" stroke-linecap="round" stroke-linejoin="round"/>
<path d="M3.79999 33.5H4.29999" stroke="#FEF6E3" stroke-width="0.25" stroke-miterlimit="10" stroke-linecap="round" stroke-linejoin="round"/>
<path d="M6.09998 34.1001H10.4L22.6 36.4001" stroke="#FEF6E3" stroke-width="0.25" stroke-miterlimit="10" stroke-linecap="round" stroke-linejoin="round"/>
<path d="M6.70001 32.8999L36.7 39.9999" stroke="#FEF6E3" stroke-width="0.5" stroke-miterlimit="10" stroke-linecap="round" stroke-linejoin="round"/>
<path d="M23.4 37.3999L25.9 36.3999L28.8 36.7999L47.6 44.6999L57.9 53.4999" stroke="#FEF6E3" stroke-width="0.5" stroke-miterlimit="10" stroke-linecap="round" stroke-linejoin="round"/>
<path d="M49.1 44.1001L44.6 65.8001" stroke="#FEF6E3" stroke-width="0.5" stroke-miterlimit="10" stroke-linecap="round" stroke-linejoin="round"/>
<path d="M49.1 42.0001L52.1 40.9001L56.4 39.1001L61.4 39.7001L73.8 42.0001L74 42.6001" stroke="#FEF6E3" stroke-width="0.5" stroke-miterlimit="10" stroke-linecap="round" stroke-linejoin="round"/>
<path d="M82.1 46.3999L79.6 59.9999" stroke="#FEF6E3" stroke-width="0.5" stroke-miterlimit="10" stroke-linecap="round" stroke-linejoin="round"/>
<path d="M83.7 49.1L86.7 45.3L91.4 42.9L97.1 41.2L106.7 40L115.5 40.9L117.3 44.1L120.4 55.8V59.1" stroke="#FEF6E3" stroke-width="0.5" stroke-miterlimit="10" stroke-linecap="round" stroke-linejoin="round"/>
<path d="M125.5 13.5H126.7" stroke="#FEF6E3" stroke-width="0.25" stroke-miterlimit="10" stroke-linecap="round" stroke-linejoin="round"/>
<path d="M125.5 15.6001V15.9001" stroke="#FEF6E3" stroke-width="0.25" stroke-miterlimit="10" stroke-linecap="round" stroke-linejoin="round"/>
<path d="M126.7 15.3L127.3 15.6" stroke="#FEF6E3" stroke-width="0.25" stroke-miterlimit="10" stroke-linecap="round" stroke-linejoin="round"/>
<path d="M127.3 16.8L127.9 24.7001" stroke="#FEF6E3" stroke-width="0.25" stroke-miterlimit="10" stroke-linecap="round" stroke-linejoin="round"/>
<path d="M126.4 37.4001V35.6001" stroke="#FEF6E3" stroke-width="0.25" stroke-miterlimit="10" stroke-linecap="round" stroke-linejoin="round"/>
<path d="M127 44.1001L126.7 44.7001" stroke="#FEF6E3" stroke-width="0.25" stroke-miterlimit="10" stroke-linecap="round" stroke-linejoin="round"/>
<path d="M45.2 61.3999L48.4 61.1999L51.4 60.8999L61.4 62.3999" stroke="#FEF6E3" stroke-width="0.5" stroke-miterlimit="10" stroke-linecap="round" stroke-linejoin="round"/>
<path d="M48.4 67.4L52.6 66.8" stroke="#FEF6E3" stroke-width="0.25" stroke-miterlimit="10" stroke-linecap="round" stroke-linejoin="round"/>
<path d="M52.1 70.8999H52.6" stroke="#FEF6E3" stroke-width="0.25" stroke-miterlimit="10" stroke-linecap="round" stroke-linejoin="round"/>
<path d="M52.6 65V65.3" stroke="#FEF6E3" stroke-width="0.25" stroke-miterlimit="10" stroke-linecap="round" stroke-linejoin="round"/>
<path d="M49.1 48.5L58.1 54.1L57.9 52L56.7 50.6L50.9 46.8" stroke="#FEF6E3" stroke-width="0.5" stroke-miterlimit="10" stroke-linecap="round" stroke-linejoin="round"/>
<path d="M57.6 124.1L58.1 125.6L54.6 132L57.6 128.9" stroke="#FEF6E3" stroke-width="0.5" stroke-miterlimit="10" stroke-linecap="round" stroke-linejoin="round"/>
<path d="M49.1 136.2L48.1 132.4L40.9 115.4" stroke="#FEF6E3" stroke-width="0.5" stroke-miterlimit="10" stroke-linecap="round" stroke-linejoin="round"/>
<path d="M68.4 131.8C59.6 128.9 53.1 120.1 48.8 111.4L47.6 107.4L47.1 95.8001L49.1 88.5001L55.2 80.0001L62.9 70.9001L69.1 67.4001L74.6 65.6001L80.4 64.1001H87.6L94.9 65.9001L100.9 69.1001L104.9 72.4001L107.3 75.0001L110.9 80.1001L113.4 83.1001" stroke="#FEF6E3" stroke-width="0.5" stroke-miterlimit="10" stroke-linecap="round" stroke-linejoin="round"/>
<path d="M69.1 132.4C60.9 129.5 58.1 125.6 53.1 118.4L50.1 112.4L48.8 107.4L48.4 100.6L49.1 93.4999L51.4 87.3999L55.2 80.8999L60.1 74.9999L65.5 70.8999L69.1 69.0999L74 67.3999L77.9 66.3999L81.4 65.8999H86.4L91.4 66.7999L95.9 67.8999L99.6 69.9999L103.7 72.8999L106.7 75.8999L110.1 80.8999L114.3 87.8999" stroke="#FEF6E3" stroke-width="0.5" stroke-miterlimit="10" stroke-linecap="round" stroke-linejoin="round"/>
<path d="M70.1 132H72.6L78.4 132.4L85.2 132" stroke="#FEF6E3" stroke-width="0.5" stroke-miterlimit="10" stroke-linecap="round" stroke-linejoin="round"/>
<path d="M72.1 133L75.2 134H78.4" stroke="#FEF6E3" stroke-width="0.5" stroke-miterlimit="10" stroke-linecap="round" stroke-linejoin="round"/>
<path d="M87.1 131.4L90.4 130.4L93.7 129.1L97.1 127.4L100.1 125.6L102.6 123.7L105.5 122L109.6 118L113.4 112.9L115.5 108L117.3 101.4L117.9 95L117.3 88.5L115.5 83.5" stroke="#FEF6E3" stroke-width="0.5" stroke-miterlimit="10" stroke-linecap="round" stroke-linejoin="round"/>
<path d="M84 134.3H84.3" stroke="#FEF6E3" stroke-width="0.25" stroke-miterlimit="10" stroke-linecap="round" stroke-linejoin="round"/>
<path d="M87.6 133V132.9" stroke="#FEF6E3" stroke-width="0.25" stroke-miterlimit="10" stroke-linecap="round" stroke-linejoin="round"/>
<path d="M89.1 133.7H89.6" stroke="#FEF6E3" stroke-width="0.25" stroke-miterlimit="10" stroke-linecap="round" stroke-linejoin="round"/>
<path d="M90.9 133H91.4L92.1 132.4" stroke="#FEF6E3" stroke-width="0.5" stroke-miterlimit="10" stroke-linecap="round" stroke-linejoin="round"/>
<path d="M93 132.4L95.5 131.4L97.3 129.7L100.4 127.9L103.7 125.6" stroke="#FEF6E3" stroke-width="0.25" stroke-miterlimit="10" stroke-linecap="round" stroke-linejoin="round"/>
<path d="M99.6 129.5L101.4 128.4" stroke="#FEF6E3" stroke-width="0.25" stroke-miterlimit="10" stroke-linecap="round" stroke-linejoin="round"/>
<path d="M107.1 69.7L114.3 67.4001L117.9 64.7L120.1 62L120.4 61.2001L119.1 60.3H116.7L111.2 61.7001" stroke="#FEF6E3" stroke-width="0.5" stroke-miterlimit="10" stroke-linecap="round" stroke-linejoin="round"/>
<path d="M107.6 71.3999L108.4 72.3999" stroke="#FEF6E3" stroke-width="0.25" stroke-miterlimit="10" stroke-linecap="round" stroke-linejoin="round"/>
<path d="M109.1 72.9L110.4 72.4M110.4 72.4V72M110.4 72.4V72.9" stroke="#FEF6E3" stroke-width="0.25" stroke-miterlimit="10" stroke-linecap="round" stroke-linejoin="round"/>
<path d="M110.9 73.4999L113.4 76.9999V77.3999L113.7 77.8999L113.4 76.3999L110.9 72.8999L110.4 72.3999" stroke="#FEF6E3" stroke-width="0.25" stroke-miterlimit="10" stroke-linecap="round" stroke-linejoin="round"/>
<path d="M114.3 79.5V79.7" stroke="#FEF6E3" stroke-width="0.25" stroke-miterlimit="10" stroke-linecap="round" stroke-linejoin="round"/>
<path d="M109.6 76.3999H109.1" stroke="#FEF6E3" stroke-width="0.25" stroke-miterlimit="10" stroke-linecap="round" stroke-linejoin="round"/>
<path d="M109.6 77.8999L111.4 80.0999" stroke="#FEF6E3" stroke-width="0.25" stroke-miterlimit="10" stroke-linecap="round" stroke-linejoin="round"/>
<path d="M112.1 81.3999L112.4 81.6999" stroke="#FEF6E3" stroke-width="0.25" stroke-miterlimit="10" stroke-linecap="round" stroke-linejoin="round"/>
<path d="M112.4 82L112.6 82.4" stroke="#FEF6E3" stroke-width="0.25" stroke-miterlimit="10" stroke-linecap="round" stroke-linejoin="round"/>
<path d="M112.6 82.8999L113.4 84.0999" stroke="#FEF6E3" stroke-width="0.25" stroke-miterlimit="10" stroke-linecap="round" stroke-linejoin="round"/>
<path d="M113.7 83.5V84.1" stroke="#FEF6E3" stroke-width="0.25" stroke-miterlimit="10" stroke-linecap="round" stroke-linejoin="round"/>
<path d="M114.3 90.1001V90.4001" stroke="#FEF6E3" stroke-width="0.25" stroke-miterlimit="10" stroke-linecap="round" stroke-linejoin="round"/>
<path d="M114.6 93.0999L115.2 92.8999" stroke="#FEF6E3" stroke-width="0.25" stroke-miterlimit="10" stroke-linecap="round" stroke-linejoin="round"/>
<path d="M129.9 119.1H130.9" stroke="#FEF6E3" stroke-width="0.25" stroke-miterlimit="10" stroke-linecap="round" stroke-linejoin="round"/>
<path d="M130.4 117.7V116.8" stroke="#FEF6E3" stroke-width="0.25" stroke-miterlimit="10" stroke-linecap="round" stroke-linejoin="round"/>
<path d="M130.4 117.4V116.4" stroke="#FEF6E3" stroke-width="0.25" stroke-miterlimit="10" stroke-linecap="round" stroke-linejoin="round"/>
<path d="M109.6 121.8L110.4 120.9" stroke="#FEF6E3" stroke-width="0.25" stroke-miterlimit="10" stroke-linecap="round" stroke-linejoin="round"/>
<path d="M110.9 119.7L111.4 119.1" stroke="#FEF6E3" stroke-width="0.25" stroke-miterlimit="10" stroke-linecap="round" stroke-linejoin="round"/>
<path d="M111.4 118.7V118.4" stroke="#FEF6E3" stroke-width="0.25" stroke-miterlimit="10" stroke-linecap="round" stroke-linejoin="round"/>
<path d="M111.4 118.4L112.1 117.4" stroke="#FEF6E3" stroke-width="0.25" stroke-miterlimit="10" stroke-linecap="round" stroke-linejoin="round"/>
<path d="M112.6 116.8L113.4 115.9" stroke="#FEF6E3" stroke-width="0.25" stroke-miterlimit="10" stroke-linecap="round" stroke-linejoin="round"/>
<path d="M116.1 107.9L116.7 107.4" stroke="#FEF6E3" stroke-width="0.25" stroke-miterlimit="10" stroke-linecap="round" stroke-linejoin="round"/>
<path d="M116.4 106.8L116.7 106.4" stroke="#FEF6E3" stroke-width="0.25" stroke-miterlimit="10" stroke-linecap="round" stroke-linejoin="round"/>
<path d="M129.1 92.4L130.9 91.7" stroke="#FEF6E3" stroke-width="0.25" stroke-miterlimit="10" stroke-linecap="round" stroke-linejoin="round"/>
<path d="M130.4 90.3999L130.9 86.3999L130.4 83.0999L129.9 79.0999L130.4 78.4999L129.9 77.3999V74.6999L128.8 72.8999" stroke="#FEF6E3" stroke-width="0.25" stroke-miterlimit="10" stroke-linecap="round" stroke-linejoin="round"/>
<path d="M126.4 31.4001L127.9 30.6001" stroke="#FEF6E3" stroke-width="0.25" stroke-miterlimit="10" stroke-linecap="round" stroke-linejoin="round"/>
<path d="M126.4 30.6L127.9 30" stroke="#FEF6E3" stroke-width="0.25" stroke-miterlimit="10" stroke-linecap="round" stroke-linejoin="round"/>
<path d="M135.9 8.30005L137.9 8.50005" stroke="#FEF6E3" stroke-width="0.25" stroke-miterlimit="10" stroke-linecap="round" stroke-linejoin="round"/>
<path d="M135.5 8.90005V8.30005" stroke="#FEF6E3" stroke-width="0.25" stroke-miterlimit="10" stroke-linecap="round" stroke-linejoin="round"/>
<path d="M52.9 98.3999H53.1" stroke="#FEF6E3" stroke-width="0.25" stroke-miterlimit="10" stroke-linecap="round" stroke-linejoin="round"/>
<path d="M54.9 91.4001V90.6001" stroke="#FEF6E3" stroke-width="0.25" stroke-miterlimit="10" stroke-linecap="round" stroke-linejoin="round"/>
<path d="M58.4 83.5001V83.1001" stroke="#FEF6E3" stroke-width="0.25" stroke-miterlimit="10" stroke-linecap="round" stroke-linejoin="round"/>
<path d="M66.7 73.4999L67.6 72.8999" stroke="#FEF6E3" stroke-width="0.25" stroke-miterlimit="10" stroke-linecap="round" stroke-linejoin="round"/>
<path d="M64.9 67.8999H65.2" stroke="#FEF6E3" stroke-width="0.25" stroke-miterlimit="10" stroke-linecap="round" stroke-linejoin="round"/>
<path d="M17.1 131.8L15.5 132" stroke="#FEF6E3" stroke-width="0.25" stroke-miterlimit="10" stroke-linecap="round" stroke-linejoin="round"/>
<path d="M19.6 121.4V120.9" stroke="#FEF6E3" stroke-width="0.25" stroke-miterlimit="10" stroke-linecap="round" stroke-linejoin="round"/>
<path d="M20.9 116.8H21.4V116.4L21.9 116.8V116.4" stroke="#FEF6E3" stroke-width="0.25" stroke-miterlimit="10" stroke-linecap="round" stroke-linejoin="round"/>
<path d="M22.1 115.9H22.6" stroke="#FEF6E3" stroke-width="0.25" stroke-miterlimit="10" stroke-linecap="round" stroke-linejoin="round"/>
<path d="M55.5 116.1V115.9" stroke="#FEF6E3" stroke-width="0.5" stroke-miterlimit="10" stroke-linecap="round" stroke-linejoin="round"/>
<path d="M54.6 114.3H54.9" stroke="#FEF6E3" stroke-width="0.25" stroke-miterlimit="10" stroke-linecap="round" stroke-linejoin="round"/>
<path d="M56.7 117.7L57.1 117.9" stroke="#FEF6E3" stroke-width="0.25" stroke-miterlimit="10" stroke-linecap="round" stroke-linejoin="round"/>
<path d="M57.6 119.7L59.1 121.8L61.4 124.1" stroke="#FEF6E3" stroke-width="0.5" stroke-miterlimit="10" stroke-linecap="round" stroke-linejoin="round"/>
<path d="M62.6 125L64 125.9L64.6 126.4" stroke="#FEF6E3" stroke-width="0.25" stroke-miterlimit="10" stroke-linecap="round" stroke-linejoin="round"/>
<path d="M64.6 126.4H64.9" stroke="#FEF6E3" stroke-width="0.25" stroke-miterlimit="10" stroke-linecap="round" stroke-linejoin="round"/>
<path d="M67.6 128V127.9" stroke="#FEF6E3" stroke-width="0.25" stroke-miterlimit="10" stroke-linecap="round" stroke-linejoin="round"/>
<path d="M69.6 128.4L70.4 128.9" stroke="#FEF6E3" stroke-width="0.25" stroke-miterlimit="10" stroke-linecap="round" stroke-linejoin="round"/>
</svg>
