<svg width="455" height="510" viewBox="0 0 455 510" fill="none" xmlns="http://www.w3.org/2000/svg">
<path d="M205.429 16.8739C198.137 24.5409 191.365 34.7631 184.029 42.1259C164.75 42.6479 161.274 42.9579 143.113 49.0185C135.05 44.1112 127.023 39.1479 119.03 34.1278C114.581 31.3686 106.433 25.4072 101.325 25.6713C90.8849 29.9966 99.9445 67.0003 99.3999 76.2509C99.0366 82.4262 95.2207 86.349 93.0493 91.8368C86.7202 107.832 86.9599 129.48 93.6084 145.192C95.2299 149.024 97.2358 152.358 99.5845 155.765C89.7827 152.129 83.0307 149.725 72.4082 148.886C48.5835 147.006 24.9023 157.551 17 181.581L16 187.581H33C39.5 187.581 39.5 187.581 49 189.081C52.2032 189.638 56.485 192.306 66.25 199.081C82.4683 206.523 101.001 209.54 115 221.081C120.725 225.801 124.175 235.828 123.5 243.081C122.838 250.842 124.5 269.081 125.5 269.081C128.315 285.504 131.961 295.296 140.5 309.581C147.094 320.613 152.789 331.811 155.5 337.581C158.937 341.858 160.518 368.198 161 377.581C161.482 386.965 163.586 402.214 164.5 409.081C168.862 425.209 173.5 437.872 173.5 454.581C175.589 474.513 150.374 472.552 155.997 492.069C161.28 510.404 200.06 507.318 211.95 499.603C231.51 486.908 232.501 458.387 236.747 438.202C238.399 430.311 240.92 422.63 244.266 415.301C248.154 422.874 260.303 439.491 261.266 445.775C263.874 462.806 245.691 491.976 271.633 499.969C283.036 503.48 297.252 501.214 305.245 491.844C312.298 484.427 310.885 469.447 311.101 459.701C311.537 445.706 312.279 431.589 314.838 417.801C315.485 414.413 316.13 410.731 316.5 407.581C316.226 407.095 321 384.581 321 384.581C330.52 386.531 342.355 386.437 361 384.581C377.388 380.545 382.293 378.376 398.5 371.581C410.114 362.655 421.111 356.422 434.5 334.581C438.844 318.418 443.43 312.707 434.5 295.581C427.391 291.512 424.716 289.262 410.5 292.081C402.503 295.952 399.441 296.997 386 308.081C386.631 308.979 357.32 327.583 354.039 326.595C354.026 326.591 354.013 326.586 354 326.581C354.015 326.585 354.029 326.59 354.039 326.595C355.29 327.144 328.124 332.614 326 331.081L316.5 292.081C309.663 276.617 303.182 261.038 293.5 247.081C287.401 239.348 285.177 234.519 282 225.581C277.299 209.912 279.514 187.25 265 175.581C258.307 165.527 255 163.581 244.835 157.954C270.363 133.943 268.616 95.766 249.02 68.7128C245.994 64.4662 240.345 60.1605 238.652 55.2489C233.109 39.1605 230.416 21.1684 222.51 6.07169C220.002 3.67765 216.249 5.81291 214.16 7.44865C210.689 10.1654 208.363 13.7885 205.429 16.8739Z" fill="#FEF6E4"/>
<path d="M268 312.081C267.993 311.231 268.603 310.83 269.5 310.581C268.949 311.594 283.796 319.997 298 326.081C305.953 328.602 313.461 330.201 319.5 330.581C319.407 330.503 322.59 331.233 323 331.081C323.41 330.929 318 308.081 315 296.081L314.5 295.081L313.5 292.081C311 285.081 311.5 286.581 308 279.081L303.5 270.081C304.254 271.722 298.101 259.491 298 260.081L290.473 249.349C286.038 245.323 278.322 228.725 281 234.081C281.5 234.581 280 232.081 280 232.081C278.345 228.11 277.803 225.806 277.5 221.581L275 207.081L273 198.581L269.971 192.4C266.985 186.433 264.793 183.402 260.819 178.253C252.57 169.693 248.08 166.975 237.309 162.182C227.988 159.967 218.998 171.693 208.837 170.552L208.331 169.883L208.707 168.976C209.536 168.337 216.091 166.352 217.53 165.981C231.439 162.391 244.927 150.804 251.53 137.934C261.726 118.06 257.274 93.2757 245.041 75.1717C242.355 71.1971 235.203 64.8822 233.455 60.9071C231.31 56.0297 229.135 47.348 227.637 41.9847C224.97 32.1995 221.865 22.5475 218.437 13.0057L215.077 16.3558C206.202 26.5673 196.463 39.452 187.72 48.6595C169.948 48.3822 159.151 49.7201 142.761 56.9535C130.354 49.8387 116.775 40.9852 104.459 33.3534C105.325 49.4359 105.666 66.1854 106.203 82.3256C89.8965 107.496 91.2861 135.187 110.357 158.338C111.552 159.53 114.128 162.11 116.5 164.581C120.664 167.44 123.194 168.778 128.5 170.081C130.933 170.575 134.151 170.319 135 170.081C138.931 168.979 141.129 168.426 145 168.081C147.802 168.015 147.964 168.483 147.5 169.581L141 172.081C131.818 173.292 126.672 172.813 117.5 170.581C116 169.581 101 164.081 101 164.081C99 163.581 96.5 162.081 93.8574 161.195C88 158.338 84.3267 157.435 79.7993 156.553C55.3789 151.789 31.5132 159.959 23.1387 184.755C33.6694 184.775 47.5991 183.801 56.5718 189.463C61.8218 192.776 65.9473 196.328 71.8643 198.817C79.4702 202.017 89.001 204.162 96.2178 207.916C105.649 211.034 118.938 218.173 123.176 227.392C127.529 236.864 126.428 244.237 126.877 254.339C127.115 259.339 127.688 264.32 128.593 269.242C131.596 285.301 138.561 297.464 146.438 311.512C151.807 320.955 158.226 332.591 160.917 343.568C164.952 360.037 163.369 377.493 166.049 394.593C169.808 417.479 181.21 440.077 178.778 463.68C177.724 473.914 157.298 481.551 162.848 490.897C169.897 502.767 197.081 500.164 207.215 494.329C218.175 488.022 222.098 474.716 225.414 463.47L225.539 463.045C226.446 454.996 228.19 446.797 229.743 438.831C230.384 436.03 233.059 422.581 238 412.081C242 403.581 249.306 396.924 251 394.081C252.694 391.239 262.464 385.802 263.5 386.581C264.536 387.361 264 388.081 264 388.081C263.064 388.774 262.055 389.034 262.055 389.034C256.28 394.768 251 399.081 247.5 406.081C251 419.081 263.729 431.307 267.679 442.669C271.819 454.574 260.832 475.042 265.766 487.396C266.815 490.023 270.684 492.601 273.36 493.329C283.849 496.937 299.507 493.709 303.09 481.825C305.326 474.408 304.129 464.784 304.603 456.971C305.162 447.743 305.696 438.294 306.5 429.066C307.677 412.303 312.823 399.403 317.666 383.621C303.133 379.857 289.887 375.575 277.865 366.341C274.448 363.714 264.41 356.292 263.847 352.464L264.48 351.8C265.892 351.995 267.165 353.49 268.273 354.559C273.987 360.067 280.228 364.915 287.085 368.949C297.385 374.896 308.664 378.953 320.391 380.936C327.385 382.113 342.49 382.948 350 382.581C370.5 381.581 400.5 365.081 400.5 365.081C409.709 358.792 413.5 355.081 413.5 355.081L420.282 347.899C428.744 338.245 435.614 322.957 436.015 309.945C435.038 303.402 433.769 300.638 429.022 295.946C420.39 290.522 400.886 296.864 389 311.081C375.299 321.911 352.662 331.995 344 332.581C335.338 333.168 316.451 336.589 299 330.581C284.815 326.002 270.461 316.487 268 312.081Z" fill="#222020"/>
<path d="M122.194 105.167C122.477 99.9124 125.564 95.2166 130.275 92.8719C134.986 90.5277 140.593 90.8968 144.956 93.8392C150.811 97.7879 153.005 105.359 150.167 111.827C147.329 118.294 140.272 121.806 133.401 120.17C126.531 118.535 121.813 112.219 122.194 105.167Z" fill="white"/>
<path d="M191.612 86.3998C199.53 84.7543 207.277 89.8617 208.884 97.7885C210.492 105.715 205.346 113.437 197.412 115.006C189.532 116.563 181.874 111.461 180.278 103.589C178.682 95.7167 183.747 88.0341 191.612 86.3998Z" fill="white"/>
<path d="M137.193 114.792C135.596 113.471 135.067 111.252 135.896 109.351C136.725 107.452 138.711 106.329 140.767 106.601C142.822 106.872 144.449 108.472 144.756 110.522C145.041 112.427 144.122 114.311 142.444 115.259C140.766 116.206 138.678 116.021 137.193 114.792Z" fill="#F5C842"/>
<path d="M190.905 101.904C193.368 101.332 195.829 102.857 196.413 105.317C196.996 107.776 195.483 110.244 193.026 110.84C190.553 111.438 188.065 109.912 187.477 107.437C186.89 104.961 188.427 102.48 190.905 101.904Z" fill="#F5C842"/>
<path d="M110.357 158.338C113.393 155.264 129.586 142.904 133.26 141.414L133.322 141.98C127.817 148.821 118.329 153.402 111.679 159.558C111.206 159.249 110.766 158.745 110.357 158.338Z" fill="#C6B46D"/>
<path d="M204.497 132.084C211.902 133.097 230.688 141.043 238.636 143.571C240.761 144.247 241.126 144.651 241.826 146.295C238.043 146.134 210.789 136.148 205.479 133.859C204.568 133.467 204.73 133.072 204.497 132.084Z" fill="#C5B468"/>
<path d="M235.362 107.572L236.767 107.664L237.063 108.32C235.435 110.537 210.89 119.073 206.601 120.631L205.311 120.458L205.087 119.848C206.91 117.944 230.963 109.318 235.362 107.572Z" fill="#C6B46D"/>
<path d="M98.666 125.795C102.728 125.833 126.965 127.769 129.702 129.149L130.182 130.611C121.703 130.082 108.393 129.049 99.8076 127.406C98.9551 127.243 99.0586 126.818 98.666 125.795Z" fill="#C5B468"/>
<path d="M218.915 124.93C222.613 124.755 228.048 124.228 231.409 125.492L231.032 126.046C228.042 127.005 224.13 126.943 220.923 127.058C218.12 127.138 208.127 127.738 206.069 126.3C208.199 124.895 216.004 125.029 218.915 124.93Z" fill="#C5B468"/>
<path d="M127.631 135.588C128.571 135.373 129.727 135.271 130.352 136.072C128.818 137.863 117.34 139.638 114.263 140.189C112.874 140.493 112.939 140.482 111.53 140.257L111.292 139.595C112.917 138.065 124.651 136.158 127.631 135.588Z" fill="#C6B46D"/>
<path d="M166.161 130.745L166.795 131.101L167.144 132.584C163.181 136.596 161.363 138.786 156.311 141.428C159.364 137.031 162.407 134.512 166.161 130.745Z" fill="#C6B46D"/>
<path d="M166.161 130.745C164.642 122.799 162.989 127.195 159.249 122.177C158.074 115.795 171.784 113.842 173.076 120.57C172.393 125.175 169.019 124.344 168.026 126.869C168.054 128.353 167.894 130.42 169.056 131.355C173.085 134.599 175.948 135.833 179.484 139.833C175.505 138.472 170.265 135.333 167.144 132.584L166.795 131.101L166.161 130.745Z" fill="#BCAE64"/>
</svg>
