<svg xmlns="http://www.w3.org/2000/svg" width="226" height="334" fill="none" viewBox="0 0 226 334"><path fill="#fdc558" d="M145.7 126.23c-.76.9 1.2.75 0 0"/><mask id="a" fill="#fff"><path d="M130.03 121.71c1.65-.15 2.25-6.92.6-6.46-2.41 2.85-2.56-1.06-6.03 1.95l-1.35 3.01-4.22.45-.45 29.04v8.88c.9 1.05-.46-7.23 1.35-1.06-.3 1.8 13.26 4.36 16.72 21.82 1.66 10.83-4.52 16.7-12.5 21.81 3.01-.3 7.83-4.66 10.25-6.32 10.24-9.33 1.95-20.3-1.96-27.98l-7.99-7.97c9.2 3 13.26 15.5 15.22 23.92 2.26 10.68-10.25 17-21.55 21.81-1.5.6-1.8 3.31-1.35 4.21l-.6-.75c0 4.52 3.61 9.78 3.61 26.48v7.67c6.33-.3 13.26 1.66 21.7 2.11 6.02.3 6.02 4.97 4.97 10.68l-.15 8.73c-.46 4.21-4.98 1.5-10.7 1.05-12.96-.75-24.86-2.25-40.23-2.7-8.89-.76-17.48-2.86-26.06-.9-1.2-.16-2.26 3.15-4.52 3.15-3.47.45-1.96-7.07-.76-16.7 1.96-12.79 5.43-8.27 13.86-5.87l14.77.6 1.66-34.15c-.6-2.1.9-4.06-1.06-5.71-5.42-4.22-10.24-9.93-11.9-18.06-1.2-7.07 3.16-19.56 11.9-25.57.76-3.16 4.07-2.26 3.92.45.15-.6-4.37 1.8-5.73 3.6l-1.05 2.26-.3-.3 1.96-4.06-2.26 1.66c-4.97 4.36-9.2 13.69-7.99 22.72l6.03 11.88-3.01-8.12 1.05-3.31c.45 6.47 3.92 12.03 7.99 16.55l1.35-12.2c-4.82-7.97-3.77-6.16-.9-18.2l3.01-3.16 1.96-45.43c-3.77-3.01-14.46 3.3-15.37 3.76l6.33-2.26-.15.3c.9 0 7.23-2.55 6.93-1.5-1.8 1.2-6.18.45-17.03 6.02.3.75 6.78-3.01 11.3-3.31l6.93-.75.9-1.2-.9 20 3.62-5.72.3-7.67.75-1.5.76.6c0-.6-.75-3.91-.9-7.22l3.16-37.16 1.96-10.23 2.4-32.5-.75-6.77-3-.15c-.46 5.56.14 11.43-1.21 17.3l-2.26 44.68-.6.45-.3-6.31-.3.3c.3 5.71-.61 13.09-1.22 20.46l.3.6-.6.75-.3 3.76.6.3v1.96l-.9-.75-.3 3.3c-1.5-2.1-6.78-2.25-9.2-1.05v-.45l-1.8.45v-.6c5.27-1.35-5.42-.15-6.63.6-6.18 1.06-16.42 6.92-21.54 13.1-3.77 4.5-6.48 15.04-6.03 14.74-3.47 12.79.15 23.62 5.73 33.25l4.21 7.52c2.41-10.38-11.3-19.7-3.31-46.64l2.56-4.97c6.33-6.92 16.72-17.75 27.57-16.7-.75 1.2-4.97 0-7.23 2.26-5.72 5.72-12.8 9.48-20.34 19.56l-3.46 9.03v1.5h.3l3.61-9.33 4.67-6.01 1.36-1.2.3.44-3.31 3.77c-2.57 3.3-5.58 11.58-6.63 16.54-.6 4.67 2.26 12.2 4.82 16.1l3.46 6.62c-4.22-6.01-7.98-13.39-8.89-23.17-.6 6.47 6.33 26.78 6.18 30.85l-.45 1.5c.6-.15.75 2.86.45 4.36 1.8.6 4.52-8.87 4.52-5.71 0 1.35-1.05 4.2-1.05 5.86-.76 10.39-11.15 15.8-17.93 26.78-7.69 10.69-12.66 22.87-12.36 32.65-.75 14 3.47 30.54 12.36 44.84 5.87 4.06 16.72 2.4 25.16 5.26 19.28 2.4 34.65 9.03 50.62 9.78 6.48.3 16.12-3.46 23.5-4.51 6.03-2.56 10.55-2.71 16.28-5.27l1.05-.45v-.15c.9-.6 1.81-.9 2.87-1.5-2.26 3.9-13.56 4.66-18.08 6.92-7.69 2.4-13.56 3.46-20.2 5.41l13.72 1.2c5.42-1.65 19.28-5.1 21.1-7.52 3.16-.75 3.46-5.41 4.2-5.26l1.37-1.66c5.27-3.46 6.93-10.98 8.88-15.04l1.21-3.46.3.75-.9 3.76c.9 3.61-.46 4.97-2.56 7.22l-.6.75h.6l3.31-2.85.45 1.5c-.15 4.36-4.97 10.68-13.26 16.55-8.13 6.02-19.88 6.02-26.06 7.67-8.74 2.26-21.4 3.01-34.96 3.76-14.91.46-28.77-2.55-39.02-4.06-12.8-2.7-30.58-6.47-37.97-20-1.65-1.51-.15 3 7.39 8.72 13.86 9.03 26.66 10.83 40.98 13.84a403 403 0 0 0 32.09 3.61c13.56 0 35.7-3 48.51-6.77 10.85-2.86 21.55-11.28 23.66-22.72l-.3-4.51c2.7-2.7 3.61-6.47 4.37-11.89l-5.28 6.17h-.15l3.62-8.42c3.01-6.62 1.96-17.46 2.4-2.86l.76.6.46-3.61h.3v1.5c1.5-1.5.3-11.28-.16-10.08l-1.8 7.83c.45-4.67-3.32-22.72-5.58-26.33-3.01-7.67-10.24-20.31-21.4-31l-5.72-10.53.15-.6-2.1-3.76v-6.92l1.2-3.91.75-1.2.6-4.82c2.57-6.47 4.68-3.46 8.9-15.8l1.35.75c4.97-7.52 1.66-18.8-4.82-26.32l2.41 1.8 1.96 1.96-.6-1.5c-5.58-6.78-17.78-13.55-26.67-15.5l.45-.3 5.57.75c4.22 1.05 9.05 3.76 11.6 5.56l2.72 2.71.3-.45-3.92-3 3.92 2.7 5.88 6.32-.6-1.5 1.05 1.2-.45-1.2.45.45.3.75-.75-.45c-5.88-9.78-9.5-9.33-20.65-13.54m15.67 76.43-1.8-4.37.6-1.5h-1.2v-3.16l-2.27-3.46.46 7.37-.46-.75 2.26 5.41.15-.15.46-.15.6.9zm-4.67-13.24.6-.76-.45-.75zm.76-3.01.45.45v-.75zm5.72-8.43-5.12 6.62c2.1-1.35 4.37-4.51 5.12-6.62m3.16-6.17-1.8 3.31-1.81 2.26-.75 1.35 3.16-3 .6-2.11zm.6 1.8-1.2 1.96 1.81-1.2zm.61-1.8.6-.45-.15-.3zm3.77-8.72-1.96 5.11 1.2-.6-1.8 3.61.6.15c1.96-2.25 1.96-5.56 1.96-8.27m-.6 6.02 1.2-2.56-.6-.45zm-.16-25.13-1.35-2.86.75 2.4-.75-.74 1.35 8.27v10.53l.46-.3v-1.95l-.3-3.31-.6-3.76 1.2 5.56-.6-7.07 1.05 6.32-1.06-7.52zm-105 56.72-3.01 5.26 1.5-.75c2.56-2.25 4.22-6.77 4.82-9.78zm.45-7.67.3-.6h-.45zm-7.68 14.44-3.77 3.46h.75zm-2.11 3-9.95 9.79c2.72-.75 5.73-6.02 12.81-11.59v-.6zm6.48-7.51-14.17 12.78h-.9l-2.56 3.77h1.96l11.75-11.59.75-.75 3.47-4.36zm-2.87 6.77-5.42 6.01 5.88-6.77zm-32.39 37.3c-1.96 3.32-1.5 5.57-.3 3.17 3.46-6.77 10.55-15.95 13.56-17.15l9.8-10.69-3.77 4.67-.46-.3-16.27 19.1-2.56 4.37zM68.4 316.7l-1.5-.75c-9.65-.9-20.65-6.77-26.67-12.8-5.28-5.86-10.4-13.38-12.2-21.66l.6-2.4 7.68 12.93 1.2 4.22 3.32 2.25-2.1-5.86c2.55 3 6.77 5.11 11.6 7.52 6.02 7.52 15.81 14.14 25.46 13.69 8.58 1.5 17.17 2.7 23.05 2.1v-.14c-11 0-23.8-.46-36.46-5.87-4.22-2.1-8.74-5.87-10.25-8.13 18.53 2.71 31.04 4.22 54.24 9.78 4.97 1.2 9.94 2.71 14.61 3.01v.6l-14.91.76v.9c4.22.45 12.05-1.5 16.72-.9l1.36-.76 4.07-.15.15-.45-4.97.45v.75c6.78-.75 15.06.3 20.94.3v.6c-4.82 2.26-11.75 3.92-13.71 3.92l14.91-1.5 9.04-2.26-8.43-.15v-.6l13.25-.15-8.88 2.25 10.7-3 1.05-.6-10.7 2.1-.45-.6 10.1-.9 6.17-2.41v-.46h1.2l3.02-1.5 4.07-3 3.01-2.26v-.3l-7.08 4.5c7.38-4.2 9.04-6.61 11.6-11.73v-1.5l-9.34 7.52 4.37-6.77h.45v-.75l4.97-2.56 2.41-4.51-6.02 7.07 3.61-7.83v-.6l3.02-4.66.75-1.96 1.8-3.76-4.21 6.02 1.8-6.02 2.72-3.76 1.2-4.06.3-.45.6-10.84-4.21-13.99h-.75l3.76 17 .3-.45v-2.4l-4.67-23.17-2.26 3.76-.75-3.01-11.9-12.94c2.26 4.36 8.74 13.39 10.1 20.31.44 2.86-.61 6.62 1.8-.6l-.6-1.66.6.15-16.42-26.33-.6-2.25-2.87-3.01-.6-1.5 5.42 6.76-3.16-5.41h.75l-3.01-3.91.45-.6-1.8-1.36-.6-1.65 6.17 9.02-.6-2.86 8.88 11.29.6-.15-9.48-11.89v-.9l8.43 9.93.45 1.5 2.57 3.01 1.05 3.61 1.36 1.5.6 1.66 1.2 5.27-.15-3.01 1.51 4.21-.15-1.2-.6-2.26-4.22-7.52L161.82 204l-2.26-5.26.45-11.29-2.11 2.1.9-3.6 3.77-4.67h1.05l-3 4.67 2.55-1.5-2.86 5.1-.3 6.78-.6.15 2.86 4.51-1.66-7.52v-6.02c.6-2.56 2.56-9.78 3.77-10.53l1.8-1.8 1.21-1.96c3.01-2.56 4.22-6.77 4.22-14.6l-1.2-9.77.75 2.4-1.81-7.67c-4.52-11.13-9.34-14.3-17.63-16.25l-6.18-1.8-14.46-2.11-4.37-.15.9-.6-2.4-.9 3.61-.46c1.8 0 1.8-2.4 1.36-4.81l-1.96 1.5c-3.77-2.1-3.77 1.66-4.82 4.06-3.02 1.96-.46 2.86-.6 3.47l-1.36 1.5c-1.66.15-3.02-3.76-.45-3.76h1.95l.46-1.96-4.22-.15-.15 20.16-.45 17.6-1.21 44.09 1.8-.45c8-3.01 16.28-9.93 16.88-16.55.75-10.84-5.42-19.71-14.61-27.39v-1.2c7.98 2.86 14 10.53 17.47 23.17l-.45-3.61-.45-.3 1.66 8.27-.15 1.66-1.5 5.41 1.65-3.9c-1.96 6.91-8.44 10.53-16.27 14.29-2.26.9-5.28 1.65-6.03 2.4l-.75 2.86c2.56 11.44 3.31 18.8 2.56 34.76l-.46.6.46.15.75 3.76-1.2 3-.9-.74.75-6.02-4.68-.75v9.78l-1.05.45.3-10.54h-4.37l1.36 7.83h-.6l-1.21-6.02-3.47-.15-.15 6.92-1.05 3.01 1.05 1.5 5.43-.75v-.75l4.22.75s5.57-1.05 6.63-.75l-1.06-1.5 1.5-.9c8.44-.16 15.07-.61 22.6.6-.75 14.29 1.21 10.83-4.36 10.83-13.71-1.8-41.44-2.26-53.94-4.07v.3l35.7 2.26 9.8.6 12.66 1.66 1.2-.75c0-5.57.15-7.53 1.2-13.1.46-3.45-5.27-2.7-9.03-3.75l-17.33-1.2 1.5-1.06c1.97.15 4.53.9 8 .75v-.6l1.2.6H135l-5.58-.75 9.04 1.05 4.82 1.36h1.66l-.6-.6c-2.26 0-5.43-1.06.15-.3l1.8 2.55.76-.75-.3 3 .75-.74c.15 4.51-1.2 3.76-1.2 15.04l-1.96 1.5h-1.06v.46c1.96.3 2.41-.6 3.02-2.26l-1.2 2.26c-1.21.3-4.08-.75-5.58-.75l-7.08-1.2-16.88-1.06-20.34-.75-15.82-1.96c-3.01-.3-9.19 0-11 .6-1.8 0-2.7 3.16-4.22 2.1-1.05.76.15-8.12 1.66-19.25l2.56-3.76 7.54 2.7-1.96.3c-1.66 0-1.66 4.52-.3 4.52v-3l3.76-.3.45.3 13.72-.3-.16 8.27 1.06.75 1.5-8.73 3.32-.9 1.5 9.93 1.21 4.51.6.45c1.66 0 2.87-4.2 2.72-6.01v-1.2l.75-7.68-5.42-.15-1.36-1.2h1.8l-.6-3.01-.3-9.03h-.3v10.23l5.58 1.05-.15-33.85-6.03-2.56-1.5 20.62-1.51 14.29h-1.06l1.96-34.6.6-.9 4.98 1.65 3.31.75.6 34.6h4.67l-1.5-6.02h.45l1.2 6.02h3.32c-.45-5.56-.45-25.87.3-28.73l.75-6.92-5.12 1.8v.45l5.12-1.2-1.5 12.79v21.81h6.32l1.06.6c.15-8.42.15-20.9-3.47-32.94v-3.31l.6-.76-4.51.3 2.4-1.5.76-6.77-5.27.6-.76-.6v-.75l5.88-.75.15-2.26 1.06-9.33-1.51-10.23-.3-.3-.9-7.97-3.77-1.06v-1.2h3.46l.3-2.26.46-20.3 2.26-24.38.75-56.42 1.35-10.98.46-9.03-.46-4.51.46-.3c.6 1.65.6 4.06.75 9.17v21.97l-1.8 20-.76 34.91-.75 2.26-1.06 36.86c-.45.45 4.22-.15 3.47 3l-.3 1.51c2.7 1.5 7.23 4.52 7.98 7.23l-.75-.46-6.03-6.01-.75.75-1.81-.75v7.22l.45-.45v-6.02c5.58 4.21 7.54 10.53 6.03 17.75-1.66 3.31-3.92 8.28-6.48 8.28v.15l-.75 1.65-1.06.75v.76l1.36-.76.45.46-.75 6.92h1.2l1.36-41.23v-1.8l.75-38.82c0-.75-.75-4.81-1.36-7.52l1.06 4.51.15-3-1.06-2.26.3-1.5-1.65-1.51 1.66.75-.9-2.56.45-3.76-.46.3v-.75l.45.45.6-32.35.61-28.28-.6-5.57.6-2.25 2.41-3.46 2.26-.76 2.71-4.06-.45 3.01-3.77 3.31c-2.1 1.2-1.95 4.51-1.95 8.27h.45v3.01l-.45-1.5-1.06 6.47.6.75.45-1.2-1.05 28.28-.75 37.92.45 3M63.88 310.08v.75l3.02 2.1h3.31zm36.16 5.87v.6l4.82.3 1.2-.3zm12.8 7.52v.6h5.88v-.6zm-12.8-117.2 4.07.75v-1.8l-3.31-.46zm-1.2 21.51h-.6v1.5zm.6-23.77h-.9v-.75zm-.6 6.77h.45v-.9h-.45zm1.2-6.77 3.47.75.15-4.51.45-.75-.45-1.66.45-1.35-4.07-2.26-.6 6.77.6.75zm4.07.75h3.77v.75l-1.81.46v1.5l3.47.3v.45h-4.83zm.6-9.02 3.17.75v.75l-3.17-.75zm0-6.02h-.6v-.75h.6zm4.83 4.51v.75l5.87-.75.15.75-6.03.76z"/></mask><path fill="#fdc558" d="m170.4 143.53.5-.1-.01-.02v-.02zm.16 7.67h-.5v.12zm-124.3 66.2-.36-.35-.1.1-.03.13zm73.67-164.14h.5v-.5h-.5zm50.63 97.94-.5.12 1.06 4.36.49-.11.48-.12-1.05-4.36zm0 0h.5v-.9h-1v.9zm0 11.44h.5v-.75h-1v.75zm0-13.84-.49.13.6 2.25.49-.13.48-.13-.6-2.25zm-.16-5.27-.49.1.76 3.76.49-.1.49-.1-.76-3.76zm-.45-1.5-.48.14.46 1.5.47-.14.48-.14-.45-1.5zM65.1 199.2l.46.18.3-.75-.46-.19-.46-.18-.3.75zm-18.23 17.6-.36-.36-.6.6.35.36.36.35.6-.6zm-.6.6-.49-.12-.15.6.48.12.49.12.15-.6zm6.77-.6.4.31.6-.75-.4-.31-.38-.32-.6.76zm-8.13 3.76v.5h.6v-1h-.6zm75.03-166.55h.5v-.75h-1v.75zm-.15-.75v.5h.15v-1h-.15zm-.15 0v.5h.15v-1h-.15zm11 61.99-.26-.97-.3.08-.2.24zm-6.03 1.95-.65-.75-.17.14-.09.2zm-1.35 3.01.1 1 .57-.07.24-.52zm-4.22.45-.11-1-.88.1-.01.89zm-.45 29.04-1-.02v.01zm0 8.88h-1v.36l.24.29zm1.35-1.06.99.17.03-.23-.06-.22zm16.72 21.82 1-.15-.01-.03v-.02zm-12.5 21.81-.54-.84.64 1.84zm10.25-6.32.56.83.06-.04.05-.05zm-1.96-27.98.89-.45-.08-.15-.1-.1zm-7.99-7.97.31-.95-1.02 1.65zm15.22 23.92.98-.21v-.02zm-21.55 21.81.37.93h.03zm-1.35 4.21-.78.63 1.67-1.07zm-.6-.75.77-.62-1.78-2.22v2.84zm3.61 34.16-.5.86.26.15.29-.02zm21.7 2.1-.06 1zm4.97 10.68-.98-.18-.02.08v.09zm-.15 8.73 1 .1v-.08zm-10.7 1.05.08-1h-.02zm-40.23-2.7-.08 1h.05zm-26.06-.9-.13.98.18.03.17-.04zm-4.52 3.15v-1h-.07l-.06.01zm-.76-16.7-.99-.15v.03zm13.86-5.87-.27.97.11.03h.12zm14.77.6-.04 1 1 .04.04-.99zm1.66-34.15 1 .05v-.16l-.04-.16zm-1.06-5.71.65-.77-.02-.01-.01-.01zm-11.9-18.06-.99.17v.02l.01.01zm11.9-25.57.57.82.32-.22.09-.37zm3.92.45-1-.06 1.97.3zm-5.73 3.6-.8-.6-.06.09-.04.1zm-1.05 2.26-.7.71 1 1.01.6-1.3zm-.3-.3-.9-.43-.31.64.5.5zm1.96-4.06.9.44-1.5-1.25zm-2.26 1.66-.6-.81-.03.03-.03.03zM81.8 185.2l-.99.13.02.16.08.16zm6.03 11.88-.9.45 1.84-.8zm-3.01-8.12-.96-.3-.1.32.12.32zm1.05-3.31 1-.07-1.95-.24zm7.99 16.55-.75.66 1.5 1.66.24-2.21zm1.35-12.2 1 .12.03-.34-.17-.29zm-.9-18.2-.73-.69-.18.2-.07.26zm3.01-3.16.72.7.26-.28.02-.37zm1.96-45.43 1 .04.02-.5-.4-.32zm-15.37 3.76-.45-.9.79 1.84zm6.33-2.26.9.45 1.1-2.23-2.34.84zm-.15.3-.9-.44-.72 1.44h1.62zm6.93-1.5.55.83.31-.2.1-.36zM80 129.54l-.45-.9-.81.42.34.85zm11.3-3.31.07 1h.04zm6.93-.75.11.99.43-.05.26-.34zm.9-1.2 1 .04.15-3.24-1.94 2.6zm-.9 20-1-.04-.16 3.76 2.01-3.18zm3.62-5.72.85.54.14-.23.01-.27zm.3-7.67-.9-.45-.09.2v.21zm.75-1.5.63-.78-.97-.78-.55 1.11zm.76.6-.62.78 1.62 1.3v-2.08zm-.9-7.22-1-.09v.13zm3.16-37.16-.98-.2-.01.06v.05zm1.96-10.23.98.18.01-.05v-.06zm2.4-32.5 1 .07.01-.09v-.1zm-.75-6.77 1-.11-.1-.85-.85-.04zm-3-.15.04-1-.97-.05-.07.97zm-1.21 17.3-.98-.23-.02.1v.08zm-2.26 44.68.6.8.37-.28.03-.47zm-.6.45-1 .05.08 1.89 1.51-1.14zm-.3-6.31 1-.05-.12-2.26-1.6 1.6zm-.3.3-.72-.71-.31.31.02.45zm-1.22 20.46-1-.08-.01.27.12.26zm.3.6.79.63.4-.5-.29-.58zm-.6.75-.78-.62-.19.24-.02.3zm-.3 3.76-1-.08-.05.68.6.3zm.6.3h1v-.61l-.55-.28zm0 1.96-.63.77 1.63 1.36v-2.13zm-.9-.75.64-.77-1.46-1.22-.17 1.9zm-.3 3.3-.81.59 1.56 2.19.25-2.68zm-9.2-1.05h-1v1.62l1.46-.72zm0-.45h1v-1.28l-1.23.31zm-1.8.45h-1V123l1.24-.31zm0-.6-.25-.97-.75.2v.77zm-6.63.6.17.99.2-.03.16-.1zm-21.54 13.1.76.63zm-6.03 14.74.97.26.7-2.57-2.22 1.47zm5.73 33.25.87-.5zm4.21 7.52-.87.49 1.26 2.25.59-2.51zm-3.31-46.64-.89-.46-.04.09-.03.09zm2.56-4.97-.74-.67-.09.1-.06.12zM91 122.02l.85.54.86-1.37-1.61-.16zm-7.23 2.26-.7-.7zm-20.34 19.56-.8-.6-.08.11-.05.13zm-3.46 9.03-.94-.36-.06.17v.19zm0 1.5h-1v1h1zm.3 0v1h.68l.25-.64zm3.61-9.33-.79-.6-.09.1-.05.14zm4.67-6.01-.66-.75-.07.06-.06.07zm1.36-1.2.83-.56-.64-.96-.85.76zm.3.44.75.67.5-.58-.42-.64zm-3.31 3.77-.75-.67-.03.03-.01.02zm-6.63 16.54-.98-.2-.01.04v.04zm4.82 16.1.88-.46-.02-.04-.03-.04zm3.46 6.62-.82.58 1.7-1.04zm-8.89-23.17 1-.09h-2zm6.18 30.85.96.28.04-.12V189zm-.45 1.5-.96-.29-.5 1.69 1.7-.43zm.45 4.36-.98-.2-.17.87.84.28zm3.47.15 1 .08v-.08zm-17.93 26.78.8.59.03-.03.02-.03zm-12.36 32.65 1 .06v-.09zm12.36 44.84-.85.52.1.18.18.12zm25.16 5.26-.32.95.1.03.1.01zm50.62 9.78-.04 1zm23.5-4.51.15.99.13-.02.12-.05zm16.28-5.27-.4-.92zm1.05-.45.4.92.6-.26v-.66zm0-.15-.55-.83-.45.3v.53zm2.87-1.5.86.5 1.85-3.2-3.21 1.83zm-18.08 6.92.3.95.07-.02.07-.04zm-20.2 5.41-.28-.96.2 1.96zm13.72 1.2-.09 1 .2.02.18-.06zm21.1-7.52-.24-.97-.35.08-.22.3zm4.2-5.26-.19.98.6.12.37-.47zm1.37-1.66-.55-.83-.13.08-.1.12zm8.88-15.04.9.43.03-.05.02-.05zm1.21-3.46.93-.37-1-2.49-.87 2.53zm.3.75.97.23.08-.3-.12-.3zm-.9 3.76-.97-.23-.06.24.06.23zm-2.56 7.22-.74-.68-.02.03-.02.03zm-.6.75-.79-.62-1.3 1.63h2.08zm.6 0v1h.37l.28-.24zm3.31-2.85.96-.3-.44-1.47-1.17 1zm.45 1.5 1 .04V294l-.04-.16zm-13.26 16.55-.57-.82-.01.01h-.01zm-26.06 7.67.25.97zm-34.96 3.76.03 1h.02zm-39.02-4.06-.2.98h.03l.03.01zm-37.97-20 .88-.49-.08-.14-.12-.12zm7.39 8.72-.6.8.02.02.03.02zm40.98 13.84-.2.98h.05zm32.09 3.61-.07 1h.07zm48.51-6.77-.25-.97h-.01l-.02.01zm23.66-22.72.98.18.03-.12-.01-.12zm-.3-4.51-.7-.7-.33.31.03.46zm4.37-11.89.99.14.47-3.39-2.22 2.6zm-5.28 6.17v1h.46l.3-.35zm-.15 0-.92-.4-.6 1.4h1.52zm3.62-8.42-.91-.42v.01l-.01.01zm2.4-2.86-.99.03.01.46.37.29zm.76.6-.62.78 1.4 1.11.22-1.77zm.46-3.61v-1h-.9l-.1.88zm.3 0h1v-1h-1zm0 1.5h-1v2.42l1.7-1.7zm-.16-10.08-.93-.35-.02.06-.02.07zm-1.8 7.83-1-.1 1.97.32zm-5.58-26.33-.93.36.04.09.04.08zm-21.4-31-.87.48.07.14.12.1zm-5.72-10.53-.97-.24-.1.38.2.34zm.15-.6.97.25.1-.4-.2-.34zm-2.1-3.76h-1v.26l.12.23zm0-6.92-.96-.3-.05.15v.15zm1.2-3.91-.85-.53-.07.1-.04.13zm.75-1.2.85.53.12-.2.03-.21zm.6-4.82-.92-.37-.05.12-.02.13zm8.9-15.8.48-.87-1.05-.58-.38 1.13zm1.35.75-.48.88.8.45.51-.77zm-4.82-26.32.6-.8-1.36 1.45zm2.41 1.8.7-.7-.04-.06-.06-.04zm1.96 1.96-.7.7 1.63-1.07zm-.6-1.5.92-.38-.05-.14-.1-.12zm-26.67-15.5-.56-.84-1.95 1.3 2.3.51zm.45-.3.13-1-.37-.05-.31.21zm5.57.75.25-.97-.06-.02h-.05zm11.6 5.56.71-.7-.06-.06-.07-.05zm2.72 2.71-.7.71.85.86.68-1.01zm.3-.45.83.56.52-.78-.74-.57zm-3.92-3 .57-.83-1.18 1.62zm3.92 2.7.73-.68-.07-.08-.1-.06zm5.88 6.32-.74.68 1.66-1.05zm-.6-1.5.75-.66-1.69 1.03zm1.05 1.2-.75.66 1.68-1.01zm-.45-1.2.7-.71-1.64 1.06zm.45.45.93-.38-.08-.19-.15-.14zm.3.75-.51.86 2.54 1.52-1.1-2.75zm-.75-.45-.86.51.13.22.21.13zm-4.98 62.89.13.99 1.3-.16-.5-1.22zm-1.8-4.37-.93-.37-.15.38.15.38zm.6-1.5.93.37.06-.16v-.17zm-1.2 0h-1v1h1zm0-3.16h1v-.3l-.17-.25zm-2.27-3.46.84-.55-2.07-3.16.23 3.77zm.46 7.37-.86.51 1.85-.57zm-.46-.75.86-.52-1.78.9zm2.26 5.41-.92.39.57 1.38 1.06-1.06zm.15-.15-.31-.94-.23.07-.16.17zm.46-.15.83-.55-.43-.64-.72.24zm.6.9-.83.56.34.52.61-.08zm-3.47-13.38-1-.1-.33 3.36 2.11-2.64zm.6-.76.79.63.43-.55-.36-.6zm-.45-.75.86-.51-1.55-2.59-.3 3zm.6-1.5-.55-.84-1.02.68.87.86zm.46.45-.7.7 1.7 1.71v-2.41zm0-.75h1v-1.87l-1.56 1.03zm5.27-8.13.94.34-1.73-.95zm-5.12 6.62-.8-.61 1.34 1.45zm8.28-12.79.95.32-1.82-.8zm-1.8 3.31.78.63.05-.07.04-.08zm-1.81 2.26-.78-.62-.05.06-.04.07zm-.75 1.35-.88-.48 1.56 1.2zm3.16-3 .69.72.2-.19.07-.26zm.6-2.11-.95-.32v.04zm1.2 0 .79-.63-.89-1.1-.74 1.2zm-1.2 1.95-.85-.52 1.4 1.36zm1.81-1.2.56.83.9-.6-.68-.85zm0-2.56-.86-.51 1.46 1.31zm.6-.45.6.8.67-.5-.37-.75zm-.15-.3.9-.45-.82-1.62-.93 1.56zm3.32-7.97h1l-1.94-.36zm-1.96 5.11-.94-.35-.91 2.4 2.3-1.15zm1.2-.6.9.45 1.34-2.68-2.68 1.34zm-1.8 3.61-.9-.45-.56 1.12 1.21.3zm.6.15-.24.97.6.15.4-.46zm1.36-2.25-.99-.2 1.89.62zm1.2-2.56.9.42.35-.73-.65-.5zm-.6-.45.6-.8-1.27-.95-.31 1.55zm-.76-22.12 1-.03v-.2l-.1-.2zm-1.35-2.86.9-.43-1.86.73zm.75 2.4-.7.72 1.66-1.01zm-.75-.74.7-.71-2.19-2.2.5 3.07zm1.35 8.27h1v-.16zm0 10.53h-1V163l1.56-1.03zm.46-.3.55.83.45-.3v-.53zm0-1.95h1v-.1zm-.3-3.31 1-.1-.01-.03v-.03zm-.6-3.76.97-.22-1.97.37zm1.2 5.56-.98.21 1.97-.3zm-.6-7.07.98-.17-1.98.25zm1.05 6.32-.99.16 1.98-.3zm-1.06-7.52-1 .02v.06l.01.06zM65.4 200.25l-.85-.53v.02l-.02.01zm-3.01 5.26-.87-.5-1.64 2.88 2.95-1.48zm1.5-.75.45.9.12-.06.1-.09zm4.82-9.78.98.2-1.82-.73zm-2.86-2.4-.97.24.66 2.62 1.2-2.42zm.3-.6.9.44.72-1.44h-1.62zm-.45 0v-1h-1.28l.31 1.24zm-7.53 15.04.75.66-1.43-1.4zm-3.77 3.46-.68-.74-1.89 1.74h2.57zm.75 0v1h.46l.3-.34zm.9-.45-.64-.77-.03.03-.02.03zm-9.94 9.78-.7-.72-2.75 2.72 3.72-1.04zm12.81-11.59.62.79.38-.3v-.49zm0-.6h1v-2.15l-1.64 1.39zm3.62-5.11-.45-.9-.12.06-.1.1zm-14.17 12.78v1h.39l.28-.25zm-.9 0v-1h-.53l-.3.44zm-2.56 3.77-.83-.57-1.06 1.57h1.89zm1.96 0v1h.4l.3-.3zm11.75-11.59.7.71zm.75-.75.7.7.05-.03.04-.05zm3.47-4.36.78.62-1.23-1.52zm-3.17 6.92.75.67.06-.08.05-.08zm-5.42 6.01-.76-.65 1.5 1.32zm5.88-6.77.85.52-1.6-1.17zM27.27 246.6h1v-3.66l-1.86 3.15zm-.3 3.16-.9-.46v.01zm13.56-17.15.37.93.21-.09.16-.17zm9.8-10.69.77.63-1.51-1.3zm-3.77 4.67-.56.83.76.5.57-.7zm-.46-.3.56-.84-.74-.49-.58.68zm-16.27 19.1-.76-.64-.06.06-.04.08zm-2.56 4.37h-1v3.68l1.86-3.18zm39.63 66.2.44-.9-.16-.08-.2-.02zm-26.67-12.8-.75.68.02.02.02.01zm-12.2-21.66-.98-.24-.05.23.05.23zm.6-2.4.86-.51-1.24-2.1-.6 2.36zm7.68 12.93.96-.27-.03-.12-.07-.12zm1.2 4.22-.96.27.1.35.3.2zm3.32 2.25-.56.83 2.54 1.73-1.04-2.9zm-2.1-5.86.75-.65-1.7.98zm11.6 7.52.77-.63-.13-.17-.2-.1zm25.46 13.69.17-.98-.11-.02h-.11zm23.05 2.1.1 1 .9-.1v-.9zm0-.14h1v-1h-1zm-36.46-5.87-.45.9h.03l.02.02zm-10.25-8.13.15-.99-2.23-.32 1.25 1.87zm54.24 9.78.24-.97zm14.61 3.01h1v-.94l-.93-.06zm0 .6.06 1 .94-.05v-.95zm-14.91.76-.05-1-.95.05v.95zm0 .9h-1v.9l.9.1zm16.72-.9-.12.99.32.04.29-.16zm1.36-.76-.04-1-.24.01-.2.12zm4.07-.15.03 1 .7-.02.22-.66zm.15-.45.95.32.48-1.45-1.52.14zm-4.97.45-.1-1-.9.09v.91zm0 .76h-1v1.11l1.1-.12zm20.94.3h1v-1h-1zm0 .6.42.9.58-.27v-.63zm-13.71 3.91-.1-1 .1 2zm14.91-1.5.1.99h.08l.07-.02zm9.04-2.26.25.97-.23-1.97zm-8.43-.15h-1v.98l.98.02zm0-.6-.02-1h-.98v1zm13.25-.15.25.97-.26-1.97zm-8.88 2.25-.28-.96.52 1.93zm10.7-3 .26.96.05-.02.05-.01zm1.05-.6.5.86-.7-1.85zm-10.7 2.1-.8.6.38.5.61-.12zm-.45-.6-.09-1-1.79.16 1.08 1.44zm16.27-3.31.36.93.64-.25v-.68zm0-.46v-1h-1v1zm1.2 0v1h.24l.21-.1zm3.02-1.5.45.9.07-.04.07-.06zm4.07-3 .6.8zm3.01-2.26.6.8.4-.3v-.5zm0-.3h1v-1.83l-1.54.98zm-7.08 4.5-.54-.84 1.03 1.72zm11.6-11.73.9.45.1-.21v-.24zm0-1.5h1v-2.1l-1.63 1.32zm-9.34 7.52-.84-.54 1.47 1.32zm4.37-6.77v-1h-.55l-.3.46zm.45 0v1h1v-1zm0-.75-.46-.9-.54.29v.6zm4.97-2.56.46.89.28-.14.14-.28zm2.41-4.51.89.47-1.65-1.12zm-6.02 7.07-.91-.42 1.67 1.07zm3.61-7.83.91.42.1-.2v-.22zm0-.6-.84-.54-.16.25v.3zm3.02-4.66.84.54.05-.09.04-.1zm.75-1.96-.9-.43-.02.04-.01.03zm1.8-3.76.9.44-1.71-1.01zm-4.21 6.02-.96-.29 1.78.86zm1.8-6.02-.8-.58-.1.13-.05.16zm2.72-3.76.81.58.1-.13.05-.17zm1.2-4.06-.83-.56-.08.13-.05.14zm.3-.45.84.55.15-.22.01-.28zm.6-10.84 1 .06.02-.18-.06-.16zm-4.21-13.99.96-.29-.22-.7h-.74zm-.75 0v-1h-1.25l.27 1.22zm3.76 17-.97.22.5 2.29 1.3-1.95zm.3-.45.84.56.16-.25v-.3zm0-2.4h1v-.1l-.02-.1zm-4.67-23.17.98-.2-.5-2.53-1.33 2.21zm-2.26 3.76-.97.24.59 2.34 1.24-2.07zm-.75-3.01.97-.25-.06-.24-.17-.19zm-11.9-12.94.73-.68-1.62 1.14zm10.1 20.31.98-.16v-.03zm1.8-.6.95.31.1-.33-.11-.32zm-.6-1.66.24-.97-1.83-.45.65 1.76zm.6.15-.24.97 2.4.6-1.31-2.1zm-16.42-26.33-.97.26.04.15.08.12zm-.6-2.25.96-.26-.06-.25-.18-.18zm-2.87-3.01-.93.37.07.18.14.14zm-.6-1.5.78-.63-1.7 1zm5.42 6.76-.78.63 1.65-1.13zm-3.16-5.41v-1h-1.74l.88 1.5zm.75 0v1h2.03l-1.24-1.61zm-3.01-3.91-.8-.6-.46.6.47.6zm.45-.6.8.6.6-.8-.8-.6zm-1.8-1.36-.95.34.1.28.24.18zm-.6-1.65.82-.57-1.77.9zm6.17 9.02-.83.57 1.8-.77zm-.6-2.86.78-.61-1.76.82zm8.88 11.29-.78.62.4.5.63-.15zm.6-.15.25.97 1.51-.38-.97-1.22zm-9.48-11.89h-1v.35l.21.28zm0-.9.76-.65-1.76-2.07v2.72zm8.43 9.93.96-.29-.06-.2-.14-.16zm.45 1.5-.95.3.06.2.13.15zm2.57 3.01.96-.28-.06-.2-.14-.17zm1.05 3.61-.96.28.06.22.16.17zm1.36 1.5.94-.33-.07-.19-.13-.14zm.6 1.66.97-.22-.01-.06-.02-.06zm1.2 5.27-.97.22 1.97-.27zm-.15-3.01.95-.34-1.94.39zm1.51 4.21-.94.34 1.93-.46zm-.15-1.2 1-.12-.02-.07-.01-.07zm-.6-2.26.96-.26-.03-.12-.06-.1zm-4.22-7.52.87-.49-.05-.08-.06-.07zM161.82 204l-.92.4.06.13.09.11zm-2.26-5.26-1-.04-.01.22.09.2zm.45-11.29 1 .04.1-2.55-1.8 1.8zm-2.11 2.1-.97-.24-.88 3.5 2.55-2.54zm.9-3.6-.78-.63-.13.17-.06.21zm3.77-4.67v-1h-.48l-.3.38zm1.05 0 .84.55 1-1.55h-1.84zm-3 4.67-.85-.55 1.35 1.4zm2.55-1.5.88.48 1.8-3.22-3.18 1.87zm-2.86 5.1-.87-.48-.12.2-.01.24zm-.9 6.93-.25-.97-1.34.33.74 1.17zm2.86 4.51-.85.54 1.83-.75zm-1.66-7.52h-1v.1l.02.11zm0-6.02-.97-.23-.03.12v.11zm3.77-10.53.53.85.1-.06.07-.08zm1.8-1.8.71.7.09-.08.06-.1zm1.21-1.96-.65-.76-.12.1-.08.13zm4.22-14.6h1v-.12zm-1.2-9.77.95-.3-1.95.42zm.75 2.4-.96.3 1.93-.53zm-1.81-7.67.97-.23-.01-.08-.03-.07zm-17.63-16.25-.28.96h.03l.02.01zm-6.18-1.8.28-.96-.06-.02-.07-.01zm-14.46-2.11.14-.99h-.05l-.06-.01zm-4.37-.15-.55-.83-2.6 1.72 3.12.1zm.9-.6.56.83 1.63-1.08-1.84-.69zm-2.4-.9-.13-1-.23 1.93zm3.61-.46v-1h-.06l-.06.01zm1.36-4.81.98-.19-.3-1.6-1.3 1zm-1.96 1.5-.5.88.58.32.53-.4zM123.4 122l.54.84.25-.16.12-.27zm-.6 3.47.74.66.16-.18.06-.24zm-1.36 1.5.09 1 .39-.04.26-.29zm1.5-3.76v1h.8l.18-.78zm.46-1.96.97.23.27-1.18-1.2-.05zm-4.22-.15.03-1-1.02-.03-.01 1.03zm-.15 20.16 1 .03v-.02zm-.45 17.6 1 .03zm-1.21 44.09-1-.03-.04 1.32 1.28-.32zm1.8-.45.25.97.06-.02.05-.02zm16.88-16.55 1 .09v-.02zm-14.61-27.39h-1v.47l.36.3zm0-1.2.33-.94-1.33-.48v1.42zm17.47 23.17-.96.27 1.96-.4zm-.45-3.61 1-.12-.06-.46-.38-.25zm-.45-.3.56-.83-2.01-1.34.47 2.36zm1.66 8.27 1 .1v-.15l-.02-.14zm-.15 1.66.96.27.03-.1v-.08zm-1.5 5.41-.97-.26 1.88.66zm1.65-3.9.96.27-1.88-.67zm-16.27 14.29.37.92h.03l.03-.02zm-6.03 2.4-.7-.7-.2.19-.07.26zm-.75 2.86-.97-.25-.06.23.05.24zm2.56 34.76.8.6.18-.25.02-.3zm-.46.6-.8-.6-.83 1.1 1.32.45zm.46.15.98-.2-.12-.57-.55-.18zm.75 3.76.93.37.11-.27-.06-.3zm-1.2 3-.64.78 1.05.88.51-1.28zm-.9-.74-1-.13-.07.54.42.35zm.75-6.02.99.12.12-.96-.96-.15zm-4.68-.75.16-1-1.16-.18v1.18zm0 9.78.4.91.6-.25v-.66zm-1.05.45-1-.03-.04 1.56 1.43-.61zm.3-10.54 1 .03.03-1.03h-1.03zm-4.37 0v-1h-1.19l.2 1.18zm1.36 7.83v1h1.19l-.2-1.17zm-.6 0-.99.2.17.8h.81zm-1.21-6.02.98-.2-.15-.77-.79-.03zm-3.47-.15.05-1-1.02-.04-.03 1.02zm-.15 6.92.95.33.05-.15v-.16zm-1.05 3.01-.94-.33-.17.48.29.42zm1.05 1.5-.81.58.34.5.61-.09zm5.43-.75.14 1 .86-.13v-.87zm0-.75.17-.98-1.17-.22v1.2zm4.22.75-.18.99.18.03.18-.04zm6.63-.75-.28.96 2.71.78-1.62-2.31zm-1.06-1.5-.51-.86-.92.55.61.88zm1.5-.9-.01-1h-.27l-.23.13zm22.6.6 1 .05.05-.9-.89-.14zm-4.36 10.83-.13.99h.13zm-53.94-4.07.14-.99-1.14-.16v1.15zm0 .3h-1v.94l.94.06zm35.7 2.26-.06 1zm9.8.6.13-.99h-.07zm12.66 1.66-.13.99.35.05.3-.2zm1.2-.75.53.85.47-.3v-.55zm1.2-13.1.99.2v-.06zm-9.03-3.75.27-.97-.1-.02-.1-.01zm-17.33-1.2-.57-.83-2.32 1.62 2.82.2zm1.5-1.06.08-1-.35-.03-.3.21zm8 .75.04 1 .95-.04v-.96zm0-.6.44-.9-1.45-.72v1.62zm1.2.6-.45.9.21.1h.24zm4.37 0v1l.13-1.99zm-5.58-.75.12-1-.25 1.99zm9.04 1.05.27-.96-.07-.02-.08-.01zm4.82 1.36-.27.96.14.04h.13zm1.66 0v1h2.42l-1.71-1.71zm-.6-.6.7-.71-.29-.3h-.41zm.15-.3.82-.58-.25-.36-.44-.06zm1.8 2.55-.8.58.67.97.84-.84zm.76-.75 1 .1.27-2.79-1.98 1.98zm-.3 3-1-.1-.28 2.8 1.99-1.98zm.75-.74 1-.04-.07-2.3-1.63 1.63zm-1.2 15.04.6.8.4-.3v-.5zm-1.96 1.5v1h.34l.27-.2zm-1.06 0v-1h-1v1zm0 .46h-1v.86l.85.13zm3.02-2.26.94.34-1.83-.81zm-1.2 2.26.23.97.43-.11.21-.4zm-5.58-.75-.17.98.08.01h.09zm-7.08-1.2.16-1h-.1zm-16.88-1.06.06-1h-.02zm-20.34-.75-.12.99h.08zm-15.82-1.96.12-1h-.02zm-11 .6v1h.16l.16-.05zm-4.22 2.1.58-.81-.58-.4-.58.4zm1.66-19.25-.83-.56-.13.2-.03.23zm2.56-3.76.34-.94-.73-.26-.43.64zm7.54 2.7.15 1 .18-1.93zm-1.96.3v1h.15zm-.3 4.52v1h1v-1zm0-3-.08-1-.92.07v.92zm3.76-.3.56-.84-.3-.2-.34.03zm.45.3-.55.83.26.17h.32zm13.72-.3 1 .01.01-1.04-1.04.02zm-.16 8.27-1-.02v.53l.42.3zm1.06.75-.58.81 1.3.93.26-1.57zm1.5-8.73-.26-.96-.61.17-.1.62zm3.32-.9.99-.15-.17-1.11-1.08.3zm1.5 9.93-.98.15v.05l.02.06zm1.21 4.51-.96.26.09.34.27.2zm.6.45-.6.8.27.2h.33zm2.72-6.01h-1v.08zm0-1.2-1-.1v.09zm.75-7.68 1 .1.1-1.07-1.07-.03zm-5.42-.15-.67.75.28.24h.36zm-1.36-1.2v-1H94.7l1.97 1.74zm1.8 0v1h1.23l-.24-1.2zm-.6-3.01-1 .03v.08l.03.08zm-.3-9.03 1-.03-.03-.97h-.97zm-.3 0v-1h-1v1zm0 10.23h-1v.83l.82.15zm5.58 1.05-.19.99 1.2.22-.01-1.21zm-.15-33.85h1v-.66l-.61-.26zm-6.03-2.56.4-.92-1.3-.54-.1 1.4zm-1.5 20.62.99.1v-.03zm-1.51 14.29v1h.9l.1-.9zm-1.06 0-1-.06-.06 1.06h1.06zm1.96-34.6-.83-.56-.15.23-.02.27zm.6-.9.32-.96-.72-.24-.43.64zm4.98 1.65-.32.95.05.01.05.01zm3.91 35.35-1 .02.02.98h.98zm4.67 0v1h1.29l-.32-1.24zm-1.5-6.02v-1h-1.28l.3 1.25zm.45 0 .98-.2-.16-.8h-.82zm1.2 6.02-.98.2.17.8h.81zm3.32 0v1h1.08l-.08-1.08zm.3-28.73.97.25.02-.07V213zm.75-6.92 1 .1.17-1.57-1.5.52zm-5.12 1.8-.33-.94-.67.23v.71zm0 .45h-1v1.27l1.23-.3zm5.12-1.2 1 .12.16-1.42-1.39.33zm-1.5 12.79-1-.12v.12zm0 21.81h-1v1h1zm6.32 0 .5-.87-.23-.13h-.27zm-2.4-32.34h-1v.14l.04.14zm0-3.31-.79-.63-.22.28v.35zm.6-.76.78.63 1.42-1.77-2.27.15zm-4.52.3-.53-.84.6 1.84zm2.4-1.5.54.85.4-.26.06-.48zm.76-6.77 1 .11.13-1.25-1.24.15zm-5.27.6-.63.78.33.26.41-.04zm-.76-.6h-1v.48l.38.3zm0-.75-.12-1-.87.12v.88zm5.88-.75.13.99.81-.1.06-.83zm.15-2.26-1-.11v.04zm1.06-9.33.99.11.01-.13-.02-.12zm-1.51-10.23.99-.14-.05-.33-.23-.24zm-.3-.3-1 .11.04.35.25.25zm-.9-7.97.99-.12-.08-.67-.65-.18zm-3.77-1.06h-1v.76l.73.2zm0-1.2v-1h-1v1zm3.46 0v1h.88l.11-.87zm.3-2.26 1 .13v-.11zm.46-20.3-1-.1v.07zm2.26-24.38 1 .1v-.09zm.75-56.42-1-.12v.11zm1.35-10.98 1 .12v-.07zm.46-9.03 1 .05v-.15zm-.46-4.51-.55-.84-.5.34.06.6zm.46-.3.94-.35-.44-1.2-1.06.71zm.75 9.17h1v-.03zm0 21.97 1 .09v-.09zm-1.8 20-1-.08v.07zm-.76 34.91.95.32.05-.14v-.16zm-.75 2.26-.95-.32-.05.14v.15zm-1.06 36.86.7.7.29-.27.01-.4zm3.47 3-.98-.22v.03zm-.3 1.51-.98-.2-.15.72.64.36zm7.98 7.23-.51.85 2.14 1.3-.67-2.42zm-.75-.46-.7.71.08.09.1.06zm-6.03-6.01.7-.71-.7-.7-.7.7zm-.75.75-.39.92.62.26.47-.47zm-1.81-.75.38-.93-1.38-.57v1.5zm0 7.22h-1v2.4l1.7-1.7zm.45-.45.7.7.3-.29v-.41zm0-6.02.6-.8-1.6-1.21v2zm6.03 17.75.9.45.05-.12.03-.12zm-6.48 8.28v-1h-1v1zm0 .15.91.41.09-.2v-.21zm-.75 1.65.58.82.22-.16.1-.24zm-1.06 1.5h-1v1.7l1.49-.82zm1.36-.75.7-.7-.53-.54-.66.37zm.45.46 1 .1.05-.47-.34-.34zm-.75 6.92-1-.11-.12 1.1h1.12zm1.2 0v1h.97l.03-.97zm1.36-41.23 1 .03v-.03zm0-1.8-1-.02v.02zm.75-38.82 1 .02v-.02zm-1.36-7.52.98-.23-1.95.45zm1.06 4.51-.97.23 1.97-.18zm.15-3 1 .04.01-.25-.1-.22zm-1.06-2.26-.97-.2-.07.32.14.3zm.3-1.5.99.19.1-.56-.41-.38zm-1.65-1.51.41-.91-1.08 1.65zm1.66.75-.42.91 2.14.97-.78-2.21zm-.9-2.56-1-.12-.03.23.08.22zm.45-3.76.99.12v-.1zm-.46.3h-1v1.87l1.56-1.04zm0-.75.7-.7-1.7-1.71v2.4zm1.06-31.9-1-.02zm.6-28.28 1 .02v-.13zm-.6-5.57-.97-.26-.05.18.02.19zm.6-2.25-.82-.58-.1.15-.05.17zm2.41-3.46-.31-.95-.32.1-.19.27zm2.26-.76.32.95.32-.1.2-.3zm2.71-4.06 1 .15-1.83-.7zm-.45 3.01.66.75.27-.24.06-.36zm-3.77 3.31.5.87.09-.05.07-.07zM121 41.52h-1v1h1zm.45 0h1v-1h-1zm0 3.01-.96.3 1.96-.3zm-.45-1.5.95-.29-1.94.13zm-1.06 6.47-.99-.16-.07.44.28.34zm.6.75-.78.63 1.1 1.37.62-1.65zm.45-1.2 1 .03-1.93-.38zm-1.05 28.28-1-.04v.02zm-.75 37.92-1-.03v.17zm-55.3 194.83.41-.91-1.4-.64v1.55zm0 .75h-1v.52l.43.3zm3.02 2.1-.58.83.26.18h.32zm3.31 0v1l.41-1.9zm29.83 3.02.1-1-1.1-.1v1.1zm0 .6h-1v.94l.94.06zm4.82.3-.06 1h.16l.15-.03zm1.2-.3.25.97-.14-1.97zm6.79 6.92v-1h-1v1zm0 .6h-1v1h1zm5.88 0v1h1v-1zm0-.6h1v-1h-1zm-18.69-117.2-.9-.45-.59 1.19 1.31.24zm4.07-1.06h1v-.87l-.86-.12zm-3.31-.45.13-.99-.7-.1-.33.65zm-1.96 23.02.93.37.55-1.37h-1.48zm-.6 0v-1h-1v1zm0 1.5h-1l1.92.38zm1.2-25.27v1h2.77l-2.13-1.77zm-.9 0h-1v1h1zm0-.75.64-.77-1.64-1.36v2.13zm.3 7.52h-1v1h1zm.45 0v1h1v-1zm0-.9h1v-1h-1zm-.45 0v-1h-1v1zm1.2-5.87h-1v.8l.8.18zm3.47.75-.21.98 1.17.25.04-1.2zm.15-4.51-.86-.51-.13.22-.01.26zm.45-.75.86.51.22-.36-.11-.42zm-.45-1.66-.95-.31-.1.28.08.3zm.45-1.35.95.31.26-.78-.72-.4zm-4.07-2.26.49-.87-1.35-.75-.13 1.53zm-.6 6.77-1-.09-.03.4.25.32zm.6.75h1v-.35l-.22-.27zm4.07 3.01v-1h-1.19l.2 1.18zm3.77 0h1v-1h-1zm0 .75.24.98.76-.2v-.78zm-1.81.46-.24-.97-.76.19v.78zm0 1.5h-1v.92l.91.08zm3.47.3h1v-.92l-.92-.07zm0 .45v1h1v-1zm-4.83 0-.98.18.14.82h.84zm0-12.48.23-.98-1.23-.29v1.27zm3.17.75h1v-.8l-.77-.18zm0 .75-.23.97 1.23.3v-1.27zm-3.17-.75h-1v.79l.77.18zm0-6.77v1h1v-1zm-.6 0h-1v1h1zm0-.75v-1h-1v1zm.6 0h1v-1h-1zm4.83 6.01h-1v1.14l1.12-.14zm5.87-.75.98-.2-.18-.9-.93.11zm-5.87 1.5h-1v1.14l1.12-.14zm20.49-74.02.09 1c.55-.05.96-.37 1.23-.68s.47-.7.63-1.08c.3-.76.5-1.71.59-2.6s.06-1.83-.14-2.56a2.4 2.4 0 0 0-.57-1.1 1.5 1.5 0 0 0-1.5-.41l.27.97.26.96a.5.5 0 0 1-.46-.12c-.04-.04.01-.01.07.2.1.42.14 1.1.07 1.87-.06.76-.23 1.5-.44 2.04q-.17.4-.3.52c-.07.09-.04.01.1 0zm.6-6.46-.77-.65c-.54.65-.82.74-.9.75-.1.02-.2 0-.65-.14a3.6 3.6 0 0 0-1.83-.16q-1.15.19-2.53 1.4l.65.75.66.76c.79-.69 1.29-.9 1.59-.95.28-.05.5 0 .86.11.31.1.93.34 1.64.2.74-.15 1.38-.65 2.04-1.43zm-6.03 1.95-.91-.41-1.36 3 .92.42.9.41 1.36-3zm-1.35 3.01-.11-1-4.22.46.1 1 .11.99 4.22-.46zm-4.22.45-1-.01-.45 29.03 1 .02 1 .01.45-29.03zm-.45 29.04h-1v8.88h2v-8.88zm0 8.88-.76.65q.09.12.3.26c.13.08.35.19.63.18.64-.02.91-.53.97-.67q.13-.3.15-.5l.04-.46c.03-.56 0-1.4 0-1.91q0-.44.02-.56c.02-.08.01.06-.1.23a.94.94 0 0 1-1.36.23c-.16-.13-.2-.25-.15-.16l.13.32q.2.48.52 1.61l.96-.28.96-.28q-.34-1.16-.56-1.75a5 5 0 0 0-.37-.76 1 1 0 0 0-.27-.3 1.06 1.06 0 0 0-1.52.25q-.14.23-.16.36l-.05.23a6 6 0 0 0-.05.86c0 .65.03 1.3 0 1.8q0 .18-.02.26-.01.09.02-.03a.9.9 0 0 1 .78-.5c.24 0 .42.09.5.15q.14.09.14.11zm1.35-1.06-.99-.16c-.07.45.1.82.27 1.08q.26.36.59.6a16 16 0 0 0 1.62 1.06c1.29.77 3 1.77 4.83 3.24 3.64 2.93 7.74 7.73 9.42 16.2l.99-.2.98-.2c-1.79-9-6.2-14.19-10.13-17.36-1.96-1.57-3.8-2.64-5.07-3.4a15 15 0 0 1-1.54-1.03l-.04-.04s.1.15.06.38zm16.72 21.82-.98.15c.79 5.17-.3 9.1-2.48 12.34-2.22 3.28-5.62 5.94-9.58 8.48l.54.84.54.84c4.02-2.57 7.7-5.4 10.16-9.04 2.48-3.68 3.66-8.1 2.8-13.76zm-12.5 21.81.1 1a8 8 0 0 0 2.9-1c.97-.5 1.97-1.15 2.93-1.83s1.9-1.4 2.73-2.05q1.28-1 2.15-1.61l-.56-.83-.57-.82c-.63.43-1.41 1.04-2.24 1.68s-1.75 1.34-2.67 2-1.84 1.25-2.7 1.7q-1.31.68-2.17.77zm10.25-6.32.67.74c2.69-2.45 4.2-5.05 4.86-7.73.66-2.66.43-5.33-.24-7.87s-1.79-5-2.97-7.28q-.9-1.72-1.78-3.3a108 108 0 0 1-1.61-3l-.9.46-.89.45q.77 1.47 1.65 3.06.88 1.57 1.76 3.25a34 34 0 0 1 2.8 6.86c.62 2.33.8 4.64.24 6.9-.55 2.24-1.84 4.5-4.27 6.72zm-1.96-27.98.7-.7-7.98-7.98-.7.7-.72.71 7.99 7.98zm-7.99-7.97-.31.95c4.24 1.38 7.39 5 9.75 9.44 2.35 4.44 3.83 9.57 4.8 13.75l.98-.22.97-.23c-.98-4.24-2.51-9.57-4.98-14.23s-5.95-8.8-10.9-10.41zm15.22 23.92-.98.2c1.02 4.83-1.24 8.74-5.35 12.13-4.13 3.42-9.95 6.15-15.6 8.56l.38.92.4.92c5.64-2.4 11.72-5.23 16.1-8.85 4.4-3.64 7.26-8.24 6.03-14.09zm-21.55 21.81-.37-.93c-1.21.49-1.78 1.72-2.01 2.7a6 6 0 0 0-.16 1.52c.01.46.09.96.3 1.37l.89-.45.9-.44a2 2 0 0 1-.1-.54q0-.46.11-1c.18-.76.52-1.18.81-1.3zm-1.35 4.21.78-.62-.6-.75-.79.62-.78.63.6.75zm-.6-.75h-1c0 1.26.25 2.53.59 3.93.35 1.45.78 2.98 1.24 4.97.89 3.9 1.78 9.31 1.78 17.58h2c0-8.43-.91-14-1.83-18.03-.45-1.98-.92-3.66-1.25-5a15 15 0 0 1-.54-3.45zm3.61 26.48h-1v7.67h2v-7.67zm0 7.67.05 1c3.06-.14 6.28.26 9.87.77 3.56.5 7.45 1.11 11.72 1.34l.06-1 .05-1c-4.16-.22-7.96-.81-11.55-1.32-3.58-.51-6.98-.94-10.25-.78zm21.7 2.11-.05 1c1.38.07 2.31.38 2.95.82a3.3 3.3 0 0 1 1.29 1.8c.53 1.65.33 4-.2 6.88l.98.18.98.19c.53-2.85.85-5.68.14-7.87a5.3 5.3 0 0 0-2.06-2.83 7.6 7.6 0 0 0-3.98-1.17zm4.97 10.68-1-.01-.15 8.72 1 .02 1 .02.15-8.73zm-.15 8.73-1-.1c-.09.86-.36 1.12-.56 1.24-.28.16-.8.24-1.7.14s-1.95-.33-3.22-.59a34 34 0 0 0-4.14-.63l-.08 1-.08.99c1.37.1 2.68.35 3.9.6 1.2.25 2.39.5 3.4.62.99.1 2.05.1 2.92-.4.95-.55 1.42-1.52 1.55-2.76zm-10.7 1.05.06-1c-12.86-.74-24.9-2.25-40.26-2.7l-.03 1-.03 1c15.38.45 27.14 1.94 40.2 2.7zm-40.23-2.7.09-1q-3.3-.3-6.58-.73c-2.18-.27-4.38-.55-6.57-.74-4.37-.38-8.79-.42-13.23.59l.23.97.22.98c4.15-.95 8.32-.92 12.61-.55q3.2.3 6.5.73 3.27.44 6.65.74zm-26.06-.9.12-1c-.79-.1-1.38.38-1.71.7-.35.33-.73.81-1.04 1.16-.71.84-1.27 1.3-1.9 1.3v2c1.64 0 2.75-1.21 3.42-2 .4-.45.64-.77.9-1.01.28-.27.27-.14.08-.17zm-4.52 3.15-.13-.99c-.26.03-.37-.02-.42-.05-.06-.04-.17-.14-.28-.4a8 8 0 0 1-.3-3.1c.09-2.96.76-7.16 1.37-12.03l-1-.13-.99-.12c-.6 4.75-1.28 9.13-1.38 12.22a10 10 0 0 0 .45 3.92c.22.52.55 1.01 1.07 1.33.52.34 1.12.42 1.74.34zm-.76-16.7 1 .15c.48-3.17 1.04-5.14 1.69-6.32q.47-.84.91-1.12.42-.3.98-.34c.84-.07 1.92.24 3.5.8 1.5.55 3.36 1.31 5.51 1.93l.27-.97.28-.96c-2.06-.59-3.8-1.3-5.38-1.87-1.52-.56-3-1.03-4.33-.93q-1.06.07-1.98.7-.9.65-1.52 1.8c-.82 1.5-1.42 3.76-1.92 6.98zm13.86-5.87-.04 1 14.77.6.04-1 .04-1-14.76-.6zm14.77.6 1 .05 1.66-34.15-1-.05-1-.04-1.66 34.15zm1.66-34.15.96-.27q-.16-.56-.1-1.22.01-.34.05-.7l.07-.78c.03-.52.02-1.13-.18-1.75q-.29-.96-1.21-1.76l-.65.77-.64.76c.35.3.51.58.6.84q.12.4.08 1.03l-.06.69q-.04.36-.06.8c-.03.56-.02 1.2.18 1.87zm-1.06-5.71.62-.8c-5.3-4.11-9.95-9.64-11.54-17.46l-.98.2-.98.2c1.72 8.43 6.73 14.34 12.27 18.65zm-11.9-18.06.99-.17c-.56-3.28.17-7.97 2.15-12.62 1.98-4.63 5.15-9.09 9.33-11.96l-.57-.82-.56-.83c-4.57 3.14-7.95 7.94-10.04 12.83-2.08 4.87-2.93 9.96-2.29 13.74zm11.9-25.57.98.23c.14-.62.39-.94.58-1.08q.29-.21.56-.15c.34.07.85.47.8 1.4l1 .05 1 .05c.1-1.78-.97-3.19-2.44-3.46-.72-.14-1.5.03-2.13.52a3.8 3.8 0 0 0-1.32 2.2zm3.92.45.97.24a1.1 1.1 0 0 0-.48-1.18 1.2 1.2 0 0 0-.74-.15 3 3 0 0 0-.76.22c-.49.19-1.13.52-1.8.9-1.29.77-2.9 1.9-3.71 2.98l.8.6.8.6c.54-.73 1.86-1.7 3.13-2.45a13 13 0 0 1 1.52-.78l.23-.08H97a1 1 0 0 1-.36-.12.95.95 0 0 1-.43-1.03zm-5.73 3.6-.9-.42-1.06 2.26.91.42.9.43 1.06-2.26zm-1.05 2.26.7-.7-.3-.3-.7.7-.7.71.3.3zm-.3-.3.9.44 1.96-4.06-.9-.44-.9-.43-1.96 4.06zm1.96-4.06-.6-.8-2.25 1.65.59.8.59.81 2.26-1.65zm-2.26 1.66-.66-.75c-5.22 4.57-9.57 14.23-8.32 23.6l1-.13.98-.14c-1.16-8.69 2.93-17.68 7.66-21.83zM81.8 185.2l-.89.45 6.03 11.88.89-.45.9-.45-6.04-11.89zm6.03 11.88.94-.35-3.02-8.12-.93.35-.94.34 3.01 8.13zm-3.01-8.12.95.3 1.05-3.31-.95-.3-.95-.3-1.06 3.3zm1.05-3.31-1 .07c.48 6.78 4.1 12.55 8.24 17.15l.75-.67.74-.67c-4-4.44-7.3-9.8-7.73-15.95zm7.99 16.55.99.1 1.36-12.18-1-.11-1-.11-1.35 12.19zm1.35-12.2.86-.5c-2.48-4.1-3.2-5.36-3.2-7.06.02-.89.23-1.93.66-3.58.42-1.63 1.03-3.8 1.75-6.82l-.97-.24-.98-.23c-.7 3-1.3 5.11-1.74 6.78a18 18 0 0 0-.71 4.07c-.02 2.4 1.13 4.22 3.48 8.1zm-.9-18.2.72.7 3.01-3.16-.72-.7-.72-.69-3.02 3.16zm3.01-3.16 1 .05 1.96-45.44-1-.04-1-.04-1.96 45.43zm1.96-45.43.62-.78c-1.25-1-2.96-1.15-4.6-.96-1.67.19-3.47.75-5.14 1.39-3.31 1.28-6.33 3.03-6.7 3.22l.45.89.45.9c.53-.27 3.32-1.9 6.52-3.14 1.6-.62 3.22-1.11 4.65-1.27q2.19-.24 3.13.53zm-15.37 3.76.34.94 6.33-2.25-.34-.95-.34-.94-6.32 2.26zm6.33-2.26-.9-.44-.15.3.9.44.9.45.14-.3zm-.15.3v1c.26 0 .58-.07.82-.14l.98-.28 2.4-.77c.84-.25 1.57-.45 2.06-.53.28-.05.34-.03.29-.04a.7.7 0 0 1-.43-.29.8.8 0 0 1-.15-.72l.96.27.96.28a1.17 1.17 0 0 0-.93-1.5 3 3 0 0 0-1.02.02c-.64.1-1.5.35-2.32.6l-2.41.77-.9.26-.31.07zm6.93-1.5-.55-.83c-.28.18-.73.33-1.57.52-.78.17-1.9.38-3.24.71-2.75.68-6.63 1.9-12.12 4.73l.45.89.46.89a53 53 0 0 1 11.69-4.57c1.33-.32 2.31-.5 3.2-.7a7 7 0 0 0 2.23-.8zM80 129.54l-.92.37c.18.47.59.64.84.7.24.05.46.02.62 0a6 6 0 0 0 1.05-.29c.75-.26 1.77-.68 2.85-1.11 2.24-.9 4.85-1.85 6.93-1.98l-.07-1-.06-1c-2.44.16-5.34 1.24-7.54 2.12q-1.71.7-2.77 1.09-.52.18-.68.2h.09c.12.04.44.15.6.53zm11.3-3.31.11 1 6.93-.76-.1-1-.11-.99-6.93.75zm6.93-.75.8.6.9-1.2-.8-.6-.8-.6-.9 1.2zm.9-1.2-.99-.05-.9 20 1 .05 1 .05.9-20.01zm-.9 20 .85.54 3.62-5.72-.85-.53-.84-.54-3.62 5.72zm3.62-5.72 1 .04.3-7.67-1-.04-1-.04-.3 7.68zm.3-7.67.9.45.75-1.5-.9-.45-.89-.45-.75 1.5zm.75-1.5-.62.78.75.6.63-.78.62-.78-.75-.6zm.76.6h1c0-.25-.07-.67-.13-1.08l-.28-1.67a45 45 0 0 1-.5-4.52l-1 .05-1 .04c.08 1.71.32 3.41.53 4.74l.27 1.68.09.55.02.16v.05zm-.9-7.22 1 .08 3.16-37.16-1-.08-1-.09-3.16 37.16zm3.16-37.16.98.18 1.96-10.23-.98-.18-.98-.2-1.96 10.24zm1.96-10.23 1 .07 2.4-32.5-1-.07-.99-.08-2.41 32.5zm2.4-32.5 1-.11-.75-6.77-1 .1-.99.12.75 6.77zm-.75-6.77.05-1-3-.15-.06 1-.05 1 3.02.15zm-3-.15-1-.08c-.23 2.82-.2 5.75-.27 8.59a43 43 0 0 1-.92 8.56l.98.23.97.22c.7-3.03.9-6.04.97-8.96.07-2.95.03-5.73.26-8.48zm-1.21 17.3-1-.05-2.26 44.68 1 .05 1 .05 2.25-44.68zm-2.26 44.68-.6-.8-.6.45.6.8.6.8.6-.45zm-.6.45 1-.04-.3-6.32-1 .05-1 .04.3 6.32zm-.3-6.31-.72-.71-.3.3.71.7.7.71.3-.3zm-.3.3-1 .05c.29 5.63-.6 12.88-1.21 20.33l1 .08 1 .08c.59-7.3 1.5-14.79 1.2-20.6zm-1.22 20.46-.89.45.3.6.9-.45.9-.45-.31-.6zm.3.6-.77-.63-.6.76.77.62.78.63.6-.75zm-.6.75-1-.08-.3 3.76 1 .08 1 .08.3-3.76zm-.3 3.76-.44.9.6.3.44-.9.45-.9-.6-.3zm.6.3h-1v1.96h2v-1.96zm0 1.96.64-.77-.9-.75-.64.77-.64.77.9.75zm-.9-.75-1-.1-.3 3.32 1 .09 1 .09.3-3.31zm-.3 3.3.81-.57a5 5 0 0 0-2.18-1.58 10 10 0 0 0-2.8-.6c-1.92-.17-4.04.1-5.47.81l.45.9.45.89c.98-.5 2.7-.75 4.4-.61.83.07 1.61.23 2.24.48q.95.39 1.29.87zm-9.2-1.05h1v-.45h-2v.45zm0-.45-.23-.97-1.81.45.24.97.24.98 1.81-.46zm-1.8.45h1v-.6h-2v.6zm0-.6.25.97a10 10 0 0 0 1.44-.45q.13-.06.28-.16c.06-.03.3-.2.42-.53a1 1 0 0 0-.35-1.17 1 1 0 0 0-.45-.21c-.3-.07-.73-.07-1.1-.05a50 50 0 0 0-5.01.62q-.85.14-1.51.32c-.38.1-.83.23-1.13.42l.53.84.53.85q-.04.03.13-.05l.44-.12q.55-.15 1.37-.3a48 48 0 0 1 4.74-.58c.42-.02.57 0 .55 0l-.1-.04-.2-.12a1 1 0 0 1-.32-1.09c.1-.3.32-.43.32-.43l.04-.02c-.12.05-.45.16-1.12.33zm-6.63.6-.17-.98c-3.26.55-7.48 2.35-11.5 4.75-4.04 2.4-7.99 5.49-10.64 8.68l.77.64.77.64c2.46-2.97 6.2-5.9 10.12-8.24s7.9-4 10.82-4.5zm-21.54 13.1-.77-.65c-2 2.4-3.68 6.32-4.77 9.5-.56 1.6-.98 3.06-1.24 4.1q-.2.8-.27 1.28-.04.24-.03.5l.03.21q.02.12.17.38a1 1 0 0 0 1.4.25l-.55-.83-.55-.84a.98.98 0 0 1 1.48.58l.02.13.01-.1q.05-.32.23-1.08c.24-.98.65-2.38 1.19-3.93 1.08-3.15 2.66-6.76 4.41-8.87zm-6.03 14.74-.97-.26c-3.56 13.14.18 24.26 5.83 34l.87-.5.86-.5c-5.5-9.5-9-20.05-5.62-32.48zm5.73 33.25-.88.49 4.22 7.52.87-.49.88-.49-4.22-7.52zm4.21 7.52.98.23c.66-2.85.2-5.58-.64-8.4-.42-1.4-.95-2.87-1.49-4.39a105 105 0 0 1-1.64-4.84c-2.08-6.84-3.49-15.7.44-28.96l-.96-.28-.96-.28c-4.06 13.68-2.6 22.94-.43 30.1a107 107 0 0 0 1.67 4.94q.84 2.28 1.45 4.29c.8 2.69 1.15 5.02.61 7.36zm-3.31-46.64.89.46 2.56-4.97-.89-.45-.89-.46-2.56 4.96zm2.56-4.97.74.68c3.16-3.46 7.28-7.83 11.94-11.2 4.67-3.4 9.73-5.67 14.8-5.18l.1-1 .09-.99c-5.78-.56-11.34 2.05-16.17 5.55s-9.07 8-12.24 11.47zM91 122.02l-.84-.53c.06-.1.08 0-.46.1-.48.08-1.06.1-1.84.17-1.43.13-3.39.4-4.8 1.81l.71.71.7.71c.86-.85 2.14-1.1 3.57-1.23.65-.06 1.41-.1 2-.2.54-.1 1.37-.3 1.81-1zm-7.23 2.26-.7-.7c-2.83 2.82-5.94 5.11-9.44 8.08a69 69 0 0 0-11 11.58l.8.6.8.6a66 66 0 0 1 10.7-11.25c3.35-2.86 6.65-5.3 9.55-8.2zm-20.34 19.56-.93-.36-3.47 9.03.94.36.93.36 3.46-9.03zm-3.46 9.03h-1v1.5h2v-1.5zm0 1.5v1h.3v-2h-.3zm.3 0 .93.36 3.62-9.32-.94-.37-.93-.36-3.62 9.33zm3.61-9.33.8.62 4.66-6.02-.79-.61-.79-.62-4.67 6.02zm4.67-6.01.67.74 1.35-1.2-.66-.75-.66-.75-1.36 1.2zm1.36-1.2-.83.55.3.45.83-.56.83-.55-.3-.45zm.3.44-.75-.66-3.31 3.76.75.66.75.67 3.31-3.76zm-3.31 3.77-.8-.62c-1.37 1.78-2.8 4.79-4.02 7.9a63 63 0 0 0-2.8 9.06l.99.2.97.21a61 61 0 0 1 2.7-8.74c1.2-3.09 2.56-5.87 3.75-7.4zm-6.63 16.54-1-.12c-.32 2.55.3 5.77 1.27 8.77a35 35 0 0 0 3.71 8l.84-.55.83-.54a33 33 0 0 1-3.48-7.53c-.94-2.9-1.45-5.78-1.18-7.9zm4.82 16.1-.89.47 3.47 6.62.88-.47.89-.46-3.47-6.62zm3.46 6.62.82-.57c-4.15-5.93-7.83-13.13-8.71-22.69l-1 .1-1 .09c.93 10 4.8 17.54 9.07 23.65zm-8.89-23.17-1-.09c-.16 1.78.2 4.39.75 7.26.57 2.91 1.38 6.2 2.2 9.4.83 3.22 1.66 6.32 2.27 8.89q.47 1.92.73 3.34.26 1.43.23 2l1 .05 1 .03a13 13 0 0 0-.26-2.44 68 68 0 0 0-.75-3.45c-.62-2.59-1.46-5.73-2.28-8.91a164 164 0 0 1-2.17-9.3c-.57-2.87-.86-5.23-.72-6.68zm6.18 30.85-.96-.3-.45 1.51.96.29.96.29.45-1.5zm-.45 1.5.24.97a.8.8 0 0 1-.8-.23c-.06-.08-.05-.12-.02-.02q.08.26.15.92c.07.86.03 1.89-.1 2.53l.98.2.98.19c.18-.87.21-2.1.13-3.08-.04-.49-.11-1-.24-1.39a2 2 0 0 0-.36-.66 1.2 1.2 0 0 0-1.2-.4zm.45 4.36-.31.95c.69.23 1.29-.08 1.64-.37.37-.28.7-.7.97-1.1a22 22 0 0 0 1.54-2.87c.48-1 .83-1.77 1.07-2.13.06-.1.06-.08 0-.04a1 1 0 0 1-.28.16.9.9 0 0 1-1.08-.45l-.03-.1-.01-.02v.07l.01.19h2q0-.34-.05-.65-.02-.15-.12-.36c-.06-.13-.2-.35-.45-.5-.65-.37-1.2.07-1.3.16-.16.14-.29.32-.37.45-.33.5-.77 1.47-1.2 2.37-.45.95-.93 1.92-1.39 2.6q-.35.52-.55.66c-.13.1-.02-.05.23.03zm4.52-5.71h-1q0 .34-.14 1.05-.15.7-.36 1.53a16 16 0 0 0-.55 3.28h2c0-.68.22-1.68.5-2.8l.37-1.6c.1-.5.18-1.02.18-1.46zm-1.05 5.86-1-.07c-.35 4.85-2.94 8.58-6.46 12.58-3.47 3.94-7.87 8.16-11.32 13.75l.85.52.85.53c3.33-5.4 7.51-9.38 11.12-13.48 3.57-4.06 6.55-8.22 6.95-13.75zm-17.93 26.78-.81-.58c-7.75 10.77-12.86 23.17-12.55 33.26l1-.03 1-.03c-.29-9.47 4.55-21.44 12.17-32.03zm-12.36 32.65-1-.05c-.76 14.21 3.52 30.96 12.5 45.41l.86-.52.85-.53c-8.8-14.14-12.95-30.48-12.2-44.25zm12.36 44.84-.57.82c3.18 2.2 7.63 2.8 12.09 3.25 4.57.46 9.24.76 13.32 2.14l.32-.95.32-.94c-4.36-1.48-9.33-1.79-13.76-2.24-4.54-.45-8.46-1.04-11.15-2.9zm25.16 5.26-.13 1c9.58 1.19 18.18 3.43 26.44 5.48 8.25 2.05 16.17 3.92 24.27 4.3l.04-1 .05-1c-7.87-.37-15.62-2.19-23.87-4.24-8.24-2.04-16.96-4.32-26.68-5.53zm50.62 9.78-.04 1c3.4.16 7.57-.75 11.7-1.78 4.2-1.05 8.36-2.23 11.99-2.74l-.14-1-.14-.98c-3.76.53-8.1 1.76-12.2 2.78-4.16 1.04-8.05 1.87-11.12 1.72zm23.5-4.51.4.92c2.93-1.25 5.5-1.9 8.1-2.59s5.24-1.37 8.19-2.69l-.41-.9-.4-.92a48 48 0 0 1-7.88 2.58 56 56 0 0 0-8.38 2.68zm16.28-5.27.4.92 1.05-.45-.4-.92-.39-.92-1.06.45zm1.05-.45h1v-.15h-2v.15zm0-.15.56.83q.56-.37 1.25-.68t1.55-.79l-.5-.87-.49-.86c-.49.28-.94.48-1.42.72q-.73.32-1.5.82zm2.87-1.5-.87-.5q-.6 1.05-2.69 2a32 32 0 0 1-4.89 1.6q-1.36.37-2.76.7t-2.71.67c-1.73.44-3.38.94-4.61 1.55l.45.9.44.9a23 23 0 0 1 4.22-1.42l2.68-.66q1.4-.33 2.8-.7a34 34 0 0 0 5.2-1.72c1.5-.68 2.88-1.57 3.6-2.82zm-18.08 6.92-.3-.96a173 173 0 0 1-10.44 2.86c-3.24.8-6.4 1.57-9.74 2.55l.29.96.28.96c3.29-.97 6.39-1.71 9.66-2.53 3.26-.8 6.67-1.68 10.54-2.89zm-20.2 5.41-.08 1 13.71 1.2.09-1 .08-.99-13.7-1.2zm13.72 1.2.29.96c1.34-.4 3.21-.93 5.31-1.53s4.4-1.26 6.6-1.95 4.3-1.41 5.98-2.12q1.28-.52 2.21-1.07a5 5 0 0 0 1.5-1.2l-.8-.6-.8-.6c-.1.13-.37.36-.9.68q-.78.45-1.98.95c-1.6.67-3.64 1.37-5.81 2.05a213 213 0 0 1-6.55 1.94c-2.08.6-3.98 1.12-5.34 1.54zm21.1-7.52.22.98c2.07-.5 3.1-2.25 3.7-3.53l.39-.94q.16-.44.29-.72l.1-.23.04-.07-.04.04-.12.1a.8.8 0 0 1-.57.09l.2-.98.2-.98c-.7-.14-1.13.34-1.27.53-.16.22-.29.49-.38.7l-.31.78-.36.85c-.54 1.2-1.23 2.15-2.33 2.41zm4.2-5.26.78.63 1.36-1.65-.78-.64-.77-.63-1.35 1.65zm1.37-1.66.54.84c2.87-1.88 4.7-4.83 6.05-7.71a66 66 0 0 0 1.75-4.24q.76-2.03 1.44-3.5l-.9-.43-.9-.44c-.5 1.06-1 2.34-1.5 3.66a64 64 0 0 1-1.7 4.1c-1.3 2.77-2.93 5.3-5.33 6.89zm8.88-15.04.95.33 1.2-3.46-.94-.33-.94-.33-1.21 3.46zm1.21-3.46-.93.37.3.75.93-.37.93-.37-.3-.75zm.3.75-.97-.23-.9 3.76.97.23.97.24.9-3.77zm-.9 3.76-.97.24c.41 1.65.28 2.65-.1 3.46-.4.9-1.13 1.67-2.22 2.84l.73.68.73.69c1.01-1.09 2.01-2.12 2.59-3.37.6-1.33.7-2.82.2-4.78zm-2.56 7.22-.78-.62-.6.75.77.63.78.62.6-.75zm-.6.75v1h.6v-2h-.6zm.6 0 .65.76 3.31-2.86-.65-.75-.65-.76-3.32 2.86zm3.31-2.85-.96.28.46 1.5.95-.28.96-.29-.45-1.5zm.45 1.5-1-.03c-.06 1.86-1.15 4.33-3.36 7.12a46 46 0 0 1-9.47 8.64l.57.82.58.82a48 48 0 0 0 9.89-9.04c2.31-2.92 3.7-5.8 3.8-8.3zm-13.26 16.55-.6-.8c-3.88 2.88-8.68 4.34-13.36 5.3-2.34.47-4.61.8-6.72 1.13a57 57 0 0 0-5.64 1.08l.26.96.26.97c1.48-.4 3.32-.7 5.43-1.03 2.09-.33 4.41-.67 6.8-1.16 4.78-.97 9.92-2.5 14.17-5.65zm-26.06 7.67-.25-.97c-8.62 2.23-21.16 2.98-34.76 3.74l.05 1 .06 1c13.52-.76 26.3-1.51 35.15-3.8zm-34.96 3.76-.03-1c-14.8.45-28.51-2.53-38.84-4.05l-.15 1-.14.98c10.16 1.5 24.16 4.53 39.2 4.07zm-39.02-4.06.2-.98c-6.41-1.35-13.96-2.95-20.82-5.88s-12.93-7.13-16.47-13.63l-.88.48-.87.48c3.84 7.05 10.35 11.5 17.43 14.5 7.07 3.03 14.82 4.66 21.2 6.01zm-37.97-20 .68-.75a3 3 0 0 0-.42-.32c-.13-.08-.36-.2-.63-.23a1.1 1.1 0 0 0-1.05.51c-.2.32-.2.64-.18.8.03.33.17.69.32 1q.25.52.7 1.2c1.18 1.76 3.53 4.4 7.36 7.3l.6-.8.61-.79c-3.7-2.8-5.87-5.29-6.91-6.83q-.39-.58-.55-.94c-.13-.26-.14-.35-.14-.32 0 0 .03.21-.12.45a.9.9 0 0 1-.83.42c-.17-.02-.26-.09-.23-.07l.12.1zm7.39 8.72-.55.84c14.05 9.15 27.07 10.98 41.32 13.98l.2-.98.21-.98c-14.38-3.02-26.97-4.8-40.64-13.7zm40.98 13.84-.15.99c9.96 1.5 21.14 2.86 32.17 3.62l.07-1 .07-1a401 401 0 0 1-32.01-3.6zm32.09 3.61v1c13.65 0 35.9-3.02 48.8-6.81l-.29-.96-.28-.96c-12.7 3.73-34.76 6.73-48.23 6.73zm48.51-6.77.26.97c11.08-2.92 22.18-11.57 24.38-23.5l-.98-.19-.99-.18c-2.01 10.93-12.3 19.14-22.92 21.93zm23.66-22.72 1-.06-.3-4.52-1 .07-1 .07.3 4.5zm-.3-4.51.7.7c2.98-2.96 3.9-7.05 4.66-12.45l-1-.14-.98-.13c-.76 5.43-1.64 8.87-4.09 11.31zm4.37-11.89-.76-.65-5.28 6.17.76.65.76.65 5.28-6.17zm-5.28 6.17v-1h-.15v2h.15zm-.15 0 .92.4 3.62-8.43-.92-.4-.92-.39-3.62 8.43zm3.62-8.42.9.41c1.6-3.48 2.1-8 2.26-9.7l.05-.5.01-.13-.03.13-.06.13a1 1 0 0 1-1.74.06 1 1 0 0 1-.13-.38v.49c.02.93.04 3 .15 6.66l1-.03 1-.03c-.11-3.64-.13-5.7-.14-6.63l-.03-.7-.01-.1a1 1 0 0 0-.13-.32 1 1 0 0 0-1.8.2l-.05.18-.03.26-.05.51c-.17 1.72-.65 5.93-2.08 9.07zm2.4-2.86-.62.78.76.6.62-.78.63-.78-.76-.6zm.76.6 1 .12.45-3.6-1-.13-.99-.12-.45 3.6zm.46-3.61v1h.3v-2h-.3zm.3 0h-1v1.5h2v-1.5zm0 1.5.7.71c.38-.37.58-.9.7-1.36q.2-.75.27-1.64c.1-1.18.07-2.56-.02-3.83a28 28 0 0 0-.4-3.3 5 5 0 0 0-.3-1.06q-.06-.12-.19-.3a1.05 1.05 0 0 0-1.6-.06c-.15.16-.22.33-.25.41l.93.35.94.36s-.04.12-.16.24a.95.95 0 0 1-1.46-.11l-.02-.03.01.03.04.13.1.43a28 28 0 0 1 .38 6.57q-.06.79-.2 1.29c-.1.36-.18.47-.18.47zm-.16-10.08-.97-.22-1.8 7.82.97.23.97.22 1.81-7.82zm-1.8 7.83 1 .1c.12-1.3-.05-3.4-.37-5.81a120 120 0 0 0-3.36-15.92c-.66-2.26-1.35-4.2-2-5.23l-.85.53-.84.53c.48.77 1.1 2.44 1.77 4.73a119 119 0 0 1 3.3 15.63c.32 2.4.45 4.3.35 5.34zm-5.58-26.33.93-.37c-3.06-7.8-10.37-20.56-21.63-31.35l-.7.72-.68.73c11.03 10.57 18.19 23.08 21.15 30.63zm-21.4-31 .89-.47-5.73-10.53-.88.47-.88.48 5.73 10.53zm-5.72-10.53.97.25.15-.6-.97-.25-.97-.24-.15.6zm.15-.6.88-.49-2.11-3.76-.88.5-.87.48 2.11 3.76zm-2.1-3.76h1v-6.92h-2v6.92zm0-6.92.95.3 1.2-3.92-.95-.3-.96-.29-1.2 3.91zm1.2-3.91.85.53.75-1.2-.85-.53-.84-.54-.76 1.2zm.75-1.2 1 .12.6-4.82-1-.12-.99-.12-.6 4.81zm.6-4.82.94.37c1.2-3.04 2.22-3.76 3.65-5.42 1.48-1.72 3.11-4.17 5.25-10.42l-.94-.33-.95-.32c-2.08 6.09-3.61 8.3-4.88 9.77-1.32 1.54-2.64 2.55-4 5.98zm8.9-15.8-.49.88 1.36.75.48-.87.49-.88-1.36-.75zm1.35.75.84.56c2.67-4.05 3.08-9.05 2.02-13.93a32 32 0 0 0-6.92-13.6l-.76.65-.76.65c3.14 3.65 5.5 8.2 6.49 12.72.98 4.53.55 8.93-1.74 12.4zm-4.82-26.32-.6.8 2.41 1.8.6-.8.6-.8-2.41-1.8zm2.41 1.8-.7.7 1.95 1.97.7-.71.72-.71-1.96-1.96zm1.96 1.96.93-.37-.6-1.5-.93.36-.93.38.6 1.5zm-.6-1.5.77-.64c-2.9-3.52-7.45-6.97-12.37-9.79s-10.29-5.04-14.86-6.05l-.21.98-.22.97c4.32.95 9.5 3.09 14.3 5.84s9.13 6.06 11.81 9.32zm-26.67-15.5.55.83.45-.3-.55-.83-.55-.84-.46.3zm.45-.3-.13.99 5.57.75.13-1 .14-.98-5.58-.75zm5.57.75-.24.97c4.06 1.01 8.76 3.65 11.27 5.41l.58-.82.57-.81c-2.61-1.85-7.55-4.63-11.93-5.72zm11.6 5.56-.7.71 2.71 2.71.7-.7.72-.72-2.72-2.7zm2.72 2.71.83.56.3-.45-.83-.56-.83-.55-.3.45zm.3-.45.6-.8-3.9-3-.62.8-.6.78 3.91 3.01zm-3.92-3-.57.81 3.92 2.71.57-.82.57-.82-3.92-2.71zm3.92 2.7-.73.68 5.87 6.32.74-.68.73-.68-5.88-6.32zm5.88 6.32.92-.37-.6-1.5-.93.37-.93.37.6 1.5zm-.6-1.5-.76.65 1.05 1.2.76-.65.75-.66-1.05-1.2zm1.05 1.2.93-.35-.45-1.2-.94.34-.93.36.45 1.2zm-.45-1.2-.71.7.45.45.7-.7.71-.71-.45-.45zm.45.45-.93.37.3.75.93-.37.93-.37-.3-.76zm.3.75.51-.86-.75-.45-.51.86-.52.86.76.45zm-.75-.45.85-.52c-3-4.98-5.48-7.47-8.72-9.22a37 37 0 0 0-5.34-2.23c-2.02-.71-4.3-1.46-7.08-2.5l-.36.93-.35.93c2.8 1.06 5.15 1.83 7.13 2.53 1.99.7 3.6 1.32 5.05 2.1 2.82 1.52 5.08 3.7 7.96 8.5zm-4.98 62.89.93-.39-1.81-4.36-.93.38-.92.38 1.81 4.37zm-1.8-4.37.92.37.6-1.5-.92-.37-.93-.37-.6 1.5zm.6-1.5v-1h-1.2v2h1.2zm-1.2 0h1v-3.16h-2v3.16zm0-3.16.83-.55-2.26-3.46-.84.55-.83.54 2.25 3.47zm-2.27-3.46-1 .06.46 7.37 1-.06 1-.06-.46-7.37zm.46 7.37.85-.52-.45-.75-.86.52-.85.51.45.75zm-.46-.75-.92.38 2.26 5.42.92-.39.93-.38-2.26-5.42zm2.26 5.41.7.71.16-.15-.7-.7-.71-.71-.15.15zm.15-.15.32.95.45-.15-.31-.95-.32-.95-.45.16zm.46-.15-.84.56.6.9.84-.55.83-.56-.6-.9zm.6.9.12 1 1.2-.15-.12-1-.12-.99-1.2.15zm-3.47-13.38.78.62.6-.75-.77-.63-.78-.62-.6.75zm.6-.76.86-.51-.45-.75-.86.51-.85.52.45.75zm-.45-.75-1-.1-.14 1.5 1 .1.99.1.15-1.5zm.6-1.5-.7.7.45.46.7-.71.72-.7-.46-.46zm.46.45h1v-.75h-2v.75zm0-.75-.56-.84-.45.3.56.84.55.83.45-.3zm5.27-8.13-.79-.61-5.12 6.62.79.61.79.61 5.12-6.62zm-5.12 6.62.54.84c1.2-.76 2.37-2 3.33-3.26a16 16 0 0 0 2.2-3.86l-.95-.34-.94-.34c-.33.93-1.03 2.16-1.91 3.33s-1.9 2.2-2.81 2.79zm8.28-12.79-.87-.48-1.81 3.31.88.48.88.48 1.8-3.3zm-1.8 3.31-.78-.62-1.81 2.25.78.63.78.63 1.8-2.26zm-1.81 2.26-.87-.49-.76 1.36.88.48.87.49.75-1.35zm-.75 1.35.69.73 3.16-3.01-.69-.72-.69-.73-3.16 3zm3.16-3 .96.27.6-2.1-.96-.28-.96-.28-.6 2.11zm.6-2.11.95.32.6-1.81-.94-.32-.95-.31-.6 1.8zm1.2 0-.84-.53-1.2 1.96.84.52.85.53 1.2-1.96zm-1.2 1.95.56.84 1.8-1.2-.55-.84-.55-.83-1.81 1.2zm1.81-1.2.78-.62-.6-.76-.78.63-.78.62.6.76zm0-2.56.6.8.6-.45-.6-.8-.6-.8-.6.45zm.6-.45.9-.45-.15-.3-.9.45-.9.45.16.3zm-.15-.3-.85-.51-.46.75.86.51.86.52.45-.75zm3.32-7.97-.94-.36-1.96 5.12.94.35.93.36 1.96-5.12zm-1.96 5.11.45.9 1.2-.6-.45-.9-.44-.9-1.2.6zm1.2-.6-.89-.45-1.8 3.61.89.45.89.45 1.8-3.61zm-1.8 3.61-.25.97.6.15.25-.97.24-.97-.6-.15zm.6.15.75.66a9 9 0 0 0 1.95-4.46c.26-1.54.26-3.13.26-4.47h-2c0 1.37 0 2.79-.23 4.14a7 7 0 0 1-1.49 3.48zm1.36-2.25.9.42 1.2-2.56-.9-.42-.9-.43-1.21 2.56zm1.2-2.56.6-.8-.6-.45-.6.8-.6.8.6.45zm-.6-.45-.98-.2-.6 3 .97.2.98.2.6-3zm-.76-22.12.9-.43-1.35-2.86-.9.43-.9.43 1.35 2.86zm-1.35-2.86-.96.3.76 2.4.95-.3.96-.29-.76-2.4zm.75 2.4.7-.7-.75-.75-.7.7-.7.71.75.76zm-.75-.74-.99.16 1.36 8.27.98-.16 1-.16-1.37-8.28zm1.35 8.27h-1v10.53h2V150.6zm0 10.53.56.84.45-.3-.55-.84-.56-.83-.45.3zm.46-.3h1v-1.95h-2v1.95zm0-1.95 1-.1-.3-3.3-1 .09-1 .09.3 3.3zm-.3-3.31.98-.16-.6-3.76-.99.16-.98.15.6 3.76zm-.6-3.76-.99.2 1.21 5.57.98-.2.97-.22-1.2-5.57zm1.2 5.56 1-.08-.6-7.07-1 .08-1 .08.6 7.08zm-.6-7.07-1 .16 1.06 6.32.99-.16.99-.17-1.06-6.31zm1.05 6.32.99-.14-1.06-7.52-.98.14-1 .14 1.06 7.52zm-1.06-7.52 1-.03-.15-5.57-1 .03-1 .03.16 5.56zM65.4 200.25l-.87-.5-3.01 5.27.87.5.86.5 3.02-5.27zm-3.01 5.26.44.9 1.5-.75-.44-.9-.44-.9-1.51.76zm1.5-.75.66.75a15 15 0 0 0 3.4-4.94 26 26 0 0 0 1.74-5.39l-.98-.2-.98-.2a24 24 0 0 1-1.6 4.96 13 13 0 0 1-2.9 4.27zm4.82-9.78-.84-.53-3.32 5.27.85.53.85.53 3.31-5.26zm-2.86-2.4.9.44.3-.6-.9-.44-.9-.45-.3.6zm.3-.6v-1h-.45v2h.45zm-.45 0-.97.24.15.6.97-.24.97-.25-.15-.6zm-7.53 15.04-.68-.74-3.77 3.46.68.74.68.74 3.76-3.46zm-3.77 3.46v1h.75v-2h-.75zm.75 0 .76.66 3.01-3.46-.75-.66-.76-.66-3.01 3.46zm.9-.45-.7-.71-9.94 9.78.7.7.7.72 9.95-9.78zm-9.94 9.78.27.96c.9-.25 1.74-.84 2.55-1.56s1.7-1.66 2.68-2.7c1.98-2.11 4.45-4.77 7.93-7.5l-.62-.79-.62-.78c-3.6 2.83-6.17 5.6-8.15 7.7-1 1.06-1.82 1.93-2.55 2.58-.74.65-1.3 1-1.75 1.13zm12.81-11.59h1v-.6h-2v.6zm0-.6-.64-.76-2.87 2.4.65.77.64.76 2.86-2.4zm3.62-5.11-.67-.75-14.17 12.8.67.73.67.75 14.17-12.8zm-14.17 12.78v-1h-.9v2h.9zm-.9 0-.83-.56-2.56 3.76.83.57.83.56 2.56-3.76zm-2.56 3.77v1h1.96v-2H44.9zm1.96 0 .7.7 11.75-11.58-.7-.7-.7-.72-11.75 11.58zm11.75-11.59.7.7.76-.74-.7-.71-.71-.7-.76.74zm.75-.75.79.62 3.46-4.36-.78-.62-.78-.63-3.47 4.37zm3.47-4.36-.45-.9-.3.15.45.9.44.9.3-.16zm-3.17 6.92-.74-.67-5.42 6.01.74.67.74.67 5.43-6.01zm-5.42 6.01.76.66 5.87-6.77-.75-.66-.76-.65-5.88 6.77zm5.88-6.77-.86-.51-.45.75.85.52.86.51.45-.75zM27.27 246.6l-.86-.51c-1.02 1.72-1.5 3.3-1.48 4.26.01.22.05.6.27.91a1.2 1.2 0 0 0 1.42.4c.34-.13.58-.4.73-.6q.27-.35.51-.85l-.9-.45-.88-.45a4 4 0 0 1-.32.53c-.1.13-.07.05.09-.02a.84.84 0 0 1 .99.3c.12.17.1.3.1.17-.02-.4.25-1.6 1.2-3.18zm-.3 3.16.89.45c1.7-3.31 4.3-7.25 6.85-10.5a46 46 0 0 1 3.62-4.16 10 10 0 0 1 2.57-2.01l-.37-.93-.37-.93a11 11 0 0 0-3.24 2.45 48 48 0 0 0-3.79 4.35 72 72 0 0 0-7.05 10.82zm13.56-17.15.74.67 9.79-10.68-.74-.68-.73-.67-9.8 10.68zm9.8-10.69-.79-.62-3.76 4.66.78.63.77.63 3.77-4.67zm-3.77 4.67.55-.83-.45-.3-.56.83-.55.83.45.3zm-.46-.3-.76-.65-16.27 19.1.76.66.76.64 16.28-19.1zm-16.27 19.1-.86-.5-2.56 4.36.86.5.86.51 2.56-4.36zm-2.56 4.37h1v-3.16h-2v3.16zM68.4 316.7l.45-.9-1.5-.75-.45.9-.45.9 1.5.74zm-1.5-.75.09-1c-9.38-.88-20.17-6.62-26.06-12.5l-.7.7-.7.72c6.16 6.16 17.37 12.14 27.27 13.07zm-26.67-12.8.74-.66c-5.22-5.81-10.21-13.18-11.97-21.21l-.98.21-.97.22c1.86 8.51 7.1 16.2 12.43 22.12zm-12.2-21.66.96.25.6-2.41-.96-.24-.97-.25-.6 2.41zm.6-2.4-.86.5 7.68 12.95.86-.52.86-.5-7.68-12.94zm7.68 12.93-.96.28 1.2 4.21.97-.27.96-.28-1.2-4.21zm1.2 4.22-.56.82 3.32 2.26.56-.83.56-.82-3.31-2.26zm3.32 2.25.94-.34-2.1-5.86-.95.34-.94.33 2.11 5.87zm-2.1-5.86-.77.64c2.72 3.2 7.16 5.4 11.92 7.77l.44-.9.45-.89c-4.89-2.44-8.89-4.45-11.29-7.27zm11.6 7.52-.79.62c6.13 7.65 16.2 14.54 26.3 14.07l-.05-1-.05-1c-9.2.43-18.7-5.92-24.64-13.32zm25.46 13.69-.18.99c8.57 1.5 17.3 2.73 23.33 2.11l-.1-1-.1-.99c-5.72.59-14.17-.59-22.78-2.1zm23.05 2.1h1v-.14h-2v.15zm0-.14v-1c-10.99 0-23.62-.46-36.07-5.8l-.4.93-.39.92c12.86 5.5 25.84 5.95 36.86 5.95zm-36.46-5.87.44-.9a35 35 0 0 1-5.96-3.89 21 21 0 0 1-3.9-3.9l-.83.56-.83.56a22 22 0 0 0 4.3 4.34 37 37 0 0 0 6.33 4.12zm-10.25-8.13-.14 1c18.54 2.7 31 4.2 54.15 9.75l.23-.97.23-.97c-23.25-5.58-35.8-7.09-54.32-9.8zm54.24 9.78-.23.98c4.88 1.18 10 2.72 14.78 3.03l.06-1 .07-1c-4.56-.29-9.39-1.75-14.44-2.98zm14.61 3.01h-1v.6h2v-.6zm0 .6-.05-1-14.91.76.05 1 .05 1 14.92-.76zm-14.91.76h-1v.9h2v-.9zm0 .9-.1 1c2.24.23 5.4-.17 8.4-.52 3.11-.36 6.1-.67 8.3-.4l.12-.98.13-1c-2.48-.32-5.74.05-8.77.4-3.13.36-6 .71-7.97.5zm16.72-.9.49.87 1.35-.75-.48-.88-.49-.87-1.35.75zm1.36-.76.04 1 4.06-.15-.03-1-.04-1-4.07.15zm4.07-.15.95.32.15-.45-.95-.32-.95-.31-.15.45zm.15-.45-.1-1-4.96.46.09 1 .09.99 4.97-.45zm-4.97.45h-1v.15h2v-.15zm0 .15h-1v.6h2v-.6zm0 .6.1 1c3.31-.37 7.01-.3 10.66-.13 3.61.17 7.21.44 10.18.44v-2c-2.9 0-6.39-.26-10.09-.44-3.66-.17-7.5-.24-10.96.14zm20.94.3h-1v.6h2v-.6zm0 .6-.43-.9a50 50 0 0 1-7.76 2.75c-2.59.7-4.69 1.07-5.52 1.07v2c1.13 0 3.46-.45 6.04-1.14 2.61-.7 5.61-1.7 8.1-2.87zm-13.71 3.92.1 1 14.91-1.51-.1-1-.1-.99-14.91 1.5zm14.91-1.5.25.97 9.04-2.26-.25-.97-.24-.97-9.04 2.25zm9.04-2.26.02-1-8.44-.15-.01 1-.02 1 8.44.15zm-8.43-.15h1v-.6h-2v.6zm0-.6v1l13.27-.15-.01-1-.02-1-13.25.15zm13.25-.15-.24-.97-8.89 2.25.25.97.24.97 8.9-2.25zm-8.88 2.25.27.97 10.7-3.01-.28-.97-.27-.96-10.7 3.01zm10.7-3 .49.86 1.05-.6-.5-.87-.49-.87-1.05.6zm1.05-.6-.2-.99-10.7 2.1.2.99.2.98 10.7-2.1zm-10.7 2.1.8-.6-.45-.6-.8.6-.8.6.45.6zm-.45-.6.09 1 10.1-.91-.1-1-.09-1-10.09.91zm10.1-.9.36.93 6.17-2.41-.36-.93-.36-.94-6.18 2.41zm6.17-2.41h1v-.46h-2v.46zm0-.46v1h1.2v-2h-1.2zm1.2 0 .45.9 3.02-1.5-.45-.9-.45-.9-3.01 1.51zm3.02-1.5.6.8 4.06-3-.6-.8-.59-.81-4.07 3zm4.07-3 .6.8 3.01-2.26-.6-.8-.6-.8-3.01 2.25zm3.01-2.26h1v-.3h-2v.3zm0-.3-.54-.85-7.08 4.51.54.85.54.84 7.08-4.51zm-7.08 4.5.5.88c3.72-2.13 6.08-3.84 7.84-5.72s2.87-3.87 4.16-6.44l-.9-.45-.9-.44c-1.27 2.54-2.27 4.3-3.82 5.96-1.56 1.67-3.72 3.26-7.38 5.35zm11.6-11.73h1v-1.5h-2v1.5zm0-1.5-.63-.78-9.34 7.52.63.78.63.78 9.34-7.52zm-9.34 7.52.84.54 4.37-6.77-.84-.54-.84-.54-4.37 6.77zm4.37-6.77v1h.45v-2h-.45zm.45 0h1v-.75h-2v.75zm0-.75.46.89 4.97-2.56-.46-.89-.45-.89-4.98 2.56zm4.97-2.56.88.47 2.42-4.51-.89-.47-.88-.47-2.4 4.5zm2.41-4.51-.76-.65-6.02 7.07.76.65.76.65 6.02-7.07zm-6.02 7.07.9.42 3.62-7.83-.9-.42-.91-.41-3.62 7.82zm3.61-7.83h1v-.6h-2v.6zm0-.6.84.54 3.02-4.66-.84-.54-.84-.54-3.02 4.66zm3.02-4.66.93.36.75-1.96-.93-.36-.93-.36-.76 1.96zm.75-1.96.9.44 1.8-3.76-.9-.44-.9-.43-1.8 3.76zm1.8-3.76-.81-.57-4.22 6.02.82.57.82.57 4.22-6.01zm-4.21 6.02.96.29 1.8-6.02-.95-.29-.96-.29-1.8 6.02zm1.8-6.02.82.59 2.71-3.76-.81-.59-.81-.59-2.71 3.77zm2.72-3.76.96.28 1.2-4.06-.96-.28-.96-.29-1.2 4.07zm1.2-4.06.84.55.3-.45-.84-.55-.83-.56-.3.45zm.3-.45 1 .05.6-10.83-1-.06-.99-.05-.6 10.83zm.6-10.84.97-.28-4.22-14-.96.3-.96.28 4.22 14zm-4.21-13.99v-1h-.75v2h.75zm-.75 0-.98.22 3.77 17 .97-.22.98-.21-3.77-17zm3.76 17 .83.56.3-.45-.83-.56-.83-.55-.3.45zm.3-.45h1v-2.4h-2v2.4zm0-2.4.98-.2-4.67-23.17-.98.2-.98.2 4.67 23.16zm-4.67-23.17-.85-.52-2.26 3.76.85.52.86.51 2.26-3.76zm-2.26 3.76.97-.25-.75-3-.97.24-.97.24.75 3.01zm-.75-3.01.74-.68-11.9-12.94-.74.68-.74.68 11.9 12.94zm-11.9-12.94-.9.46a80 80 0 0 0 2.38 4.1c.95 1.57 2 3.3 3.03 5.13 2.07 3.66 3.96 7.52 4.6 10.81l.98-.19.98-.2c-.7-3.62-2.74-7.73-4.82-11.4a187 187 0 0 0-3.06-5.19 78 78 0 0 1-2.3-3.98zm10.1 20.31-1 .16c.1.63.12 1.34.13 1.97v.85c0 .2 0 .5.06.73q.01.11.12.3a1.04 1.04 0 0 0 1.47.39q.23-.16.3-.27c.16-.21.3-.54.41-.82.26-.65.66-1.8 1.26-3.6l-.95-.31-.95-.32a79 79 0 0 1-1.35 3.8q-.06.1 0 .02.01-.04.22-.19a.96.96 0 0 1 1.34.35q.07.16.07.19v-1.13c0-.65-.02-1.48-.15-2.28zm1.8-.6.94-.34-.6-1.66-.94.34-.94.34.6 1.66zm-.6-1.66-.25.97.6.15.25-.97.24-.97-.6-.15zm.6.15.85-.53-16.42-26.33-.85.53-.85.53 16.42 26.33zm-16.42-26.33.96-.25-.6-2.26-.97.26-.96.26.6 2.25zm-.6-2.25.72-.7-2.86-3-.73.69-.72.69 2.86 3zm-2.87-3.01.93-.37-.6-1.5-.93.36-.93.38.6 1.5zm-.6-1.5-.78.62 5.42 6.77.78-.62.78-.63-5.42-6.77zm5.42 6.76.87-.5-3.17-5.42-.86.5-.86.51 3.16 5.42zm-3.16-5.41v1h.75v-2h-.75zm.75 0 .8-.61-3.02-3.91-.8.6-.78.62 3.01 3.9zm-3.01-3.91.8.6.45-.6-.8-.6-.8-.6-.45.6zm.45-.6.6-.8-1.8-1.36-.6.8-.6.8 1.8 1.35zm-1.8-1.36.93-.34-.6-1.66-.94.35-.94.34.6 1.65zm-.6-1.65-.84.56 6.18 9.03.83-.57.82-.56-6.17-9.03zm6.17 9.02.98-.2-.6-2.86-.98.2-.98.21.6 2.86zm-.6-2.86-.79.62 8.89 11.29.78-.62.79-.62-8.89-11.28zm8.88 11.29.25.97.6-.15-.24-.97-.25-.97-.6.15zm.6-.15.79-.63-9.5-11.88-.78.62-.78.63 9.5 11.88zm-9.48-11.89h1v-.9h-2v.9zm0-.9-.77.65 8.44 9.93.76-.65.76-.65-8.43-9.93zm8.43 9.93-.96.29.46 1.5.95-.29.96-.28-.45-1.5zm.45 1.5-.76.65 2.56 3.01.77-.65.76-.65-2.56-3zm2.57 3.01-.96.28 1.05 3.61.96-.28.96-.28-1.05-3.6zm1.05 3.61-.74.67 1.35 1.5.75-.66.74-.67-1.36-1.5zm1.36 1.5-.94.35.6 1.66.94-.35.94-.34-.6-1.65zm.6 1.66-.97.23 1.2 5.26.97-.22.98-.22-1.2-5.27zm1.2 5.27 1-.05-.15-3.01-1 .05-1 .05.16 3zm-.15-3.01-.94.34 1.5 4.2.95-.33.94-.33-1.5-4.22zm1.51 4.21 1-.12-.16-1.2-.99.12-1 .12.16 1.2zm-.15-1.2.97-.26-.6-2.26-.97.26-.97.26.6 2.26zm-.6-2.26.87-.49-4.22-7.52-.87.49-.87.49 4.22 7.52zm-4.22-7.52.76-.64-16.42-19.56-.76.64-.77.64 16.42 19.56zM161.82 204l.92-.4-2.27-5.26-.91.4-.92.39 2.26 5.27zm-2.26-5.26 1 .03.45-11.28-1-.04-1-.04-.45 11.29zm.45-11.29-.7-.7-2.12 2.1.7.7.72.72 2.1-2.11zm-2.11 2.1.97.25.9-3.61-.97-.24-.97-.25-.9 3.61zm.9-3.6.78.63 3.77-4.67-.78-.63-.78-.62-3.76 4.66zm3.77-4.67v1h1.05v-2h-1.05zm1.05 0-.84-.54-3 4.66.83.55.84.54 3.01-4.66zm-3 4.67.5.86 2.56-1.5-.5-.87-.51-.86-2.57 1.5zm2.55-1.5-.87-.5-2.86 5.12.87.49.87.49 2.86-5.12zm-2.86 5.1-1-.04-.3 6.77 1 .05 1 .04.3-6.77zm-.3 6.78-.24-.97-.6.15.24.97.24.97.6-.15zm-.6.15-.85.53 2.86 4.52.85-.54.84-.53-2.86-4.52zm2.86 4.51.97-.21-1.65-7.53-.98.22-.98.21 1.66 7.53zm-1.66-7.52h1v-6.02h-2v6.02zm0-6.02.97.23c.3-1.26.93-3.68 1.64-5.87.35-1.1.72-2.1 1.06-2.88q.26-.6.46-.92c.16-.25.22-.28.17-.24l-.53-.85-.53-.85c-.36.22-.62.59-.8.89q-.3.5-.6 1.16c-.38.87-.77 1.96-1.13 3.08a86 86 0 0 0-1.68 6.02zm3.77-10.53.7.7 1.81-1.8-.7-.7-.71-.71-1.8 1.8zm1.8-1.8.86.52 1.2-1.96-.85-.52-.85-.53-1.2 1.96zm1.21-1.96.65.76c3.38-2.87 4.57-7.5 4.57-15.36h-2c0 7.8-1.22 11.59-3.87 13.84zm4.22-14.6 1-.12-1.21-9.78-1 .13-.99.12 1.2 9.78zm-1.2-9.77-.96.3.75 2.4.96-.3.95-.3-.75-2.4zm.75 2.4.97-.23-1.8-7.67-.98.23-.97.23 1.8 7.67zm-1.81-7.67.93-.38c-2.3-5.64-4.7-9.37-7.68-11.94s-6.43-3.9-10.65-4.9l-.23.97-.23.97c4.07.97 7.17 2.2 9.8 4.47 2.64 2.28 4.9 5.7 7.13 11.19zm-17.63-16.25.28-.96-6.18-1.8-.28.96-.28.96 6.18 1.8zm-6.18-1.8.15-1-14.47-2.1-.14.99-.14.99 14.46 2.1zm-14.46-2.11.03-1-4.37-.15-.03 1-.03 1 4.37.15zm-4.37-.15.56.83.9-.6-.55-.83-.56-.84-.9.6zm.9-.6.36-.94-2.41-.9-.36.93-.35.94 2.41.9zm-2.4-.9.12.99 3.61-.45-.12-1-.12-.99-3.62.45zm3.61-.46v1q1.06 0 1.77-.73a3 3 0 0 0 .74-1.59c.2-1.1.06-2.45-.17-3.68l-.98.19-.99.18a9 9 0 0 1 .17 2.94c-.06.35-.16.52-.23.6-.04.04-.1.1-.31.1zm1.36-4.81-.61-.8-1.96 1.51.6.8.62.79 1.95-1.5zm-1.96 1.5.49-.87c-1.03-.57-1.98-.86-2.86-.7a2.8 2.8 0 0 0-1.91 1.39c-.38.6-.62 1.35-.83 2-.22.7-.4 1.3-.63 1.84l.92.4.91.4c.3-.66.51-1.42.7-2.04.22-.67.4-1.18.63-1.55.21-.35.39-.44.55-.47.22-.04.68 0 1.54.48zM123.4 122l-.55-.83a4.6 4.6 0 0 0-1.7 1.67c-.33.67-.27 1.3-.04 1.81.2.44.53.8.66.95l.1.13s-.12-.21-.05-.5l.97.24.97.24c.12-.45-.06-.81-.16-.99s-.23-.33-.31-.43c-.22-.24-.3-.35-.36-.46-.01-.03-.02-.03.01-.1.07-.13.3-.44 1-.89zm-.6 3.47-.75-.67-1.36 1.5.75.67.74.67 1.36-1.5zm-1.36 1.5-.1-1h-.01l-.06-.02a1 1 0 0 1-.23-.18c-.2-.21-.36-.53-.44-.85-.08-.34-.03-.54.01-.6l.05-.06a1 1 0 0 1 .33-.05v-2c-.93 0-1.7.38-2.12 1.11a2.8 2.8 0 0 0-.21 2.06c.15.63.47 1.26.91 1.75a2.4 2.4 0 0 0 1.96.84zm-.45-3.76v1h1.95v-2H121zm1.95 0 .98.22.45-1.95-.97-.23-.98-.22-.45 1.95zm.46-1.96.03-1-4.22-.15-.03 1-.04 1 4.22.15zm-4.22-.15h-1l-.15 20.16h1l1 .01.15-20.16zm-.15 20.16-1-.02-.45 17.6 1 .03 1 .02.45-17.6zm-.45 17.6-1-.02-1.21 44.08 1 .03 1 .03 1.2-44.09zm-1.21 44.09.24.97 1.81-.45-.24-.97-.25-.97-1.8.45zm1.8-.45.36.93c4.11-1.55 8.3-4.1 11.53-7.12 3.23-3 5.65-6.6 5.99-10.27l-1-.1-1-.08c-.26 2.95-2.28 6.12-5.35 8.98-3.04 2.85-7 5.26-10.87 6.72zm16.88-16.55 1 .07c.79-11.31-5.69-20.47-14.97-28.22l-.64.76-.64.77c9.1 7.6 14.98 16.19 14.25 26.55zm-14.61-27.39h1v-1.2h-2v1.2zm0-1.2-.34.94c7.56 2.7 13.43 10.02 16.85 22.5l.97-.27.96-.26c-3.51-12.8-9.69-20.84-18.1-23.85zm17.47 23.17 1-.12-.45-3.61-1 .12-.99.12.45 3.61zm-.45-3.61.56-.83-.46-.3-.55.83-.55.83.45.3zm-.45-.3-.98.2 1.66 8.27.98-.2.98-.2-1.66-8.27zm1.66 8.27-1-.09-.15 1.66 1 .09 1 .09.14-1.66zm-.15 1.66-.97-.27-1.5 5.42.96.26.96.27 1.51-5.41zm-1.5 5.41.91.4 1.66-3.92-.92-.39-.92-.39-1.66 3.92zm1.65-3.9-.96-.28c-1.82 6.43-7.84 9.87-15.75 13.66l.44.9.43.9c7.76-3.72 14.7-7.5 16.8-14.91zm-16.27 14.29-.37-.93c-1.1.44-2.37.83-3.54 1.24q-.87.3-1.59.61c-.43.2-.91.45-1.24.78l.7.7.72.71c.05-.05.23-.18.64-.36q.58-.26 1.43-.55c1.08-.38 2.46-.81 3.62-1.28zm-6.03 2.4-.97-.25-.75 2.86.97.25.96.26.76-2.86zm-.75 2.86-.98.22c2.54 11.34 3.29 18.62 2.54 34.49l1 .05 1 .04c.75-16.02 0-23.48-2.59-35.02zm2.56 34.76-.8-.6-.45.6.8.6.8.6.45-.6zm-.46.6-.31.95.45.15.32-.95.31-.95-.45-.15zm.46.15-.98.2.75 3.76.98-.2.98-.2-.75-3.76zm.75 3.76-.93-.37-1.2 3 .92.38.93.37 1.2-3zm-1.2 3 .63-.76-.9-.75-.64.77-.64.76.9.76zm-.9-.74.98.12.76-6.02-1-.12-.99-.13-.75 6.02zm.75-6.02.15-.99-4.67-.75-.16.99-.16.98 4.68.75zm-4.68-.75h-1v9.78h2v-9.78zm0 9.78-.39-.92-1.05.45.39.92.4.92 1.05-.46zm-1.05.45 1 .02.3-10.53-1-.03-1-.02-.3 10.53zm.3-10.54v-1h-4.37v2h4.37zm-4.37 0-.98.18 1.35 7.82.99-.17.98-.17-1.35-7.83zm1.36 7.83v-1h-.6v2h.6zm-.6 0 .97-.2-1.2-6.02-.98.2-.98.2 1.2 6.01zm-1.21-6.02.04-1-3.46-.15-.05 1-.04 1 3.47.15zm-3.47-.15-1-.02-.15 6.92 1 .02 1 .02.15-6.92zm-.15 6.92-.94-.33-1.05 3 .94.34.94.33 1.06-3zm-1.05 3.01-.82.57 1.05 1.5.82-.57.82-.57-1.05-1.5zm1.05 1.5.14 1 5.43-.76-.14-.99-.14-.99-5.42.75zm5.43-.75h1v-.75h-2v.75zm0-.75-.18.98 4.22.76.18-.99.17-.98-4.22-.75zm4.22.75.18.98h.06l.18-.04 2.64-.44a35 35 0 0 1 2.98-.3l.31.01.28-.96.27-.96a3 3 0 0 0-.86-.1q-.45 0-.98.05c-.7.06-1.52.17-2.3.28l-2.05.34-.65.11-.18.04h-.07zm6.63-.75.81-.57-1.05-1.5-.82.56-.82.58 1.06 1.5zm-1.06-1.5.51.85 1.51-.9-.51-.86-.52-.86-1.5.9zm1.5-.9.02 1c8.5-.16 15-.6 22.43.58l.16-.99.16-.98c-7.65-1.22-14.4-.77-22.78-.62zm22.6.6-1-.06c-.18 3.6-.2 6.08-.2 7.77q-.01 1.26-.04 1.95c-.02.5-.05.72-.08.8l.07-.1a1 1 0 0 1 .25-.15c.07-.03.06 0-.27-.05-.57-.1-1.6-.33-3.1-.33v2c1.3 0 2.12.2 2.77.3.28.05.73.12 1.14 0q.38-.1.69-.42.26-.32.35-.63.17-.57.18-1.34.03-.77.03-2.02c.01-1.68.03-4.12.22-7.67zm-4.36 10.83.13-1c-6.9-.9-17.3-1.47-27.5-2.03-10.23-.57-20.23-1.13-26.43-2.03l-.14 1-.14.98c6.3.91 16.41 1.48 26.6 2.04 10.23.57 20.54 1.13 27.35 2.03zm-53.94-4.07h-1v.3h2v-.3zm0 .3-.06 1 35.7 2.26.07-1 .06-1-35.7-2.25zm35.7 2.26-.05 1 9.79.6.06-1 .06-1-9.8-.6zm9.8.6-.13 1 12.66 1.65.13-1 .13-.98-12.66-1.66zm12.66 1.66.53.85 1.2-.75-.53-.85-.53-.85-1.2.75zm1.2-.75h1c0-5.51.15-7.4 1.19-12.9l-.98-.2-.99-.18a56 56 0 0 0-1.22 13.28zm1.2-13.1 1 .14a2.9 2.9 0 0 0-1.05-2.8c-.73-.6-1.73-.9-2.68-1.1-.97-.2-2.08-.31-3.11-.44a21 21 0 0 1-2.92-.52l-.27.97-.27.96c1.02.28 2.15.44 3.2.57 1.1.14 2.1.25 2.97.42q1.33.28 1.81.68c.25.2.4.46.34 1zm-9.03-3.75.07-1-17.33-1.2-.07 1-.07.99 17.33 1.2zm-17.33-1.2.57.81 1.51-1.05-.57-.82-.58-.82-1.5 1.05zm1.5-1.06-.07 1c.94.07 1.96.28 3.36.48 1.36.2 2.93.35 4.75.27l-.05-1-.04-1c-1.65.07-3.09-.07-4.37-.25-1.24-.18-2.48-.42-3.5-.5zm8 .75h1v-.6h-2v.6zm0-.6-.45.9 1.2.6.45-.9.44-.9-1.2-.6zm1.2.6v1H135v-2h-4.37zm4.37 0 .13-.99-5.57-.75-.14.99-.13.99 5.57.75zm-5.58-.75-.11 1 9.04 1.05.11-1 .12-1-9.04-1.04zm9.04 1.05-.27.97 4.82 1.35.27-.96.27-.97-4.82-1.35zm4.82 1.36v1h1.66v-2h-1.66zm1.66 0 .7-.71-.6-.6-.7.7-.7.71.6.6zm-.6-.6v-1a10 10 0 0 1-2.38-.33l-.07-.02.06.03c.02.02.12.08.21.2a.97.97 0 0 1-.3 1.46c-.17.1-.3.1-.24.09h.16c.39 0 1.19.07 2.58.25l.13-.99.13-.99a27 27 0 0 0-3.18-.27c-.07.01-.3.03-.51.15a1.03 1.03 0 0 0-.32 1.56q.17.19.28.24l.18.1c.31.14.86.26 1.4.35a12 12 0 0 0 1.87.16zm.15-.3-.82.57 1.81 2.56.82-.58.81-.58-1.8-2.55zm1.8 2.55.71.7.76-.74-.7-.71-.72-.7-.75.74zm.76-.75-1-.1-.3 3 1 .1 1 .1.3-3zm-.3 3 .7.72.76-.76-.7-.7-.71-.71-.76.75zm.75-.74-1 .03c.07 2.12-.2 2.93-.53 4.77-.33 1.86-.67 4.55-.67 10.24h2c0-5.6.33-8.17.64-9.88.31-1.74.64-2.8.56-5.2zm-1.2 15.04-.61-.8-1.96 1.51.6.8.62.79 1.96-1.5zm-1.96 1.5v-1h-1.06v2h1.06zm-1.06 0h-1v.46h2v-.45zm0 .46-.15.99c1.14.17 2.1.03 2.84-.65.65-.59.98-1.48 1.27-2.26l-.94-.34-.94-.34c-.32.87-.51 1.26-.74 1.46-.12.12-.36.28-1.18.15zm3.02-2.26-.89-.47-1.2 2.26.88.47.88.47 1.2-2.26zm-1.2 2.26-.25-.97a3 3 0 0 1-.8-.02q-.63-.08-1.42-.25c-.98-.21-2.22-.52-3.11-.52v2c.61 0 1.56.23 2.69.47q.8.19 1.6.29c.48.06 1.04.09 1.52-.03zm-5.58-.75.16-1-7.08-1.2-.16 1-.17.98 7.08 1.2zm-7.08-1.2.06-1-16.88-1.06-.06 1-.06 1 16.87 1.05zm-16.88-1.06.04-1-20.34-.75-.04 1-.04 1 20.34.75zm-20.34-.75.12-1-15.82-1.95-.12.99-.12 1 15.82 1.95zm-15.82-1.96.1-1a45 45 0 0 0-6.1-.04c-1.1.06-2.15.15-3.06.26-.9.1-1.7.25-2.25.43l.31.95.32.95q.54-.18 1.86-.35a51 51 0 0 1 8.72-.2zm-11 .6v-1c-.76 0-1.37.34-1.82.69-.43.33-.83.77-1.12 1.06-.33.35-.52.5-.65.56q-.05.02 0 .01c.03 0 .02.02-.05-.03l-.58.82-.57.82q.46.33 1.03.39.57.02 1-.19c.52-.23.95-.67 1.26-.98.35-.37.61-.66.9-.88.28-.21.46-.27.6-.27zm-4.22 2.1-.58-.8a.85.85 0 0 1 1.18.22l.06.11-.03-.17-.02-.5c-.01-.83.08-2.17.26-3.92.35-3.5 1.03-8.48 1.78-14.06l-.99-.13-.99-.13c-.75 5.56-1.43 10.58-1.8 14.12-.17 1.75-.28 3.2-.26 4.15 0 .46.03.93.15 1.28.05.15.2.53.6.75.52.28 1 .06 1.22-.1zm1.66-19.25.83.56 2.56-3.76-.83-.56-.82-.56-2.57 3.76zm2.56-3.76-.34.94 7.54 2.7.34-.93.33-.94-7.53-2.71zm7.54 2.7-.16-.98-1.95.3.15.99.15.99 1.96-.3zm-1.96.3v-1c-.96 0-1.54.68-1.83 1.26-.3.6-.43 1.32-.45 1.97-.02.66.06 1.37.29 1.95.2.51.7 1.34 1.69 1.34v-2c.31 0 .3.27.17-.07-.1-.26-.17-.68-.15-1.15.01-.47.1-.88.23-1.14.14-.26.18-.15.05-.15zm-.3 4.52h1v-3h-2v3zm0-3 .08.99 3.76-.3-.08-1-.08-1-3.76.3zm3.76-.3-.55.82.45.3.55-.83.56-.83-.45-.3zm.45.3.03 1 13.7-.3-.01-1-.03-1-13.7.3zm13.72-.3-1-.03-.16 8.28 1 .02 1 .01.16-8.27zm-.16 8.27-.58.81 1.06.75.58-.81.58-.82-1.05-.75zm1.06.75.98.17L95 244.8l-.98-.17-.99-.17-1.5 8.73zm1.5-8.73.27.97 3.31-.9-.26-.97-.26-.97-3.32.9zm3.32-.9-.99.15 1.5 9.93 1-.15.99-.15-1.51-9.93zm1.5 9.93-.96.26 1.2 4.51.97-.26.97-.25-1.2-4.52zm1.21 4.51-.6.8.6.45.6-.8.6-.8-.6-.45zm.6.45v1c.87 0 1.5-.54 1.93-1.05a10.3 10.3 0 0 0 1.78-6.05l-1 .09-.99.08c.06.7-.16 2.05-.61 3.25a5 5 0 0 1-.74 1.37c-.27.33-.4.31-.37.31zm2.72-6.01h1v-1.2h-2v1.2zm0-1.2 1 .09.75-7.67-1-.1-1-.1-.75 7.68zm.75-7.68.03-1-5.43-.15-.02 1-.03 1 5.42.15zm-5.42-.15.66-.75-1.36-1.2-.66.75-.66.74 1.35 1.2zm-1.36-1.2v1h1.8v-2h-1.8zm1.8 0 .99-.2-.6-3.01-.98.2-.98.2.6 3zm-.6-3.01 1-.04-.3-9.02-1 .03-1 .03.3 9.03zm-.3-9.03v-1h-.3v2h.3zm-.3 0h-1v10.23h2v-10.23zm0 10.23-.18.98 5.57 1.06.19-.99.18-.98-5.57-1.05zm5.58 1.05h1l-.15-33.85h-2l.15 33.86zm-.15-33.85.39-.92-6.03-2.56-.39.92-.39.92 6.03 2.56zm-6.03-2.56-1-.07-1.5 20.61 1 .08 1 .07 1.5-20.61zm-1.5 20.62-1-.1-1.5 14.28.99.1 1 .11 1.5-14.29zm-1.51 14.29v-1h-1.06v2h1.06zm-1.06 0 1 .06 1.96-34.6-1-.07-1-.05-1.96 34.6zm1.96-34.6.83.55.6-.9-.83-.56-.83-.55-.6.9zm.6-.9-.31.94 4.97 1.66.32-.95.31-.95-4.97-1.66zm4.98 1.65-.22.97 3.3.75.23-.97.22-.98-3.31-.75zm3.31.75-1 .02.6 34.6 1-.02 1-.01-.6-34.6zm.6 34.6v1h4.67v-2h-4.67zm4.67 0 .97-.24-1.5-6.02-.97.24-.97.25 1.5 6.02zm-1.5-6.02v1h.45v-2h-.45zm.45 0-.98.2 1.2 6.02.98-.2.98-.2-1.2-6.01zm1.2 6.02v1h3.32v-2h-3.31zm3.32 0 1-.08c-.23-2.73-.34-9.16-.3-15.3.02-3.05.07-6.02.17-8.4q.07-1.8.18-3.04.11-1.27.22-1.66l-.97-.25-.97-.26c-.12.45-.2 1.16-.27 2q-.12 1.31-.19 3.13c-.1 2.4-.15 5.4-.17 8.47-.04 6.13.07 12.64.3 15.47zm.3-28.73 1 .1.75-6.92-1-.1-.99-.11-.75 6.92zm.75-6.92-.33-.95-5.12 1.8.33.95.33.94 5.13-1.8zm-5.12 1.8h-1v.45h2v-.45zm0 .45.23.98 5.12-1.2-.23-.98-.23-.97-5.12 1.2zm5.12-1.2-.99-.12-1.5 12.8.99.1.99.13 1.5-12.8zm-1.5 12.79h-1v21.81h2V219.8zm0 21.81v1h6.32v-2h-6.32zm6.32 0-.49.87 1.05.6.5-.87.5-.86-1.06-.6zm1.06.6 1 .02c.15-8.43.16-21.05-3.5-33.25l-.97.29-.95.28c3.56 11.88 3.57 24.23 3.42 32.65zm-3.47-32.94h1v-3.31h-2v3.3zm0-3.31.78.62.6-.75-.77-.63-.78-.62-.6.75zm.6-.76-.06-1-4.52.3.07 1 .06 1 4.52-.3zm-4.51.3.53.85 2.4-1.5-.52-.85-.53-.85-2.41 1.5zm2.4-1.5 1 .11.76-6.77-1-.1-1-.12-.75 6.77zm.76-6.77-.11-1-5.28.6.12 1 .11 1 5.27-.6zm-5.27.6.62-.78-.75-.6-.62.78-.63.78.75.6zm-.76-.6h1v-.75h-2v.75zm0-.75.13.99 5.88-.75-.13-1-.13-.99-5.87.76zm5.88-.75 1 .06.15-2.25-1-.07-1-.07-.15 2.26zm.15-2.26 1 .11 1.05-9.33-1-.1-.99-.12-1.05 9.33zm1.06-9.33.98-.14-1.5-10.23-1 .14-.98.15 1.5 10.23zm-1.51-10.23.7-.7-.3-.3-.7.7-.7.7.3.3zm-.3-.3 1-.11-.91-7.98-1 .12-.99.1.9 7.98zm-.9-7.97.26-.97-3.76-1.05-.27.96-.27.97 3.77 1.05zm-3.77-1.06h1v-1.2h-2v1.2zm0-1.2v1h3.46v-2h-3.46zm3.46 0 1 .13.3-2.26-1-.13-.99-.13-.3 2.26zm.3-2.26 1 .03.46-20.32-1-.02-1-.02-.46 20.31zm.46-20.3 1 .08 2.25-24.37-1-.1-.99-.08-2.26 24.37zm2.26-24.38 1 .01.75-56.42-1-.01-1-.01-.75 56.42zm.75-56.42 1 .12 1.35-10.98-1-.12-.99-.13-1.35 10.99zm1.35-10.98 1 .05.46-9.03-1-.05-1-.05-.45 9.03zm.46-9.03 1-.1-.46-4.51-1 .1-.99.1.45 4.51zm-.46-4.51.56.83.45-.3-.55-.83-.56-.84-.45.3zm.46-.3-.94.34c.25.69.4 1.59.49 3.01.09 1.43.13 3.28.2 5.85l1-.03 1-.03c-.08-2.54-.11-4.45-.2-5.92s-.26-2.6-.61-3.57zm.75 9.17h-1v21.97h2V44.38zm0 21.97-1-.1-1.8 20.02 1 .09.99.09 1.8-20.01zm-1.8 20-1-.01-.76 34.9 1 .02 1 .02.75-34.9zm-.76 34.91-.95-.31-.75 2.25.95.32.94.32.76-2.26zm-.75 2.26-1-.03-1.06 36.86 1 .03 1 .03 1.06-36.86zm-1.06 36.86-.7-.7a1.06 1.06 0 0 0 .38 1.76c.21.08.48.12.62.15.4.06.84.11 1.26.24q.65.2.85.45c.09.12.21.33.08.88l.98.23.97.23c.25-1.03.07-1.93-.49-2.6a3.7 3.7 0 0 0-1.82-1.11c-.59-.17-1.2-.25-1.52-.3-.21-.04-.23-.05-.19-.03q.03 0 .16.09a1 1 0 0 1 .31.39.9.9 0 0 1-.18 1.03zm3.47 3-.98-.19-.3 1.5.97.2.99.2.3-1.5zm-.3 1.51-.49.88c1.32.73 3.08 1.83 4.58 3.06q1.14.92 1.94 1.87.78.95.99 1.68l.96-.26.96-.27a7 7 0 0 0-1.37-2.43 17 17 0 0 0-2.21-2.14 34 34 0 0 0-4.88-3.26zm7.98 7.23.52-.86-.76-.45-.51.85-.52.86.76.45zm-.75-.46.7-.7-6.02-6.02-.7.7-.72.71 6.03 6.02zm-6.03-6.01-.7-.71-.76.75.7.7.71.72.76-.76zm-.75.75.38-.93-1.8-.75-.4.93-.37.92 1.8.75zm-1.81-.75h-1v7.22h2v-7.22zm0 7.22.7.7.46-.45-.7-.7-.72-.71-.45.45zm.45-.45h1v-6.02h-2v6.02zm0-6.02-.6.8c5.22 3.94 7.09 9.84 5.65 16.75l.98.2.98.2c1.57-7.53-.47-14.27-6.4-18.75zm6.03 17.75-.9-.45c-.84 1.7-1.79 3.69-2.84 5.28a9 9 0 0 1-1.53 1.86c-.5.44-.9.59-1.21.59v2c.97 0 1.82-.48 2.51-1.08.7-.6 1.33-1.4 1.9-2.27 1.14-1.72 2.15-3.86 2.96-5.48zm-6.48 8.28h-1v.15h2v-.15zm0 .15-.91-.42-.75 1.66.9.41.92.42.75-1.66zm-.75 1.65-.59-.81-1.05.75.58.81.58.82 1.06-.75zm-1.06.75h-1v.76h2v-.76zm0 .76.49.87 1.35-.75-.48-.88-.49-.87-1.35.75zm1.36-.76-.7.71.44.45.7-.7.72-.71-.46-.45zm.45.46-1-.11-.75 6.92 1 .1.99.11.75-6.92zm-.75 6.92v1h1.2v-2h-1.2zm1.2 0 1 .03 1.36-41.22-1-.04-1-.03-1.36 41.22zm1.36-41.23h1v-1.8h-2v1.8zm0-1.8 1 .02.75-38.82-1-.02-1-.02-.75 38.82zm.75-38.82h1c0-.28-.06-.75-.14-1.26a129 129 0 0 0-1.24-6.48l-.97.22-.98.22a126 126 0 0 1 1.22 6.34q.11.82.11.96zm-1.36-7.52-.97.23 1.06 4.5.97-.22.97-.23-1.05-4.5zm1.06 4.51 1 .05.15-3-1-.06-1-.05-.15 3.01zm.15-3 .9-.43-1.05-2.26-.9.43-.91.42 1.05 2.26zm-1.06-2.26.99.2.3-1.51-.98-.2-.98-.2-.3 1.51zm.3-1.5.68-.75-1.66-1.5-.67.74-.67.74 1.66 1.5zm-1.65-1.51-.41.9 1.65.76.42-.91.41-.91-1.66-.75zm1.66.75.94-.33-.9-2.56-.95.33-.94.33.9 2.56zm-.9-2.56.99.12.45-3.76-1-.12-.99-.12-.45 3.76zm.45-3.76-.56-.83-.45.3.55.83.56.83.45-.3zm-.46.3h1v-.75h-2v.75zm0-.75-.7.7.45.46.7-.71.71-.7-.45-.46zm.45.45 1 .02.6-32.35-1-.02-1-.02-.6 32.35zm.6-32.35 1 .02.61-28.28-1-.02-1-.02-.6 28.28zm.61-28.28 1-.1-.6-5.58-1 .11-1 .11.6 5.57zm-.6-5.57.96.26.6-2.26-.96-.25-.97-.26-.6 2.25zm.6-2.25.82.57 2.41-3.46-.82-.57-.82-.58-2.41 3.46zm2.41-3.46.32.94 2.26-.75-.32-.95-.31-.95-2.27.76zm2.26-.76.83.56 2.71-4.06-.83-.56-.83-.55-2.71 4.06zm2.71-4.06-.99-.15-.45 3.01 1 .15.98.15.45-3.01zm-.45 3.01-.66-.75-3.77 3.3.66.76.66.75 3.77-3.3zm-3.77 3.31-.5-.87c-1.44.83-2.01 2.34-2.25 3.9-.25 1.54-.2 3.41-.2 5.24h2c0-1.93-.04-3.59.17-4.94.21-1.34.62-2.09 1.28-2.46zM121 41.52v1h.45v-2H121zm.45 0h-1v3.01h2v-3zm0 3.01.95-.28-.45-1.5-.95.28-.96.29.45 1.5zm-.45-1.5-1-.16-1.05 6.47 1 .16.98.16 1.05-6.47zm-1.06 6.47-.78.62.6.76.78-.63.78-.62-.6-.76zm.6.75.94.35.45-1.2-.94-.35-.93-.35-.45 1.2zm.45-1.2-1-.04-1.05 28.28 1 .04 1 .04 1.05-28.29zm-1.05 28.28-1-.02-.75 37.91 1 .03 1 .02.75-37.92zm-.75 37.92-1 .14.46 3.01.99-.15.99-.14-.45-3.01zm-55.3 194.83h-1v.75h2v-.75zm0 .75-.57.82 3.01 2.1.58-.81.57-.82-3.01-2.1zm3.02 2.1v1h3.31v-2H66.9zm3.31 0 .41-.9-6.33-2.86-.4.9-.42.92 6.33 2.86zm29.83 3.02h-1v.6h2v-.6zm0 .6-.06 1 4.82.3.06-1 .07-1-4.83-.3zm4.82.3.25.97 1.2-.3-.24-.97-.24-.97-1.2.3zm1.2-.3.1-1-6.02-.6-.1 1-.1 1 6.03.6zm6.79 6.92h-1v.6h2v-.6zm0 .6v1h5.88v-2h-5.88zm5.88 0h1v-.6h-2v.6zm0-.6v-1h-5.88v2h5.88zm-18.69-117.2-.18.98 4.07.75.18-.98.18-.98-4.07-.76zm4.07.75h1v-1.8h-2v1.8zm0-1.8.14-1-3.32-.45-.13 1-.14.98 3.32.46zm-3.31-.46-.9-.44-.75 1.5.9.45.89.44.75-1.5zm-1.96 23.02v-1h-.6v2h.6zm-.6 0h-1v1.5h2v-1.5zm0 1.5.92.38.6-1.5-.92-.38-.93-.37-.6 1.5zm1.2-25.27v-1h-.9v2h.9zm-.9 0h1v-.75h-2v.75zm0-.75-.64.77.9.75.64-.77.64-.77-.9-.75zm.3 7.52v1h.45v-2h-.45zm.45 0h1v-.9h-2v.9zm0-.9v-1h-.45v2h.45zm-.45 0h-1v.9h2v-.9zm1.2-5.87-.2.98 3.46.75.2-.98.22-.97-3.47-.76zm3.47.75 1 .04.15-4.52-1-.03-1-.03-.15 4.51zm.15-4.51.86.51.45-.75-.86-.51-.86-.52-.45.76zm.45-.75.97-.27-.46-1.65-.96.26-.97.27.46 1.65zm-.45-1.66.95.32.45-1.35-.95-.32-.95-.32-.45 1.36zm.45-1.35.49-.88-4.07-2.25-.49.87-.48.88 4.07 2.25zm-4.07-2.26-1-.09-.6 6.77 1 .1 1 .08.6-6.77zm-.6 6.77-.78.63.6.75.78-.63.78-.62-.6-.75zm.6.75h-1v2.26h2v-2.26zm4.07 3.01v1h3.77v-2h-3.77zm3.77 0h-1v.75h2v-.75zm0 .75-.24-.97-1.81.46.24.97.24.97 1.81-.45zm-1.81.46h-1v1.5h2v-1.5zm0 1.5-.09 1 3.47.3.08-1 .1-1-3.47-.3zm3.47.3h-1v.45h2v-.45zm0 .45v-1h-4.83v2h4.83zm-4.83 0 .99-.17-.6-3.46-.99.17-.98.18.6 3.46zm0-12.48-.23.97 3.17.75.23-.97.23-.98-3.17-.75zm3.17.75h-1v.75h2v-.75zm0 .75.23-.97-3.17-.76-.23.98-.23.97 3.17.75zm-3.17-.75h1v-.75h-2v.75zm0-6.77v-1h-.6v2h.6zm-.6 0h1v-.75h-2v.75zm0-.75v1h.6v-2h-.6zm.6 0h-1v.75h2v-.75zm4.83 5.26h-1v.75h2v-.75zm0 .75.12 1 5.88-.76-.13-.99-.13-.99-5.87.75zm5.87-.75-.98.2.15.75.98-.2.98-.2-.15-.75zm.15.75-.12-.99-6.03.75.13 1 .12.99 6.03-.75zm-6.03.76h1v-1.5h-2v1.5z" mask="url(#a)"/><path fill="#fdc558" d="M126.71 14.3h.45l-.45 1.65z"/><path fill="#fdc558" d="M104.11 34c-1.8-.75-.45-16.85.75-25.12.46-3.46 4.67-5.72 5.73-7.23 1.96-.75 1.96 1.2 6.33 0h3.01c1.5-1.05 10.7-1.8 13.26 1.5l1.05.76-.75 9.03-4.67 14.3.6 2.7-1.05-1.2c-.76 4.96-5.73 3.76-6.18 8.72l-1.05 7.07-1.51-6.01.75-3.31 5.58-2.71 3.01-8.28 2.71-14.6.76-3.75-1.81-.45c-6.48 0-1.66 4.51-3.92 12.78v9.03l-2.56 5.27-3.17.75-1.35 1.96h-6.48l-2.56.9-1.8-.15-1.67-.45h-1.2v-.3l1.2-.76zm9.04-30.09h-3.01l-.6 1.2zm-2.56 31.3 1.05-.76-.3 1.5-.75 3.32zm2.56 0h1.66l-.45 9.77-.46-1.95V35.5zm6.03-.46 1.8-1.5-1.2-2.26zm1.8-2.25h1.81l-1.35-1.5zm.46-3.31 1.35 1.8 1.66-2.25-1.66-1.5zm1.96-2.71h2.56l.45-3.01zm-1.2 2.26 3.76-5.27-2.56 1.5zm-4.83 5.71h1.66l-.9-3.46.9-1.8-.9-.45-1.51 3zm-3.47 0h1.66l1.8-5.26-.74-.45-2.72 4.5zm-1.05-1.5.3.3 2.41-4.51h-1.66zm7.08-5.72h1.5l.76-2.26-1.8.76zm-12.8 4.52V34l3.46-1.05.75-3.01.3 5.27v-3.46l.46-2.56h-.46zm-3.02 1.5h1.2l.6-2.26-1.8-.75zm17.33-7.52.75-.76-1.2-.75zm-14.32 4.51 4.22-1.5v.45l.3-.45.46-1.5-1.51-.91c-1.8-1.66-3.01 1.35-3.47 3.91m14.32-6.77.75 1.5 3.77-5.26v-1.5l-3.77 6.01zm-5.88 3.76h1.06l2.4-3.76.6-3.76h-.44l-2.56 5.26h-1.06zm-3.92-.9h1.51l-.3-1.36zm-7.53-2.86.6.75v5.72l1.2-1.2 1.97-8.28v-1.5l-2.56 6.77-.6-3.01.6-4.52 2.56-2.25v-.75l-2.56 2.25-.6 5.27h-.6zm5.42.75.6.75.46-.75zm7.09.75.75 1.36 2.26-3.61v-3.76zm-4.52-.75 1.8 1.5.9-3V18.2h-.9l-2.56 3.01zm-1.96 0 .45-1.5h-1.06zm11.3-.75 1.35-3.76v-3.76zm-11.9 0 .6-.75-.6-1.5-.76 1.5zm6.02-6.02 1.06 2.26 2.56-3.76-1.06 1.5-1.5-.75zm-4.97 3.76 4.22-4.51-.9-6.77-.76-.75-2.56 3.76-.45 6.02zm6.03-4.51 2.56-2.4v.9l.45-1.5-.45.6-1.81.9zm4.82 4.51 4.52-4.51v-3.76l-.3-1.5h-2.26l-1.96 2.25zm-11.3-1.5v-1.5h-.6zm-3.62-8.28 1.36 2.86-1.36.9 1.36.76 2.26-4.52-.6-3-1.66-.76-1.36 2.26zm12.66 2.26 1.8-5.26h-1.8l-1.81 4.5zm.75-.75 1.5-1.5 1.97-5.27-4.22 1.5-1.81 2.26zm-6.03 3.76.9-.75-.9-.75zm-6.02-7.52 1.66 3 2.56-3 1.8-1.5-2.56-1.51-3.46 1.5zm13.56.75 3.01-2.26-1.66-1.5zm.75-.75 3.47 2.25.3-3.76-1.5-1.5zm-8.29.75h1.66l-.75-2.26-1.66.76zm1.66-3.76h4.07l2.56-1.5-2.26-2.26-3.31 2.25zm8.9-.75 1.5.75-.3-.75zm-13.87-.76h4.97l1.8-1.5-5.26.75zm6.03 0h5.57v-1.5L121 2.4zm9.34 0 5.72.76.76-1.5-.76-1.51h-6.02zM100.8 141.57h1.35l-.9 17.3-.6 33.1h-.6l1.2-47.39-1.2-.3zm-1.36 51.61 4.22 1.8.45-1.5h.6l-.6 1.5 1.96.76-1.96 1.5-5.57-3.76-1.2-1.5zm17.93-32.05.45 1.2-.45 3.32-3.47-2.26v-2.56zm-15.52 4.52c.45-1.8 6.93-5.27 6.48-3.77l-2.26 1.5 3.47-1.04v2.25l-7.69 1.8zm-2.56 1.5.15.75c-4.22 1.96-4.37 5.72-5.12 14.3l-.6 4.96-1.21-3 1.2-3.77.6-1.2-.6-.9 1.51-6.93zm-9.64-1.5c-1.66 3.46-3.17 9.47-3.62 14.29h.45c.3-4.51 1.2-9.78 3.17-14.3"/><path fill="#fdc558" d="M107.88 164.14h.9l-2.86 30.1h-1.2l2.4-28.9zm3.76-104.86-1.05-3.01.75-14.75h.3l-1.05 13.24 1.05.3zm.46 6.77h-.46v6.02h.46zm6.63 129.69-1.36.75v-1.5l5.42-5.27 3.17-4.82 1.2-4.96v-5.27l1.06-1.8.75 6.32-1.8 7.52-3.77 5.26zm5.72-30.09 2.71 4.51-4.37-4.51zm-5.42-96.29.15 9.02h.45l.3-6.77zM69.3 249.9l.91-.75h4.97l-1.2-.76 3.91.46-2.7.75-4.83.3-1.05 9.03.9.45h-1.05zm13.42-6.32 8.13-.45v-.3l-8.13.3zm16.12-.45h4.52v-.9l-4.52.6zm-4.52 10.53h4.52v.75l-4.52.45.9.75h-3.16l-.76-1.5-1.65.3.15-.3 2.26-1.2 4.97.75zm-1.06.75h-1.2v.45zM69.3 139.02l10.85-7.98h.6l-6.77 4.52zm77.6 78.23c12.66-.75 16.42 16.1 5.42 22.57-16.72 3.91-21.84-14.75-10.1-21.52zm-.6.9c-10.1.6-13.86 15.2-2.87 21.22 15.67 4.51 17.93-13.1 10.85-18.81l-4.97-2.4-1.2.6.15 2.55c4.67 5.27 5.12 9.03.45 14.75-1.96-.46-3.47-3.76-6.63-6.47l-3.17-2.56v-2.26l.6 1.06 4.83 3 4.37 6.02c4.22-3.3 3.16-9.02-1.2-13.54l-3.17 4.52-.45-1.06h.6l-3.17-2.25.16-.46 3 1.96 2.42-5.27 1.36-.45z"/><path fill="#fdc558" d="m142.68 225.83 1.96 1.5 4.07 3.76 1.8 1.2-.6.3-5.42-4.5zm-102.9 17.3c-7.24 19.26-5.73 38.81-1.2 49.5l-2.27-3.16c-2.86-7.23-1.8-32.05 3.47-46.34m-13.26 0c-2.26 5.11-2.26 13.24.45 26.03l-.45.3c-1.36-2.56-2.41-21.07 1.5-27.23zm12.8-18.81 5.73-4.51 1.05 5.26-1.05 1.2v-5.26c-6.03 3.01-16.12 15.05-18.53 22.12l1.5-.9c2.11-6.17 9.5-14.15 11.3-17.9M191.5 252.9l-1.06-.75-3.01-10.53c3.01 4.22 5.27 23.32 4.07 31.6 2.4-4.06-1.81-21.07 0-20.31"/><path fill="#fdc558" d="M185.47 234.1c1.2.75 4.97 13.54 4.97 15.05v3.76l-3.01-9.78-1.96-4.82zm-1.05 27.08v14h-6.18v-14z"/></svg>