<svg width="166" height="166" viewBox="0 0 166 166" fill="none" xmlns="http://www.w3.org/2000/svg">
<g clip-path="url(#clip0_139_1413)">
<path d="M74.8173 11.7422C64.768 12.6224 62.4208 13.3559 50.6111 19.2241C41.002 23.992 39.9017 24.7988 32.8599 31.6939C26.6983 37.7088 25.0112 39.836 23.7642 43.1369C22.5172 46.6578 17.8227 56.927 15.6955 60.9614C15.3287 61.6949 15.0353 63.382 15.0353 64.7024C15.0353 66.0227 14.3752 68.37 13.5683 69.9837C12.3947 72.331 12.1013 74.4582 11.9546 81.72C11.8812 89.4954 12.1013 91.2558 13.7884 96.6105C14.8886 99.9847 15.7689 103.359 15.7689 104.092C15.7689 109.594 21.1969 121.037 27.7252 129.252C32.6398 135.487 39.755 142.456 42.5424 143.849C44.1561 144.656 47.8971 146.857 50.9045 148.617C58.5331 153.238 61.9807 153.972 79.5118 154.412C98.51 154.999 101.958 154.339 114.721 147.957C119.709 145.39 124.917 142.529 126.237 141.502C127.557 140.475 129.538 139.081 130.565 138.348C133.426 136.294 141.861 125.511 144.208 120.89C145.382 118.543 146.629 116.489 147.069 116.196C147.436 115.975 147.803 115.242 147.803 114.582C147.803 113.922 148.316 112.821 148.976 112.088C151.103 109.741 153.744 99.0311 154.184 91.0358C154.991 77.0255 152.13 62.7219 146.115 50.7655C145.089 48.785 144.062 46.4377 143.768 45.4841C143.475 44.5305 141.788 41.8899 140.027 39.7627C138.193 37.5621 136.36 35.2148 135.846 34.5547C133.132 30.9604 125.724 24.4321 122.863 23.1117C121.029 22.2315 118.755 20.9845 117.728 20.3244C113.841 17.757 93.8888 12.1089 86.5536 11.4488C84.133 11.2287 78.8516 11.3754 74.8173 11.7422ZM62.3474 22.3049C64.0345 22.8917 65.2081 23.6986 65.0614 24.2854C64.6947 25.7524 61.9073 28.4664 60.2202 28.9799C58.2397 29.5667 53.9119 33.6744 53.9119 34.9214C53.9119 37.122 59.1199 37.6354 66.1617 36.1684C67.9222 35.875 70.0494 37.5621 70.0494 39.3225C70.0494 39.9094 67.7021 42.9168 64.768 45.9242C58.093 52.746 58.3131 53.6262 66.8219 54.2864C71.9565 54.7265 72.7634 55.0199 74.1571 56.8537C76.3577 59.5677 75.5508 61.4015 69.976 66.9029C67.6288 69.2502 65.6483 71.5241 65.6483 71.8909C65.6483 72.9911 60.3669 78.4192 58.1663 79.5928C56.1858 80.6198 56.0391 80.5464 55.2323 78.786C54.5721 77.3189 54.5721 76.0719 55.3056 73.2846C56.4059 69.0301 56.0391 68.1499 53.1784 68.1499C51.418 68.1499 50.6111 68.8101 48.4105 72.1843C45.4764 76.5854 43.8627 77.1722 41.4421 74.7516C39.6816 72.9911 39.5349 69.837 41.1487 64.5557C41.7355 62.4284 42.1022 60.2279 41.8822 59.6411C41.1487 57.7339 37.1143 58.4674 33.8868 61.0348C29.9258 64.2623 25.7447 66.6829 24.4244 66.6829C23.8376 66.6829 22.7373 66.0227 22.0038 65.2158C20.3167 63.3087 21.0502 57.954 23.4708 55.0932C24.4244 53.993 26.5516 50.1053 28.1654 46.5111C30.806 40.9363 31.9797 39.2492 37.1143 34.4813C41.5154 30.3736 45.1097 27.8796 50.5377 25.0922C54.5721 22.965 58.3131 21.2046 58.6798 21.2046C59.1199 21.2046 60.7337 21.7181 62.3474 22.3049ZM92.1284 67.8565C95.2825 69.3969 96.0894 70.2771 97.6298 73.7247C99.9037 78.8593 100.05 84.9475 97.9232 88.3951C97.0429 89.7154 94.8424 91.7693 93.0086 93.0163C90.2945 94.8501 88.8275 95.2902 85.6734 95.2902C81.419 95.2902 78.925 94.2633 73.717 90.5223C69.976 87.8083 68.0689 83.1871 68.9491 79.1527C69.756 75.4118 74.8906 69.6903 79.145 67.7832C84.0596 65.5092 87.5805 65.5092 92.1284 67.8565ZM110.98 88.8352C111.127 90.0822 110.393 92.4294 109.219 94.63L107.166 98.371L108.926 99.7647C111.493 101.672 111.933 101.525 115.161 98.1509C118.829 94.41 122.349 92.2094 123.816 92.7229C125.063 93.2363 125.797 96.8306 125.797 103.286C125.797 108.494 127.044 110.694 129.831 110.694C131.592 110.694 133.279 109.007 136.286 104.239C138.047 101.525 142.008 98.2243 143.548 98.2243C144.208 98.2243 146.336 102.552 146.336 103.872C146.336 105.853 137.24 122.21 133.499 126.832C128.804 132.7 125.357 135.707 119.122 139.375C114.794 141.869 113.987 142.089 111.787 141.502C110.393 141.062 108.413 140.768 107.312 140.768C103.938 140.768 105.038 136.367 109.439 131.82C112.007 129.179 112.08 129.105 110.833 127.198C109.073 124.484 108.192 124.338 103.938 125.951C100.784 127.198 99.6103 127.272 97.1163 126.685C95.5025 126.245 93.9622 125.438 93.7421 124.924C93.302 123.677 96.6028 118.543 98.9501 117.076C100.27 116.122 100.857 115.169 100.857 113.555C100.857 110.034 99.0968 109.814 90.0011 111.794C85.6 112.821 83.106 108.2 85.8201 104.312C86.4802 103.432 89.2676 101.452 92.1284 99.9847C95.5759 98.1509 98.3633 96.0237 100.344 93.6031C105.332 87.5882 106.872 86.4146 108.853 86.6346C110.32 86.7813 110.833 87.2948 110.98 88.8352Z" fill="#FEF6E3"/>
<path d="M81.5657 74.7517C79.145 76.6589 78.6316 79.1528 79.9519 82.3803C80.9788 84.7276 81.3456 85.021 83.8396 85.021C87.3605 85.021 92.7885 81.28 92.7885 78.9328C92.7152 74.2382 85.6 71.5976 81.5657 74.7517Z" fill="#FEF6E3"/>
<path d="M18.7551 95.165C18.7551 95.165 18.7543 95.1597 18.7528 95.1491C18.7286 94.9802 18.7309 94.8075 18.7595 94.631C18.7881 94.4545 18.9216 94.2953 19.1599 94.1535C19.4088 94.0101 19.8448 93.8939 20.4678 93.8048C20.9007 93.7429 21.4369 93.7255 22.0766 93.7525C22.7162 93.7796 23.4078 93.8316 24.1515 93.9084C24.9073 93.9943 25.66 94.0967 26.4098 94.2158C27.1595 94.3349 27.8602 94.4502 28.5119 94.5617C29.1651 94.6838 29.7248 94.7923 30.1909 94.8873C30.6586 94.9928 30.9716 95.072 31.13 95.1247C31.3201 95.173 31.4905 95.2725 31.6414 95.4234C31.8043 95.5832 31.8994 95.7582 31.9266 95.9483C31.9825 96.339 31.9131 96.6075 31.7185 96.7538C31.5345 96.8987 31.3211 96.9885 31.0782 97.0232C30.867 97.0534 30.3632 97.0339 29.5667 96.9646C28.7808 96.8938 27.6207 96.7687 26.0865 96.5895C26.2767 97.4674 26.4911 98.3634 26.7295 99.2775C26.9695 100.202 27.1884 101.017 27.3861 101.721C28.0438 101.8 28.6532 101.879 29.2144 101.961C29.7861 102.041 30.2651 102.112 30.6513 102.176C31.048 102.237 31.3128 102.28 31.4455 102.304C31.8604 102.417 32.1553 102.558 32.3303 102.727C32.5068 102.907 32.6102 103.102 32.6404 103.313C32.6797 103.588 32.6231 103.833 32.4708 104.049C32.3305 104.274 32.0598 104.415 31.6585 104.472C31.4051 104.508 30.9254 104.507 30.2194 104.468C29.5134 104.429 28.7132 104.371 27.8186 104.294C27.7357 104.467 27.6286 104.623 27.4974 104.76C27.3677 104.908 27.2395 104.991 27.1128 105.009C26.9438 105.033 26.7741 105.014 26.6036 104.952C26.4452 104.9 26.2891 104.75 26.1352 104.502C26.0929 104.433 26.0371 104.306 25.9677 104.122C25.1259 104.038 24.3166 103.954 23.5397 103.871C22.7749 103.798 22.1195 103.735 21.5734 103.684C21.0379 103.631 20.6947 103.605 20.5438 103.605C20.1441 103.597 19.8001 103.528 19.512 103.397C19.2133 103.267 19.039 103.028 18.9892 102.68C18.9514 102.416 19.0419 102.182 19.2606 101.978C19.4793 101.774 19.9635 101.619 20.7132 101.512C21.2729 101.432 21.9306 101.397 22.6863 101.407C23.4526 101.416 24.2386 101.449 25.0441 101.507C24.8042 100.733 24.571 99.8933 24.3446 98.9882C24.1287 98.0816 23.9634 97.1894 23.8486 96.3115C22.6117 96.1759 21.6251 96.0583 20.8889 95.9589C20.1543 95.87 19.6225 95.7682 19.2937 95.6536C18.9648 95.539 18.7853 95.3762 18.7551 95.165ZM20.5622 108.89C20.4681 108.607 20.4802 108.322 20.5986 108.035C20.7204 107.759 20.9989 107.548 21.4342 107.404C21.667 107.326 22.0061 107.247 22.4514 107.167C22.9001 107.097 23.391 107.035 23.924 106.981C24.4671 106.925 25.0086 106.88 25.5483 106.847C26.0914 106.824 26.5771 106.814 27.0055 106.818C27.444 106.818 27.7762 106.837 28.0022 106.875C28.2787 106.929 28.4608 107.003 28.5484 107.098C28.6495 107.199 28.7185 107.305 28.7555 107.417C28.8227 107.619 28.8242 107.827 28.7598 108.039C28.6989 108.262 28.4609 108.442 28.0458 108.58C27.8838 108.634 27.6106 108.691 27.226 108.751C26.8515 108.808 26.4112 108.87 25.9052 108.937C25.3991 109.003 24.8746 109.065 24.3314 109.122C23.7917 109.189 23.2772 109.247 22.788 109.297C22.3124 109.354 21.9126 109.403 21.5887 109.443C21.3189 109.476 21.0963 109.432 20.921 109.31C20.739 109.202 20.6194 109.062 20.5622 108.89ZM30.4655 107.54C30.3546 107.206 30.3482 106.865 30.4464 106.518C30.5547 106.167 30.8164 105.923 31.2315 105.785C31.5757 105.671 31.8826 105.665 32.1524 105.766C32.4221 105.868 32.6412 106.02 32.8096 106.222C32.9915 106.432 33.1127 106.627 33.1732 106.81C33.2337 106.992 33.2605 107.208 33.2535 107.457C33.2566 107.704 33.1838 107.941 33.0351 108.17C32.8999 108.406 32.6501 108.585 32.2857 108.706C32.0427 108.787 31.7914 108.775 31.5318 108.67C31.2823 108.561 31.0599 108.399 30.8645 108.183C30.6725 107.977 30.5395 107.763 30.4655 107.54ZM29.3402 116.744C29.0396 116.203 28.8095 115.636 28.6497 115.041C28.4952 114.456 28.3935 113.878 28.3446 113.307C27.3916 113.568 26.3748 113.901 25.2943 114.307C24.9939 114.425 24.7064 114.512 24.4319 114.567C24.1667 114.616 23.9201 114.601 23.6921 114.52C23.4642 114.439 23.2647 114.245 23.0937 113.938C22.933 113.649 22.9386 113.395 23.1105 113.178C23.2825 112.96 23.5316 112.761 23.8579 112.579C23.9604 112.522 24.2469 112.412 24.7172 112.248C25.1875 112.084 25.7567 111.89 26.4249 111.665C27.1024 111.434 27.8012 111.199 28.5211 110.957C28.6909 110.362 28.9342 109.977 29.2512 109.801C29.4097 109.712 29.5848 109.676 29.7765 109.692C29.9826 109.711 30.1661 109.866 30.3267 110.155C30.3475 110.192 30.362 110.251 30.3703 110.332C30.9442 110.135 31.4544 109.955 31.9009 109.792C32.3619 109.633 32.6882 109.507 32.8798 109.413C33.2445 109.234 33.5366 109.145 33.7562 109.145C33.9852 109.14 34.1665 109.191 34.3002 109.3C34.4484 109.413 34.5639 109.544 34.6469 109.693C34.7557 109.889 34.7967 110.062 34.7698 110.211C34.7429 110.36 34.5849 110.515 34.2959 110.676C34.0162 110.831 33.7573 110.969 33.519 111.089C34.5561 111.111 35.3705 111.28 35.9621 111.598C36.5631 111.911 37.0269 112.361 37.3534 112.948C37.6747 113.526 37.7961 114.118 37.7176 114.723C37.639 115.328 37.3662 115.913 36.8991 116.478C36.4465 117.047 35.8053 117.562 34.9756 118.023C33.7077 118.728 32.5982 118.96 31.647 118.72C30.7104 118.484 29.9414 117.825 29.3402 116.744ZM30.2591 112.865C30.2644 113.313 30.306 113.772 30.3838 114.242C30.471 114.706 30.6286 115.143 30.8566 115.553C31.2246 116.215 31.6666 116.604 32.1826 116.72C32.7038 116.845 33.3606 116.687 34.153 116.247C35.5607 115.464 36.0288 114.649 35.5572 113.8C35.2566 113.26 34.6607 112.901 33.7697 112.726C32.8838 112.559 31.7136 112.605 30.2591 112.865ZM39.1632 124.127C38.6776 124.622 37.914 124.837 36.8725 124.771C35.8461 124.705 34.5635 124.284 33.0249 123.507C33.0175 123.514 33.0063 123.526 32.9913 123.541C32.7448 123.792 32.5773 124.024 32.4888 124.236C32.4078 124.44 32.4701 124.643 32.6756 124.845C32.9802 125.144 33.4087 125.385 33.961 125.568C34.5285 125.751 35.1559 125.896 35.8434 126.003C36.5459 126.109 37.2519 126.189 37.9614 126.243C38.6709 126.296 39.3313 126.339 39.9426 126.371C40.569 126.403 41.086 126.439 41.4937 126.481C41.9165 126.522 42.166 126.58 42.2421 126.655C42.402 126.811 42.4755 127.003 42.4626 127.229C42.4573 127.463 42.3351 127.702 42.096 127.946C41.9616 128.083 41.7933 128.239 41.5914 128.414C42.4941 128.164 43.3493 128.07 44.157 128.13C44.9721 128.182 45.6825 128.326 46.2882 128.562C46.9089 128.797 47.3716 129.065 47.6761 129.363C48.0188 129.7 48.1838 129.996 48.1711 130.252C48.166 130.501 48.0924 130.698 47.9505 130.843C47.8683 130.927 47.7671 130.992 47.6469 131.038C47.5417 131.084 47.3758 131.086 47.1491 131.043C46.93 131.007 46.6084 130.901 46.1843 130.724C45.6314 130.48 45.0713 130.282 44.5042 130.129C43.9446 129.984 43.337 129.94 42.6813 129.999C42.0407 130.058 41.3073 130.265 40.481 130.62C39.6697 130.975 38.7322 131.534 37.6684 132.299C37.3611 132.505 37.1056 132.598 36.9017 132.578C36.6904 132.565 36.5086 132.483 36.3563 132.334C36.3411 132.319 36.3144 132.293 36.2764 132.255C36.2004 132.196 36.1355 132.117 36.0818 132.02C36.0282 131.937 36.0232 131.805 36.0667 131.624C36.1104 131.457 36.2439 131.222 36.4673 130.919C36.6907 130.615 37.0451 130.215 37.5307 129.72C37.822 129.423 38.1397 129.122 38.4838 128.817C38.8429 128.512 39.2209 128.203 39.6177 127.89C38.8559 127.89 38.0636 127.867 37.241 127.822C36.4185 127.777 35.6105 127.687 34.8172 127.551C34.039 127.415 33.3282 127.226 32.6847 126.983C32.0489 126.748 31.5406 126.444 31.1599 126.07C30.6498 125.57 30.3916 124.995 30.3854 124.346C30.3943 123.698 30.7387 123.027 31.4184 122.334C32.0908 121.649 32.7909 121.118 33.519 120.741C34.2622 120.365 34.9802 120.12 35.673 120.008C36.3659 119.896 36.9844 119.897 37.5286 120.013C38.0879 120.128 38.516 120.332 38.8129 120.623C39.4449 121.243 39.7752 121.866 39.8038 122.492C39.8399 123.11 39.6263 123.655 39.1632 124.127ZM34.1707 122.636C34.4658 122.731 34.7872 122.822 35.135 122.909C35.4979 122.997 35.8493 123.065 36.1892 123.114C36.5365 123.156 36.8421 123.165 37.1059 123.14C37.3772 123.122 37.5764 123.048 37.7034 122.919C37.9126 122.706 37.9787 122.517 37.9017 122.351C37.8397 122.186 37.7098 122.006 37.5118 121.812C37.3062 121.61 37.0114 121.538 36.6272 121.594C36.2506 121.643 35.8444 121.767 35.4089 121.968C34.9733 122.168 34.5606 122.391 34.1707 122.636ZM43.0266 138.023C42.6503 137.761 42.4201 137.522 42.3357 137.308C42.2602 137.099 42.2925 136.894 42.4328 136.693C42.5548 136.518 42.7198 136.412 42.9277 136.374C43.1417 136.329 43.5045 136.386 44.016 136.548C44.6097 136.741 45.1924 136.893 45.7641 137.006C46.3507 137.116 46.8663 137.15 47.311 137.109C47.7645 137.074 48.0827 136.925 48.2657 136.663C48.3877 136.488 48.4149 136.318 48.3473 136.154C48.2884 135.996 48.1803 135.862 48.0228 135.752C47.8915 135.661 47.6837 135.548 47.3995 135.415C47.1301 135.279 46.8252 135.139 46.485 134.992C46.1509 134.838 45.8286 134.684 45.5181 134.533C45.2224 134.379 44.9783 134.235 44.7858 134.1C44.3308 133.783 44.0641 133.448 43.9856 133.094C43.9132 132.732 43.9899 132.388 44.2156 132.065C44.3376 131.89 44.5972 131.713 44.9944 131.535C45.3917 131.357 45.8715 131.191 46.434 131.037C46.9965 130.883 47.5939 130.753 48.2264 130.648C48.8588 130.542 49.4743 130.471 50.0728 130.433C50.6862 130.392 51.2319 130.402 51.71 130.463C52.1943 130.514 52.5589 130.625 52.8039 130.796C53.0839 130.991 53.246 131.234 53.2903 131.525C53.3433 131.822 53.2661 132.119 53.0587 132.417C52.9611 132.557 52.8413 132.701 52.6991 132.849C52.5631 132.988 52.3968 133.087 52.2003 133.145C52.0099 133.194 51.787 133.169 51.5317 133.069C51.2763 132.969 50.9849 132.753 50.6574 132.42C50.2074 132.432 49.729 132.456 49.2223 132.493C48.7303 132.527 48.2468 132.586 47.7716 132.671C47.3025 132.747 46.8845 132.852 46.5178 132.987C46.9148 133.108 47.3402 133.281 47.7942 133.506C48.2543 133.723 48.6943 133.977 49.1143 134.27C49.6219 134.624 49.9691 135.003 50.156 135.406C50.3578 135.807 50.4294 136.208 50.3707 136.609C50.3208 137.016 50.1709 137.399 49.9208 137.758C49.6402 138.16 49.2283 138.471 48.6852 138.691C48.1421 138.911 47.5359 139.034 46.8666 139.062C46.1973 139.089 45.5256 139.017 44.8515 138.847C44.1774 138.676 43.5691 138.401 43.0266 138.023ZM58.4747 147.31C58.1105 147.109 57.8986 146.864 57.8388 146.575C57.7738 146.295 57.8987 145.871 58.2132 145.301C58.4814 144.816 58.9088 144.229 59.4956 143.542C60.0823 142.855 60.7213 142.117 61.4124 141.329C59.7365 141.914 58.134 141.992 56.6047 141.561C56.0245 141.972 55.4235 142.31 54.8015 142.576C54.1795 142.842 53.5738 143.001 52.9844 143.053C52.4095 143.101 51.8933 142.999 51.4358 142.746C50.8662 142.432 50.4791 141.974 50.2746 141.374C50.0793 140.778 50.1957 140.093 50.6238 139.318C50.9125 138.795 51.2369 138.396 51.5967 138.119C51.9617 137.833 52.2985 137.654 52.6071 137.581C52.6349 137.133 52.7752 136.68 53.0279 136.223C53.3683 135.607 53.838 135.153 54.4372 134.863C55.0363 134.572 55.6861 134.444 56.3865 134.477C57.0963 134.516 57.778 134.715 58.4316 135.076C58.7958 135.278 59.0897 135.562 59.3134 135.929C59.5515 136.292 59.6702 136.717 59.6693 137.204C59.683 137.687 59.5351 138.208 59.2257 138.768C58.9678 139.235 58.6142 139.71 58.1647 140.193C59.0442 140.167 59.9944 139.991 61.0151 139.665C62.0451 139.345 63.0516 138.901 64.0344 138.335C64.3324 138.171 64.6261 138.169 64.9155 138.328C65.1583 138.462 65.3085 138.643 65.366 138.87C65.4381 139.092 65.4096 139.32 65.2807 139.554C65.2549 139.6 65.1418 139.739 64.9414 139.969C64.741 140.2 64.4781 140.499 64.1526 140.868C63.8324 141.227 63.4795 141.623 63.0942 142.056C62.7182 142.495 62.337 142.942 61.9506 143.399C61.5643 143.856 61.2028 144.29 60.8661 144.701C61.3512 144.396 61.8705 144.074 62.4239 143.733C62.9918 143.389 63.564 143.059 64.1402 142.744C64.7217 142.419 65.2727 142.139 65.7932 141.902C66.3137 141.666 66.7645 141.5 67.1456 141.406C67.5317 141.303 67.8135 141.3 67.9909 141.398C68.3458 141.594 68.5878 141.861 68.7171 142.201C68.8465 142.54 68.8518 142.818 68.7332 143.032C68.6146 143.247 68.4082 143.566 68.114 143.988C67.8198 144.41 67.4806 144.881 67.0965 145.4C66.7269 145.915 66.35 146.432 65.9659 146.951C65.5818 147.47 65.2401 147.945 64.9407 148.377C64.6465 148.799 64.4375 149.123 64.3137 149.347C64.2106 149.533 64.0239 149.662 63.7537 149.732C63.4834 149.802 63.2363 149.775 63.0122 149.651C62.9935 149.641 62.9608 149.623 62.9141 149.597C62.7969 149.545 62.7045 149.469 62.6369 149.371C62.5642 149.282 62.5622 149.098 62.6309 148.819C62.709 148.546 62.9078 148.119 63.2276 147.54C63.4442 147.148 63.7001 146.729 63.9952 146.283C64.2904 145.837 64.595 145.396 64.9088 144.96C65.2372 144.519 65.5522 144.115 65.8538 143.745C65.3893 144.012 64.8658 144.32 64.2834 144.669C63.7154 145.013 63.1258 145.364 62.5144 145.721C61.9081 146.068 61.3272 146.381 60.7715 146.659C60.2303 146.933 59.7543 147.133 59.3433 147.26C58.9416 147.391 58.6521 147.408 58.4747 147.31ZM55.792 139.723C56.1145 139.426 56.4214 139.102 56.7127 138.751C57.0091 138.391 57.2631 138.02 57.4745 137.637C57.5622 137.478 57.6146 137.306 57.6317 137.12C57.6489 136.935 57.5781 136.798 57.4194 136.711C57.1019 136.535 56.753 136.428 56.3727 136.389C56.0017 136.354 55.6511 136.404 55.3209 136.539C54.9908 136.673 54.7329 136.909 54.5472 137.245C54.3822 137.544 54.341 137.85 54.4237 138.163C54.5156 138.482 54.6826 138.776 54.9247 139.043C55.1761 139.316 55.4512 139.535 55.75 139.7C55.7593 139.705 55.7734 139.713 55.792 139.723ZM54.5371 140.639C54.2154 140.449 53.9212 140.232 53.6543 139.987C53.3926 139.733 53.1769 139.461 53.0073 139.173C52.8968 139.306 52.7889 139.436 52.6835 139.56C52.5833 139.676 52.4997 139.794 52.4326 139.915C52.3192 140.121 52.2487 140.325 52.2213 140.53C52.2083 140.73 52.3138 140.891 52.5379 141.015C52.7714 141.144 53.0615 141.17 53.4084 141.094C53.7646 141.023 54.1409 140.871 54.5371 140.639Z" fill="black"/>
</g>
<defs>
<clipPath id="clip0_139_1413">
<rect width="166" height="166" fill="white"/>
</clipPath>
</defs>
</svg>
