<svg xmlns="http://www.w3.org/2000/svg" viewBox="0 0 400 400" width="400" height="400">
  <defs>
    <filter id="paper" x="0" y="0" width="100%" height="100%">
      <feTurbulence type="fractalNoise" baseFrequency="0.8" numOctaves="3" result="noise"/>
      <feColorMatrix type="matrix" values="1 0 0 0 0  0 1 0 0 0  0 0 1 0 0  0 0 0 0.04 0" in="noise" result="softNoise"/>
      <feBlend mode="multiply" in="softNoise" in2="SourceGraphic"/>
    </filter>
  </defs>

  <!-- warm ivory background -->
  <rect width="400" height="400" fill="#FEF6E4"/>

  <!-- subtle paper texture -->
  <rect width="400" height="400" fill="#FEF6E4" filter="url(#paper)" opacity="0.6"/>

  <!-- fine decorative grid in upper corners -->
  <g stroke="#E3D9CA" stroke-width="0.8" fill="none" opacity="0.5">
    <line x1="40" y1="30" x2="40" y2="90"/>
    <line x1="30" y1="40" x2="90" y2="40"/>
    <line x1="360" y1="30" x2="360" y2="90"/>
    <line x1="370" y1="40" x2="310" y2="40"/>
  </g>

  <!-- the notebook -->
  <g transform="translate(200, 260)">
    <!-- left page -->
    <path d="M-75,-35 Q-38,-42 0,-38 L0,45 Q-40,50 -78,38 Z" fill="#F2ECE2" stroke="#6B5E53" stroke-width="1.2"/>
    <!-- right page -->
    <path d="M0,-38 Q38,-42 75,-35 L78,38 Q40,50 0,45 Z" fill="#F2ECE2" stroke="#6B5E53" stroke-width="1.2"/>
    <!-- center fold -->
    <line x1="0" y1="-38" x2="0" y2="45" stroke="#6B5E53" stroke-width="1"/>
    <!-- page lines -->
    <g stroke="#B5A899" stroke-width="0.6" opacity="0.6">
      <line x1="-62" y1="-18" x2="-12" y2="-20"/>
      <line x1="-64" y1="-2" x2="-10" y2="-4"/>
      <line x1="-64" y1="14" x2="-8" y2="12"/>
      <line x1="12" y1="-20" x2="62" y2="-18"/>
      <line x1="10" y1="-4" x2="64" y2="-2"/>
      <line x1="8" y1="12" x2="64" y2="14"/>
    </g>
    <!-- binding stitches -->
    <circle cx="-4" cy="-28" r="1" fill="#6B5E53"/>
    <circle cx="-4" cy="-10" r="1" fill="#6B5E53"/>
    <circle cx="-4" cy="8" r="1" fill="#6B5E53"/>
    <circle cx="-4" cy="26" r="1" fill="#6B5E53"/>
  </g>

  <!-- the road emerging from the notebook -->
  <g fill="none" stroke-linecap="round" stroke-linejoin="round">
    <!-- main road -->
    <path d="M200,267 C185,245 210,220 200,190 C192,165 170,150 180,120 C187,98 205,85 200,60"
          stroke="#9E6347" stroke-width="2.2" opacity="0.85"/>
    <!-- road edges -->
    <path d="M193,267 C180,243 202,218 193,190 C186,166 162,152 172,122 C178,101 196,88 192,63"
          stroke="#9E6347" stroke-width="0.8" opacity="0.5"/>
    <path d="M207,267 C190,247 218,222 207,190 C198,164 178,148 188,118 C196,95 214,82 208,57"
          stroke="#9E6347" stroke-width="0.8" opacity="0.5"/>
    <!-- dashed center line -->
    <path d="M200,260 C190,240 210,218 200,192 C194,170 172,154 182,126 C188,106 204,93 200,68"
          stroke="#D4A574" stroke-width="1" stroke-dasharray="6 8" opacity="0.7"/>
  </g>

  <!-- tiny figure at the start of the road -->
  <g transform="translate(200, 278)" stroke="#6B5E53" stroke-width="1.2" fill="none" stroke-linecap="round" stroke-linejoin="round">
    <circle cx="0" cy="-12" r="4"/>
    <line x1="0" y1="-8" x2="0" y2="4"/>
    <line x1="0" y1="-5" x2="-5" y2="-1"/>
    <line x1="0" y1="-5" x2="5" y2="-1"/>
    <line x1="0" y1="4" x2="-4" y2="10"/>
    <line x1="0" y1="4" x2="4" y2="10"/>
  </g>

  <!-- small birds / thoughts following the road -->
  <g fill="none" stroke="#2A7B72" stroke-width="1" stroke-linecap="round" stroke-linejoin="round" opacity="0.7">
    <path d="M170,105 Q175,100 180,105" transform="rotate(-15 175 103)"/>
    <path d="M185,75 Q190,70 195,75" transform="rotate(10 190 73)"/>
    <path d="M160,140 Q165,135 170,140" transform="rotate(-8 165 138)"/>
  </g>

  <!-- tiny accent dots -->
  <g fill="#2A7B72" opacity="0.5">
    <circle cx="155" cy="95" r="1.2"/>
    <circle cx="245" cy="115" r="1"/>
    <circle cx="225" cy="55" r="1.2"/>
    <circle cx="150" cy="180" r="0.8"/>
  </g>

  <!-- handwritten-style caption -->
  <text x="200" y="360" text-anchor="middle" font-family="'Dancing Script', 'STXingkai', cursive" font-size="16" fill="#9E6347" opacity="0.85">a road that should not exist</text>
</svg>
